M48
;GenerationSoftware,Autodesk,EAGLE,9.7.0*%
;CreationDate,2024-07-30T10:08:15Z*%
FMAT,2
ICI,OFF
METRIC,TZ,000.000
T9C0.200
T8C0.350
T7C0.700
T6C0.800
T5C1.000
T4C1.016
T3C1.050
T2C1.650
T1C4.000
%
G90
M71
T1
X3810Y59690
X3810Y3810
X92710Y3810
X92710Y59690
T2
X6350Y54915
X6350Y8585
T3
X62666Y11786
X60126Y11786
X57586Y11786
X55046Y11786
X52506Y11786
T4
X48317Y11783
X45777Y11783
T5
X85181Y23090
X91181Y23090
X88181Y27790
T6
G00X94120Y52500
M15
G01X92380Y52500
M16
X93250Y52500
G00X94120Y45200
M15
G01X92380Y45200
M16
X93250Y45200
T7
G05
X88300Y47250
X89550Y48050
X88300Y48850
X89550Y49650
X88300Y50450
T8
X72977Y20110
T9
X76500Y13789
X75000Y13789
X73500Y13789
X72000Y13789
X68520Y9400
X68520Y7900
X68520Y6400
X68520Y4900
X68520Y3400
X58945Y49315
X22051Y21583
X16960Y24951
X70595Y52294
X25351Y38196
X22999Y43807
X27146Y43746
X72946Y36174
X68930Y38366
X66998Y57783
X68830Y52294
X72330Y52294
X69384Y47783
X67619Y47783
X71120Y47783
X53663Y39175
X50314Y39175
X29725Y48713
X70649Y58828
X34198Y54734
X68975Y54541
X71353Y43681
X73430Y58567
X82653Y48186
X80798Y49416
X85917Y44285
X85970Y41092
X78002Y34575
X86128Y57980
X78030Y60441
X69545Y58828
X74288Y59645
X80530Y7951
X89712Y7951
X85602Y51736
X54732Y49891
X60145Y56273
X62686Y55637
X66340Y50083
X66129Y57838
X30435Y50420
X30922Y51739
X50884Y23433
X65451Y45851
X64013Y57886
X70892Y11452
X65918Y13447
X63213Y54443
X37204Y46346
X39792Y46673
X38636Y60109
X36716Y45761
X39815Y45914
X39395Y60047
X42654Y50312
X36786Y45002
X42370Y45893
X43546Y50166
X36028Y44828
X41827Y45362
X33782Y42014
X20888Y42016
X41938Y42157
X44023Y49238
X36849Y32256
X22572Y45627
X43033Y42820
X42805Y32253
X44441Y45087
X36849Y31456
X22603Y46492
X45321Y31431
X46039Y46095
X36849Y30644
X40618Y30677
X22131Y47100
X40824Y43689
X40535Y58015
X36849Y29856
X38960Y29856
X27867Y61508
X74647Y61307
X37098Y61553
X75092Y48172
X75398Y61839
X36849Y29030
X27027Y61837
X36249Y61876
X38429Y29030
X75720Y48796
X36849Y28258
X40955Y28257
X41414Y58124
X31661Y58443
X36849Y27443
X40381Y27398
X26615Y59813
X40309Y59438
X36849Y26656
X23052Y47632
X46082Y26598
X48153Y47051
X51444Y35175
X29860Y21044
X51424Y33811
X30502Y46339
X33326Y44600
X50107Y47655
X30647Y21433
X66296Y35696
X66034Y33708
X36202Y48632
X45985Y48227
X46324Y33417
X65345Y32920
X32057Y21990
X44678Y24417
X65345Y35706
X44833Y47934
X44641Y32889
X36202Y49482
X64609Y36480
X32607Y23797
X43563Y32357
X43578Y25011
X64609Y32388
X36863Y50131
X44294Y48479
X58319Y31821
X34880Y18684
X41345Y18683
X41436Y21266
X45335Y21266
X58322Y44657
X42654Y49553
X36210Y50702
X46131Y32048
X57560Y31388
X46194Y20321
X46996Y31171
X57560Y44952
X57561Y51501
X36809Y51828
X36849Y20255
X57017Y30638
X36849Y21042
X47179Y21161
X47509Y30611
X57016Y45520
X57053Y52639
X37362Y53193
X70300Y26692
X70295Y27842
X28998Y20562
X28197Y40806
X41952Y34420
X41938Y40806
X68111Y36391
X68148Y26160
X67542Y37115
X67486Y25629
X69007Y27810
X70163Y29479
X29045Y38188
X37628Y38301
X38063Y52390
X36849Y21855
X44311Y21842
X45188Y36360
X36254Y53721
X44358Y53058
X45263Y48758
X36849Y22642
X42581Y22670
X23058Y50132
X42490Y36916
X43586Y46806
X36849Y23456
X43812Y23444
X44176Y42438
X36516Y52910
X39329Y52739
X39747Y50416
X29862Y38930
X37628Y39059
X37945Y51000
X28260Y37614
X37049Y37274
X39089Y53803
X28318Y58509
X26232Y51132
X76259Y62181
X26083Y62181
X26082Y54018
X76266Y49755
X74407Y47201
X73678Y60709
X22526Y48458
X28262Y52224
X29262Y52796
X29749Y53381
X61951Y37434
X61978Y53721
X61209Y37952
X61131Y57182
X73344Y39090
X64911Y39090
X71092Y58006
X17040Y43815
X17492Y23436
X23389Y59390
X14795Y59390
X14795Y51435
X23978Y58145
X13642Y58145
X13642Y50165
X67381Y13283
X17140Y48878
X17140Y59996
X14537Y12107
X14748Y26796
X13958Y13364
X13986Y27826
X11973Y14624
X13153Y28565
X11224Y15873
X12319Y29256
X11707Y30203
X10697Y17173
X13376Y33040
X13355Y18415
X12707Y34315
X12336Y19686
X12050Y35564
X11787Y20956
X11335Y36817
X11136Y22210
X10661Y23548
X10679Y38122
X15041Y33657
X17751Y21042
X14498Y32391
X17114Y20174
X13946Y31099
X17544Y18636
X16698Y37454
X16960Y26582
X18930Y47632
X18930Y24251
X18359Y46358
X18382Y22676
X17790Y45086
X17879Y22106
X26630Y41355
X26642Y35601
X25844Y35547
X25881Y40770
X24411Y59996
X15660Y28289
X16132Y36182
X16295Y27638
X28303Y39188
X52578Y42724
X59250Y30998
X28787Y40139
X59247Y43256
X89209Y42458
X89209Y40665
X89209Y38861
X76916Y43149
X82018Y32097
X85320Y31616
X89209Y35267
X89209Y33448
X89264Y31649
X89209Y29844
X55578Y56621
X55862Y51259
X34203Y59688
X33241Y54304
X75641Y44664
X72738Y43911
X81411Y44435
X68739Y43920
X67554Y53907
X73776Y49474
X73782Y53016
X78841Y55509
X67580Y49464
X29725Y16732
X64368Y39989
X33160Y50987
X78849Y53266
X52119Y57199
X51091Y56549
X29779Y56279
X41522Y56549
X78000Y13789
X15507Y34897
M30