G04 EAGLE Gerber RS-274X export*
G75*
%MOMM*%
%FSLAX34Y34*%
%LPD*%
%INSilkscreen Top*%
%IPPOS*%
%AMOC8*
5,1,8,0,0,1.08239X$1,22.5*%
G01*
G04 Define Apertures*
%ADD10C,0.127000*%
%ADD11C,0.152400*%
%ADD12R,0.762000X0.508000*%
%ADD13R,0.762000X1.016000*%
G36*
X242255Y60496D02*
X227208Y60496D01*
X227208Y97562D01*
X240676Y97562D01*
X241479Y97553D01*
X242256Y97527D01*
X243008Y97483D01*
X243734Y97421D01*
X244435Y97342D01*
X245111Y97245D01*
X245760Y97131D01*
X246385Y96999D01*
X246984Y96850D01*
X247557Y96683D01*
X248105Y96499D01*
X248627Y96297D01*
X249124Y96077D01*
X249596Y95840D01*
X250042Y95585D01*
X250462Y95313D01*
X250857Y95023D01*
X251227Y94715D01*
X251571Y94390D01*
X251889Y94047D01*
X252182Y93687D01*
X252450Y93309D01*
X252692Y92914D01*
X252909Y92501D01*
X253100Y92071D01*
X253265Y91622D01*
X253406Y91157D01*
X253520Y90674D01*
X253610Y90173D01*
X253673Y89654D01*
X253711Y89119D01*
X253724Y88565D01*
X253717Y88158D01*
X253695Y87759D01*
X253659Y87369D01*
X253609Y86987D01*
X253544Y86613D01*
X253465Y86247D01*
X253372Y85889D01*
X253264Y85540D01*
X253142Y85199D01*
X253005Y84866D01*
X252854Y84541D01*
X252688Y84224D01*
X252509Y83916D01*
X252314Y83616D01*
X252106Y83324D01*
X251883Y83041D01*
X251647Y82767D01*
X251399Y82505D01*
X251100Y82230D01*
X250867Y82015D01*
X250287Y81571D01*
X249660Y81173D01*
X248985Y80821D01*
X248262Y80515D01*
X247492Y80256D01*
X246674Y80042D01*
X247219Y79969D01*
X247747Y79880D01*
X248260Y79777D01*
X248757Y79660D01*
X249238Y79527D01*
X249704Y79379D01*
X250153Y79216D01*
X250587Y79039D01*
X251005Y78846D01*
X251407Y78639D01*
X251793Y78417D01*
X252164Y78180D01*
X252519Y77928D01*
X252857Y77661D01*
X253139Y77415D01*
X253180Y77379D01*
X253487Y77082D01*
X253777Y76773D01*
X254048Y76454D01*
X254301Y76125D01*
X254535Y75786D01*
X254750Y75437D01*
X254946Y75078D01*
X255124Y74709D01*
X255283Y74330D01*
X255423Y73941D01*
X255545Y73542D01*
X255648Y73134D01*
X255732Y72715D01*
X255797Y72286D01*
X255844Y71847D01*
X255872Y71399D01*
X255881Y70940D01*
X255867Y70330D01*
X255825Y69738D01*
X255755Y69163D01*
X255656Y68604D01*
X255529Y68063D01*
X255374Y67540D01*
X255191Y67033D01*
X254980Y66543D01*
X254741Y66071D01*
X254474Y65616D01*
X254178Y65178D01*
X253854Y64757D01*
X253502Y64353D01*
X253122Y63967D01*
X252714Y63598D01*
X252277Y63245D01*
X251816Y62912D01*
X251332Y62601D01*
X250827Y62311D01*
X250299Y62043D01*
X249750Y61796D01*
X249179Y61570D01*
X248585Y61366D01*
X247970Y61184D01*
X247332Y61023D01*
X246673Y60883D01*
X245992Y60765D01*
X245288Y60668D01*
X244563Y60593D01*
X243815Y60539D01*
X243046Y60507D01*
X242255Y60496D01*
G37*
%LPC*%
G36*
X241992Y64521D02*
X242557Y64528D01*
X243103Y64548D01*
X243630Y64581D01*
X244137Y64628D01*
X244625Y64688D01*
X245093Y64762D01*
X245541Y64848D01*
X245970Y64949D01*
X246380Y65062D01*
X246770Y65189D01*
X247140Y65329D01*
X247491Y65483D01*
X247823Y65650D01*
X248135Y65830D01*
X248427Y66024D01*
X248700Y66231D01*
X248955Y66451D01*
X249193Y66685D01*
X249415Y66931D01*
X249620Y67191D01*
X249810Y67464D01*
X249982Y67750D01*
X250138Y68049D01*
X250278Y68362D01*
X250401Y68687D01*
X250508Y69026D01*
X250599Y69378D01*
X250673Y69743D01*
X250730Y70121D01*
X250771Y70512D01*
X250796Y70917D01*
X250804Y71334D01*
X250795Y71737D01*
X250768Y72128D01*
X250723Y72505D01*
X250660Y72870D01*
X250579Y73222D01*
X250481Y73561D01*
X250364Y73887D01*
X250229Y74200D01*
X250076Y74501D01*
X249905Y74789D01*
X249716Y75064D01*
X249509Y75326D01*
X249285Y75575D01*
X249042Y75812D01*
X248781Y76036D01*
X248502Y76247D01*
X248206Y76445D01*
X247891Y76631D01*
X247558Y76804D01*
X247208Y76964D01*
X246839Y77111D01*
X246452Y77245D01*
X246048Y77367D01*
X245625Y77475D01*
X245185Y77571D01*
X244726Y77654D01*
X244250Y77725D01*
X243755Y77782D01*
X243242Y77827D01*
X242712Y77859D01*
X242164Y77878D01*
X241597Y77885D01*
X232232Y77885D01*
X232232Y64521D01*
X241992Y64521D01*
G37*
G36*
X240676Y81804D02*
X241171Y81810D01*
X241651Y81828D01*
X242114Y81858D01*
X242561Y81899D01*
X242993Y81952D01*
X243408Y82017D01*
X243808Y82094D01*
X244191Y82182D01*
X244559Y82283D01*
X244911Y82395D01*
X245247Y82519D01*
X245567Y82655D01*
X245871Y82803D01*
X246159Y82962D01*
X246431Y83134D01*
X246687Y83317D01*
X246928Y83512D01*
X247153Y83720D01*
X247362Y83941D01*
X247556Y84174D01*
X247735Y84420D01*
X247898Y84679D01*
X248045Y84950D01*
X248177Y85234D01*
X248293Y85531D01*
X248394Y85840D01*
X248479Y86161D01*
X248549Y86496D01*
X248604Y86843D01*
X248642Y87203D01*
X248666Y87575D01*
X248673Y87960D01*
X248665Y88328D01*
X248641Y88683D01*
X248601Y89024D01*
X248545Y89353D01*
X248473Y89667D01*
X248385Y89969D01*
X248281Y90257D01*
X248160Y90531D01*
X248024Y90793D01*
X247872Y91041D01*
X247704Y91275D01*
X247519Y91497D01*
X247319Y91704D01*
X247102Y91899D01*
X246870Y92080D01*
X246622Y92248D01*
X246080Y92550D01*
X245481Y92812D01*
X244824Y93033D01*
X244109Y93215D01*
X243337Y93356D01*
X242508Y93456D01*
X241621Y93517D01*
X240676Y93537D01*
X232232Y93537D01*
X232232Y81804D01*
X240676Y81804D01*
G37*
%LPD*%
G36*
X423391Y59970D02*
X422605Y59989D01*
X421843Y60046D01*
X421106Y60141D01*
X420394Y60274D01*
X419707Y60446D01*
X419045Y60655D01*
X418407Y60902D01*
X417795Y61187D01*
X417207Y61510D01*
X416644Y61871D01*
X416106Y62270D01*
X415593Y62708D01*
X415105Y63183D01*
X414642Y63696D01*
X414203Y64248D01*
X413789Y64837D01*
X413401Y65463D01*
X413037Y66123D01*
X412699Y66819D01*
X412385Y67550D01*
X412097Y68315D01*
X411834Y69116D01*
X411596Y69951D01*
X411382Y70822D01*
X411194Y71727D01*
X411031Y72667D01*
X410894Y73642D01*
X410781Y74652D01*
X410693Y75697D01*
X410630Y76777D01*
X410593Y77892D01*
X410580Y79042D01*
X410592Y80217D01*
X410629Y81355D01*
X410690Y82455D01*
X410775Y83518D01*
X410885Y84543D01*
X411019Y85531D01*
X411177Y86481D01*
X411359Y87394D01*
X411566Y88270D01*
X411798Y89108D01*
X412054Y89909D01*
X412334Y90673D01*
X412638Y91399D01*
X412967Y92088D01*
X413320Y92739D01*
X413697Y93353D01*
X414101Y93929D01*
X414533Y94469D01*
X414994Y94971D01*
X415482Y95436D01*
X415999Y95864D01*
X416544Y96254D01*
X417117Y96608D01*
X417719Y96924D01*
X418349Y97203D01*
X419007Y97445D01*
X419693Y97649D01*
X420408Y97817D01*
X421151Y97947D01*
X421922Y98040D01*
X422721Y98096D01*
X423549Y98114D01*
X424354Y98095D01*
X425133Y98039D01*
X425885Y97945D01*
X426610Y97813D01*
X427308Y97644D01*
X427979Y97437D01*
X428623Y97193D01*
X429241Y96911D01*
X429832Y96591D01*
X430396Y96234D01*
X430933Y95839D01*
X431443Y95406D01*
X431927Y94936D01*
X432384Y94428D01*
X432814Y93883D01*
X433217Y93300D01*
X433594Y92680D01*
X433947Y92024D01*
X434276Y91332D01*
X434580Y90604D01*
X434860Y89839D01*
X435116Y89039D01*
X435348Y88202D01*
X435555Y87329D01*
X435737Y86419D01*
X435896Y85474D01*
X436029Y84492D01*
X436139Y83475D01*
X436224Y82421D01*
X436285Y81331D01*
X436322Y80205D01*
X436334Y79042D01*
X436321Y77899D01*
X436283Y76789D01*
X436219Y75714D01*
X436129Y74674D01*
X436014Y73667D01*
X435873Y72695D01*
X435707Y71758D01*
X435515Y70854D01*
X435298Y69985D01*
X435055Y69151D01*
X434786Y68350D01*
X434492Y67584D01*
X434172Y66852D01*
X433826Y66155D01*
X433455Y65492D01*
X433059Y64863D01*
X432637Y64271D01*
X432191Y63716D01*
X431721Y63200D01*
X431226Y62723D01*
X430707Y62283D01*
X430164Y61882D01*
X429596Y61518D01*
X429004Y61193D01*
X428388Y60907D01*
X427747Y60658D01*
X427082Y60448D01*
X426393Y60276D01*
X425679Y60142D01*
X424941Y60047D01*
X424178Y59989D01*
X423391Y59970D01*
G37*
%LPC*%
G36*
X423444Y63837D02*
X423958Y63852D01*
X424455Y63896D01*
X424934Y63969D01*
X425395Y64071D01*
X425840Y64202D01*
X426266Y64363D01*
X426676Y64552D01*
X427068Y64771D01*
X427442Y65019D01*
X427799Y65296D01*
X428138Y65603D01*
X428460Y65938D01*
X428765Y66303D01*
X429052Y66697D01*
X429321Y67120D01*
X429573Y67573D01*
X429809Y68055D01*
X430029Y68569D01*
X430235Y69114D01*
X430425Y69690D01*
X430600Y70298D01*
X430759Y70937D01*
X430904Y71607D01*
X431033Y72308D01*
X431147Y73040D01*
X431246Y73804D01*
X431330Y74599D01*
X431398Y75425D01*
X431451Y76283D01*
X431489Y77171D01*
X431512Y78091D01*
X431520Y79042D01*
X431513Y80028D01*
X431491Y80979D01*
X431455Y81896D01*
X431404Y82778D01*
X431339Y83625D01*
X431259Y84438D01*
X431165Y85217D01*
X431056Y85961D01*
X430933Y86670D01*
X430795Y87345D01*
X430643Y87985D01*
X430477Y88591D01*
X430296Y89163D01*
X430100Y89699D01*
X429890Y90202D01*
X429665Y90670D01*
X429424Y91106D01*
X429164Y91514D01*
X428885Y91894D01*
X428588Y92246D01*
X428271Y92570D01*
X427936Y92866D01*
X427582Y93133D01*
X427209Y93372D01*
X426817Y93584D01*
X426407Y93767D01*
X425978Y93921D01*
X425529Y94048D01*
X425063Y94147D01*
X424577Y94217D01*
X424072Y94259D01*
X423549Y94273D01*
X423013Y94260D01*
X422496Y94218D01*
X421998Y94149D01*
X421519Y94051D01*
X421060Y93927D01*
X420620Y93774D01*
X420199Y93594D01*
X419797Y93386D01*
X419415Y93150D01*
X419051Y92886D01*
X418707Y92595D01*
X418382Y92276D01*
X418077Y91929D01*
X417790Y91554D01*
X417523Y91152D01*
X417275Y90722D01*
X417044Y90260D01*
X416828Y89763D01*
X416627Y89229D01*
X416441Y88660D01*
X416269Y88056D01*
X416113Y87415D01*
X415971Y86739D01*
X415845Y86026D01*
X415733Y85279D01*
X415636Y84495D01*
X415554Y83676D01*
X415487Y82820D01*
X415435Y81929D01*
X415398Y81003D01*
X415375Y80040D01*
X415368Y79042D01*
X415375Y78072D01*
X415398Y77135D01*
X415436Y76232D01*
X415489Y75361D01*
X415557Y74523D01*
X415640Y73719D01*
X415738Y72947D01*
X415851Y72209D01*
X415980Y71504D01*
X416123Y70832D01*
X416282Y70193D01*
X416455Y69587D01*
X416644Y69014D01*
X416848Y68474D01*
X417067Y67967D01*
X417301Y67494D01*
X417552Y67051D01*
X417820Y66637D01*
X418106Y66251D01*
X418410Y65894D01*
X418732Y65566D01*
X419071Y65266D01*
X419429Y64994D01*
X419804Y64751D01*
X420197Y64537D01*
X420607Y64351D01*
X421035Y64194D01*
X421482Y64066D01*
X421945Y63966D01*
X422427Y63894D01*
X422927Y63852D01*
X423444Y63837D01*
G37*
%LPD*%
G36*
X114898Y60496D02*
X110426Y60496D01*
X110426Y97562D01*
X117029Y97562D01*
X126894Y71861D01*
X127410Y70253D01*
X127907Y68533D01*
X128311Y67004D01*
X128551Y65968D01*
X128685Y66562D01*
X128877Y67293D01*
X129126Y68160D01*
X129433Y69164D01*
X129995Y70910D01*
X130195Y71485D01*
X130340Y71861D01*
X140021Y97562D01*
X146466Y97562D01*
X146466Y60496D01*
X141941Y60496D01*
X141941Y85224D01*
X141956Y87256D01*
X142000Y89249D01*
X142074Y91202D01*
X142178Y93116D01*
X141550Y90890D01*
X140955Y88920D01*
X140392Y87207D01*
X139863Y85750D01*
X130287Y60496D01*
X126762Y60496D01*
X117055Y85750D01*
X115582Y90222D01*
X114714Y93116D01*
X114793Y90196D01*
X114898Y85224D01*
X114898Y60496D01*
G37*
G36*
X161773Y59970D02*
X161245Y59979D01*
X160734Y60006D01*
X160240Y60050D01*
X159762Y60112D01*
X159301Y60191D01*
X158856Y60288D01*
X158429Y60403D01*
X158017Y60536D01*
X157623Y60686D01*
X157245Y60854D01*
X156884Y61040D01*
X156539Y61243D01*
X156211Y61464D01*
X155900Y61702D01*
X155606Y61959D01*
X155328Y62233D01*
X155066Y62522D01*
X154822Y62824D01*
X154595Y63140D01*
X154384Y63469D01*
X154190Y63811D01*
X154013Y64166D01*
X153853Y64534D01*
X153710Y64916D01*
X153583Y65310D01*
X153474Y65718D01*
X153381Y66139D01*
X153305Y66573D01*
X153246Y67020D01*
X153204Y67481D01*
X153179Y67954D01*
X153171Y68441D01*
X153182Y68985D01*
X153216Y69514D01*
X153273Y70026D01*
X153352Y70522D01*
X153454Y71003D01*
X153579Y71467D01*
X153727Y71915D01*
X153897Y72347D01*
X154090Y72763D01*
X154306Y73164D01*
X154544Y73548D01*
X154806Y73916D01*
X155090Y74268D01*
X155396Y74604D01*
X155725Y74924D01*
X156077Y75228D01*
X156455Y75515D01*
X156860Y75785D01*
X157293Y76038D01*
X157754Y76273D01*
X158242Y76492D01*
X158759Y76693D01*
X159303Y76876D01*
X159875Y77043D01*
X160475Y77192D01*
X161103Y77324D01*
X161759Y77439D01*
X162443Y77536D01*
X163154Y77616D01*
X163893Y77679D01*
X164661Y77725D01*
X165456Y77753D01*
X171848Y77858D01*
X171848Y79410D01*
X171825Y80248D01*
X171796Y80643D01*
X171756Y81023D01*
X171704Y81388D01*
X171641Y81737D01*
X171566Y82071D01*
X171480Y82390D01*
X171382Y82693D01*
X171272Y82980D01*
X171152Y83253D01*
X171019Y83509D01*
X170875Y83751D01*
X170720Y83977D01*
X170553Y84187D01*
X170375Y84382D01*
X170184Y84564D01*
X169980Y84734D01*
X169763Y84892D01*
X169533Y85038D01*
X169290Y85173D01*
X169033Y85296D01*
X168764Y85407D01*
X168481Y85507D01*
X168185Y85595D01*
X167876Y85671D01*
X167553Y85735D01*
X167218Y85788D01*
X166869Y85829D01*
X166508Y85858D01*
X166133Y85876D01*
X165745Y85882D01*
X164976Y85865D01*
X164262Y85814D01*
X163602Y85730D01*
X162996Y85612D01*
X162444Y85460D01*
X161947Y85275D01*
X161504Y85056D01*
X161115Y84803D01*
X160771Y84513D01*
X160464Y84183D01*
X160193Y83813D01*
X159958Y83402D01*
X159759Y82952D01*
X159596Y82460D01*
X159469Y81929D01*
X159379Y81357D01*
X154433Y81804D01*
X154518Y82277D01*
X154620Y82734D01*
X154739Y83177D01*
X154876Y83605D01*
X155031Y84017D01*
X155203Y84415D01*
X155393Y84797D01*
X155601Y85165D01*
X155826Y85518D01*
X156068Y85855D01*
X156328Y86178D01*
X156606Y86485D01*
X156901Y86778D01*
X157214Y87055D01*
X157545Y87318D01*
X157892Y87565D01*
X158258Y87798D01*
X158641Y88015D01*
X159042Y88218D01*
X159460Y88406D01*
X159896Y88578D01*
X160349Y88736D01*
X160820Y88878D01*
X161309Y89006D01*
X161815Y89118D01*
X162339Y89216D01*
X162880Y89298D01*
X163439Y89366D01*
X164015Y89418D01*
X164609Y89456D01*
X165221Y89478D01*
X165850Y89486D01*
X166511Y89476D01*
X167150Y89447D01*
X167769Y89399D01*
X168367Y89332D01*
X168945Y89246D01*
X169501Y89140D01*
X170037Y89015D01*
X170552Y88871D01*
X171047Y88707D01*
X171520Y88525D01*
X171973Y88323D01*
X172405Y88102D01*
X172817Y87862D01*
X173207Y87603D01*
X173577Y87324D01*
X173926Y87026D01*
X174254Y86710D01*
X174561Y86377D01*
X174847Y86027D01*
X175112Y85659D01*
X175355Y85274D01*
X175577Y84872D01*
X175778Y84453D01*
X175958Y84017D01*
X176117Y83564D01*
X176255Y83094D01*
X176371Y82606D01*
X176466Y82101D01*
X176540Y81579D01*
X176593Y81040D01*
X176625Y80484D01*
X176636Y79910D01*
X176636Y67652D01*
X176644Y67142D01*
X176670Y66664D01*
X176713Y66219D01*
X176774Y65807D01*
X176851Y65427D01*
X176946Y65079D01*
X177059Y64764D01*
X177188Y64482D01*
X177342Y64232D01*
X177527Y64016D01*
X177743Y63832D01*
X177990Y63683D01*
X178269Y63566D01*
X178579Y63483D01*
X178920Y63433D01*
X179293Y63416D01*
X179646Y63428D01*
X180023Y63462D01*
X180422Y63520D01*
X180845Y63600D01*
X180845Y60654D01*
X179945Y60470D01*
X179492Y60398D01*
X179036Y60339D01*
X178578Y60293D01*
X178117Y60260D01*
X177654Y60240D01*
X177188Y60233D01*
X176553Y60255D01*
X175962Y60320D01*
X175417Y60428D01*
X174916Y60579D01*
X174460Y60773D01*
X174049Y61010D01*
X173682Y61291D01*
X173361Y61614D01*
X173078Y61984D01*
X172827Y62403D01*
X172609Y62870D01*
X172423Y63387D01*
X172270Y63952D01*
X172150Y64566D01*
X172061Y65230D01*
X172006Y65942D01*
X171848Y65942D01*
X171385Y65156D01*
X170903Y64430D01*
X170403Y63763D01*
X169885Y63157D01*
X169348Y62609D01*
X168792Y62122D01*
X168218Y61693D01*
X167626Y61325D01*
X167008Y61007D01*
X166357Y60732D01*
X165674Y60499D01*
X164959Y60309D01*
X164211Y60161D01*
X163431Y60055D01*
X162618Y59991D01*
X161773Y59970D01*
G37*
%LPC*%
G36*
X162851Y63522D02*
X163493Y63540D01*
X164117Y63596D01*
X164723Y63688D01*
X165311Y63817D01*
X165881Y63984D01*
X166432Y64187D01*
X166966Y64428D01*
X167481Y64705D01*
X167974Y65015D01*
X168440Y65352D01*
X168880Y65717D01*
X169293Y66109D01*
X169679Y66529D01*
X170039Y66977D01*
X170371Y67452D01*
X170677Y67954D01*
X170952Y68472D01*
X171189Y68994D01*
X171391Y69520D01*
X171555Y70049D01*
X171683Y70582D01*
X171775Y71118D01*
X171830Y71659D01*
X171848Y72203D01*
X171848Y74544D01*
X166666Y74439D01*
X165856Y74416D01*
X165096Y74376D01*
X164387Y74318D01*
X163729Y74241D01*
X163121Y74147D01*
X162564Y74034D01*
X162058Y73903D01*
X161602Y73755D01*
X161183Y73586D01*
X160790Y73396D01*
X160422Y73185D01*
X160079Y72952D01*
X159761Y72698D01*
X159468Y72423D01*
X159201Y72126D01*
X158958Y71808D01*
X158742Y71466D01*
X158555Y71099D01*
X158397Y70707D01*
X158267Y70289D01*
X158167Y69845D01*
X158095Y69376D01*
X158052Y68882D01*
X158037Y68362D01*
X158057Y67800D01*
X158115Y67270D01*
X158213Y66774D01*
X158350Y66310D01*
X158525Y65879D01*
X158740Y65481D01*
X158994Y65116D01*
X159287Y64784D01*
X159616Y64488D01*
X159978Y64232D01*
X160374Y64015D01*
X160803Y63837D01*
X161265Y63699D01*
X161760Y63600D01*
X162289Y63541D01*
X162851Y63522D01*
G37*
%LPD*%
G36*
X287554Y59970D02*
X287026Y59979D01*
X286515Y60006D01*
X286021Y60050D01*
X285543Y60112D01*
X285082Y60191D01*
X284638Y60288D01*
X284210Y60403D01*
X283799Y60536D01*
X283404Y60686D01*
X283026Y60854D01*
X282665Y61040D01*
X282321Y61243D01*
X281993Y61464D01*
X281681Y61702D01*
X281387Y61959D01*
X281109Y62233D01*
X280848Y62522D01*
X280603Y62824D01*
X280376Y63140D01*
X280165Y63469D01*
X279971Y63811D01*
X279794Y64166D01*
X279634Y64534D01*
X279491Y64916D01*
X279365Y65310D01*
X279255Y65718D01*
X279162Y66139D01*
X279087Y66573D01*
X279028Y67020D01*
X278985Y67481D01*
X278960Y67954D01*
X278952Y68441D01*
X278963Y68985D01*
X278997Y69514D01*
X279054Y70026D01*
X279133Y70522D01*
X279236Y71003D01*
X279361Y71467D01*
X279508Y71915D01*
X279678Y72347D01*
X279872Y72763D01*
X280087Y73164D01*
X280326Y73548D01*
X280587Y73916D01*
X280871Y74268D01*
X281177Y74604D01*
X281507Y74924D01*
X281859Y75228D01*
X282236Y75515D01*
X282641Y75785D01*
X283074Y76038D01*
X283535Y76273D01*
X284023Y76492D01*
X284540Y76693D01*
X285084Y76876D01*
X285657Y77043D01*
X286257Y77192D01*
X286885Y77324D01*
X287540Y77439D01*
X288224Y77536D01*
X288935Y77616D01*
X289675Y77679D01*
X290442Y77725D01*
X291237Y77753D01*
X297629Y77858D01*
X297629Y79410D01*
X297606Y80248D01*
X297577Y80643D01*
X297537Y81023D01*
X297485Y81388D01*
X297422Y81737D01*
X297347Y82071D01*
X297261Y82390D01*
X297163Y82693D01*
X297054Y82980D01*
X296933Y83253D01*
X296801Y83509D01*
X296657Y83751D01*
X296501Y83977D01*
X296334Y84187D01*
X296156Y84382D01*
X295965Y84564D01*
X295761Y84734D01*
X295544Y84892D01*
X295314Y85038D01*
X295071Y85173D01*
X294814Y85296D01*
X294545Y85407D01*
X294262Y85507D01*
X293966Y85595D01*
X293657Y85671D01*
X293335Y85735D01*
X292999Y85788D01*
X292651Y85829D01*
X292289Y85858D01*
X291914Y85876D01*
X291526Y85882D01*
X290757Y85865D01*
X290043Y85814D01*
X289383Y85730D01*
X288777Y85612D01*
X288226Y85460D01*
X287728Y85275D01*
X287285Y85056D01*
X286896Y84803D01*
X286553Y84513D01*
X286245Y84183D01*
X285974Y83813D01*
X285739Y83402D01*
X285540Y82952D01*
X285377Y82460D01*
X285250Y81929D01*
X285160Y81357D01*
X280214Y81804D01*
X280299Y82277D01*
X280401Y82734D01*
X280520Y83177D01*
X280658Y83605D01*
X280812Y84017D01*
X280985Y84415D01*
X281174Y84797D01*
X281382Y85165D01*
X281607Y85518D01*
X281849Y85855D01*
X282110Y86178D01*
X282387Y86485D01*
X282682Y86778D01*
X282995Y87055D01*
X283326Y87318D01*
X283674Y87565D01*
X284039Y87798D01*
X284422Y88015D01*
X284823Y88218D01*
X285241Y88406D01*
X285677Y88578D01*
X286131Y88736D01*
X286602Y88878D01*
X287090Y89006D01*
X287596Y89118D01*
X288120Y89216D01*
X288661Y89298D01*
X289220Y89366D01*
X289797Y89418D01*
X290391Y89456D01*
X291002Y89478D01*
X291631Y89486D01*
X292292Y89476D01*
X292931Y89447D01*
X293550Y89399D01*
X294149Y89332D01*
X294726Y89246D01*
X295283Y89140D01*
X295818Y89015D01*
X296334Y88871D01*
X296828Y88707D01*
X297302Y88525D01*
X297754Y88323D01*
X298187Y88102D01*
X298598Y87862D01*
X298988Y87603D01*
X299358Y87324D01*
X299707Y87026D01*
X300035Y86710D01*
X300342Y86377D01*
X300628Y86027D01*
X300893Y85659D01*
X301136Y85274D01*
X301358Y84872D01*
X301560Y84453D01*
X301739Y84017D01*
X301898Y83564D01*
X302036Y83094D01*
X302152Y82606D01*
X302248Y82101D01*
X302322Y81579D01*
X302375Y81040D01*
X302406Y80484D01*
X302417Y79910D01*
X302417Y67652D01*
X302426Y67142D01*
X302451Y66664D01*
X302495Y66219D01*
X302555Y65807D01*
X302633Y65427D01*
X302728Y65079D01*
X302840Y64764D01*
X302969Y64482D01*
X303123Y64232D01*
X303308Y64016D01*
X303524Y63832D01*
X303772Y63683D01*
X304050Y63566D01*
X304360Y63483D01*
X304701Y63433D01*
X305074Y63416D01*
X305427Y63428D01*
X305804Y63462D01*
X306203Y63520D01*
X306626Y63600D01*
X306626Y60654D01*
X305727Y60470D01*
X305273Y60398D01*
X304817Y60339D01*
X304359Y60293D01*
X303898Y60260D01*
X303435Y60240D01*
X302969Y60233D01*
X302334Y60255D01*
X301744Y60320D01*
X301198Y60428D01*
X300697Y60579D01*
X300241Y60773D01*
X299830Y61010D01*
X299463Y61291D01*
X299142Y61614D01*
X298859Y61984D01*
X298608Y62403D01*
X298390Y62870D01*
X298205Y63387D01*
X298051Y63952D01*
X297931Y64566D01*
X297843Y65230D01*
X297787Y65942D01*
X297629Y65942D01*
X297166Y65156D01*
X296685Y64430D01*
X296185Y63763D01*
X295666Y63157D01*
X295129Y62609D01*
X294574Y62122D01*
X294000Y61693D01*
X293407Y61325D01*
X292789Y61007D01*
X292139Y60732D01*
X291456Y60499D01*
X290740Y60309D01*
X289992Y60161D01*
X289212Y60055D01*
X288399Y59991D01*
X287554Y59970D01*
G37*
%LPC*%
G36*
X288632Y63522D02*
X289274Y63540D01*
X289898Y63596D01*
X290504Y63688D01*
X291092Y63817D01*
X291662Y63984D01*
X292213Y64187D01*
X292747Y64428D01*
X293262Y64705D01*
X293755Y65015D01*
X294222Y65352D01*
X294661Y65717D01*
X295074Y66109D01*
X295460Y66529D01*
X295820Y66977D01*
X296153Y67452D01*
X296459Y67954D01*
X296733Y68472D01*
X296971Y68994D01*
X297172Y69520D01*
X297337Y70049D01*
X297465Y70582D01*
X297556Y71118D01*
X297611Y71659D01*
X297629Y72203D01*
X297629Y74544D01*
X292447Y74439D01*
X291637Y74416D01*
X290878Y74376D01*
X290169Y74318D01*
X289510Y74241D01*
X288903Y74147D01*
X288346Y74034D01*
X287839Y73903D01*
X287383Y73755D01*
X286965Y73586D01*
X286572Y73396D01*
X286203Y73185D01*
X285860Y72952D01*
X285543Y72698D01*
X285250Y72423D01*
X284982Y72126D01*
X284739Y71808D01*
X284523Y71466D01*
X284336Y71099D01*
X284178Y70707D01*
X284049Y70289D01*
X283948Y69845D01*
X283876Y69376D01*
X283833Y68882D01*
X283818Y68362D01*
X283838Y67800D01*
X283897Y67270D01*
X283994Y66774D01*
X284131Y66310D01*
X284307Y65879D01*
X284521Y65481D01*
X284775Y65116D01*
X285068Y64784D01*
X285397Y64488D01*
X285759Y64232D01*
X286155Y64015D01*
X286584Y63837D01*
X287046Y63699D01*
X287542Y63600D01*
X288070Y63541D01*
X288632Y63522D01*
G37*
%LPD*%
G36*
X201290Y60496D02*
X196555Y60496D01*
X196555Y82883D01*
X196545Y85127D01*
X196515Y86888D01*
X196466Y88165D01*
X196434Y88623D01*
X196397Y88960D01*
X200869Y88960D01*
X200895Y88716D01*
X200922Y88249D01*
X200987Y86921D01*
X201030Y85839D01*
X201080Y84093D01*
X201158Y84093D01*
X201574Y84803D01*
X202006Y85458D01*
X202454Y86060D01*
X202918Y86608D01*
X203398Y87103D01*
X203893Y87543D01*
X204405Y87930D01*
X204933Y88262D01*
X205486Y88549D01*
X206070Y88798D01*
X206687Y89008D01*
X207337Y89180D01*
X208019Y89314D01*
X208734Y89409D01*
X209481Y89467D01*
X210260Y89486D01*
X210836Y89477D01*
X211392Y89449D01*
X211928Y89404D01*
X212445Y89340D01*
X212942Y89258D01*
X213419Y89158D01*
X213877Y89040D01*
X214315Y88904D01*
X214733Y88749D01*
X215132Y88576D01*
X215511Y88385D01*
X215871Y88176D01*
X216211Y87949D01*
X216531Y87703D01*
X216832Y87440D01*
X217113Y87158D01*
X217376Y86855D01*
X217622Y86528D01*
X217851Y86178D01*
X218063Y85804D01*
X218258Y85406D01*
X218436Y84984D01*
X218597Y84539D01*
X218741Y84070D01*
X218868Y83577D01*
X218978Y83061D01*
X219071Y82520D01*
X219148Y81956D01*
X219207Y81369D01*
X219249Y80757D01*
X219275Y80122D01*
X219283Y79463D01*
X219283Y60496D01*
X214522Y60496D01*
X214522Y78542D01*
X214513Y79226D01*
X214487Y79871D01*
X214444Y80476D01*
X214384Y81041D01*
X214306Y81568D01*
X214211Y82054D01*
X214099Y82501D01*
X213970Y82909D01*
X213821Y83284D01*
X213652Y83631D01*
X213463Y83951D01*
X213253Y84244D01*
X213022Y84510D01*
X212771Y84749D01*
X212499Y84961D01*
X212207Y85145D01*
X211887Y85306D01*
X211531Y85444D01*
X211140Y85562D01*
X210714Y85658D01*
X210253Y85733D01*
X209756Y85786D01*
X209223Y85818D01*
X208656Y85829D01*
X208234Y85820D01*
X207823Y85793D01*
X207424Y85747D01*
X207036Y85683D01*
X206660Y85601D01*
X206294Y85500D01*
X205940Y85381D01*
X205598Y85244D01*
X205266Y85088D01*
X204946Y84915D01*
X204637Y84723D01*
X204340Y84512D01*
X204054Y84284D01*
X203779Y84037D01*
X203515Y83771D01*
X203263Y83488D01*
X203024Y83188D01*
X202801Y82874D01*
X202592Y82546D01*
X202400Y82204D01*
X202223Y81847D01*
X202061Y81477D01*
X201914Y81092D01*
X201783Y80693D01*
X201668Y80280D01*
X201567Y79852D01*
X201483Y79411D01*
X201413Y78955D01*
X201359Y78485D01*
X201321Y78001D01*
X201298Y77503D01*
X201290Y76990D01*
X201290Y60496D01*
G37*
G36*
X327071Y60496D02*
X322336Y60496D01*
X322336Y82883D01*
X322326Y85127D01*
X322297Y86888D01*
X322247Y88165D01*
X322215Y88623D01*
X322178Y88960D01*
X326650Y88960D01*
X326677Y88716D01*
X326703Y88249D01*
X326769Y86921D01*
X326811Y85839D01*
X326861Y84093D01*
X326940Y84093D01*
X327355Y84803D01*
X327787Y85458D01*
X328235Y86060D01*
X328699Y86608D01*
X329179Y87103D01*
X329675Y87543D01*
X330187Y87930D01*
X330715Y88262D01*
X331267Y88549D01*
X331852Y88798D01*
X332469Y89008D01*
X333118Y89180D01*
X333800Y89314D01*
X334515Y89409D01*
X335262Y89467D01*
X336042Y89486D01*
X336617Y89477D01*
X337173Y89449D01*
X337709Y89404D01*
X338226Y89340D01*
X338723Y89258D01*
X339200Y89158D01*
X339658Y89040D01*
X340096Y88904D01*
X340515Y88749D01*
X340913Y88576D01*
X341293Y88385D01*
X341652Y88176D01*
X341992Y87949D01*
X342313Y87703D01*
X342613Y87440D01*
X342894Y87158D01*
X343157Y86855D01*
X343403Y86528D01*
X343632Y86178D01*
X343844Y85804D01*
X344039Y85406D01*
X344217Y84984D01*
X344378Y84539D01*
X344522Y84070D01*
X344649Y83577D01*
X344759Y83061D01*
X344853Y82520D01*
X344929Y81956D01*
X344988Y81369D01*
X345031Y80757D01*
X345056Y80122D01*
X345065Y79463D01*
X345065Y60496D01*
X340303Y60496D01*
X340303Y78542D01*
X340295Y79226D01*
X340269Y79871D01*
X340226Y80476D01*
X340165Y81041D01*
X340087Y81568D01*
X339992Y82054D01*
X339880Y82501D01*
X339751Y82909D01*
X339602Y83284D01*
X339433Y83631D01*
X339244Y83951D01*
X339034Y84244D01*
X338803Y84510D01*
X338552Y84749D01*
X338281Y84961D01*
X337988Y85145D01*
X337668Y85306D01*
X337313Y85444D01*
X336922Y85562D01*
X336495Y85658D01*
X336034Y85733D01*
X335537Y85786D01*
X335005Y85818D01*
X334437Y85829D01*
X334015Y85820D01*
X333605Y85793D01*
X333205Y85747D01*
X332817Y85683D01*
X332441Y85601D01*
X332076Y85500D01*
X331722Y85381D01*
X331379Y85244D01*
X331047Y85088D01*
X330727Y84915D01*
X330419Y84723D01*
X330121Y84512D01*
X329835Y84284D01*
X329560Y84037D01*
X329296Y83771D01*
X329044Y83488D01*
X328805Y83188D01*
X328582Y82874D01*
X328374Y82546D01*
X328181Y82204D01*
X328004Y81847D01*
X327842Y81477D01*
X327695Y81092D01*
X327564Y80693D01*
X327449Y80280D01*
X327349Y79852D01*
X327264Y79411D01*
X327195Y78955D01*
X327141Y78485D01*
X327102Y78001D01*
X327079Y77503D01*
X327071Y76990D01*
X327071Y60496D01*
G37*
G36*
X390870Y60496D02*
X367642Y60496D01*
X367642Y64521D01*
X377086Y64521D01*
X377086Y93037D01*
X368720Y87066D01*
X368720Y91538D01*
X377480Y97562D01*
X381847Y97562D01*
X381847Y64521D01*
X390870Y64521D01*
X390870Y60496D01*
G37*
G36*
X267196Y60496D02*
X262461Y60496D01*
X262461Y82330D01*
X262451Y83869D01*
X262422Y85487D01*
X262372Y87184D01*
X262303Y88960D01*
X266775Y88960D01*
X266933Y85086D01*
X266973Y83874D01*
X266986Y83146D01*
X267091Y83146D01*
X267379Y84024D01*
X267678Y84830D01*
X267987Y85563D01*
X268308Y86224D01*
X268639Y86812D01*
X268980Y87329D01*
X269332Y87773D01*
X269695Y88144D01*
X270083Y88459D01*
X270508Y88731D01*
X270970Y88962D01*
X271471Y89150D01*
X272009Y89297D01*
X272586Y89402D01*
X273200Y89465D01*
X273852Y89486D01*
X274327Y89469D01*
X274805Y89420D01*
X275287Y89338D01*
X275772Y89223D01*
X275772Y84882D01*
X275259Y84997D01*
X274667Y85079D01*
X273996Y85129D01*
X273247Y85145D01*
X272884Y85135D01*
X272532Y85106D01*
X272191Y85056D01*
X271861Y84987D01*
X271541Y84897D01*
X271233Y84788D01*
X270936Y84659D01*
X270649Y84511D01*
X270373Y84342D01*
X270108Y84154D01*
X269854Y83945D01*
X269611Y83717D01*
X269379Y83469D01*
X269158Y83202D01*
X268948Y82914D01*
X268748Y82607D01*
X268560Y82281D01*
X268385Y81938D01*
X268221Y81577D01*
X268069Y81200D01*
X267930Y80806D01*
X267803Y80394D01*
X267687Y79965D01*
X267584Y79519D01*
X267493Y79056D01*
X267414Y78575D01*
X267348Y78078D01*
X267293Y77563D01*
X267251Y77031D01*
X267220Y76482D01*
X267202Y75916D01*
X267196Y75333D01*
X267196Y60496D01*
G37*
G36*
X189190Y60496D02*
X184455Y60496D01*
X184455Y88960D01*
X189190Y88960D01*
X189190Y60496D01*
G37*
G36*
X314971Y60496D02*
X310236Y60496D01*
X310236Y88960D01*
X314971Y88960D01*
X314971Y60496D01*
G37*
G36*
X403556Y60496D02*
X398426Y60496D01*
X398426Y66257D01*
X403556Y66257D01*
X403556Y60496D01*
G37*
G36*
X189190Y95010D02*
X184455Y95010D01*
X184455Y99535D01*
X189190Y99535D01*
X189190Y95010D01*
G37*
G36*
X314971Y95010D02*
X310236Y95010D01*
X310236Y99535D01*
X314971Y99535D01*
X314971Y95010D01*
G37*
G36*
X149801Y26967D02*
X146666Y26967D01*
X142098Y43279D01*
X144781Y43279D01*
X147540Y32198D01*
X147755Y31271D01*
X148188Y29213D01*
X148444Y30329D01*
X151852Y43279D01*
X154761Y43279D01*
X157610Y32078D01*
X158304Y29213D01*
X158771Y31309D01*
X161862Y43279D01*
X167094Y43279D01*
X169852Y32198D01*
X170067Y31271D01*
X170501Y29213D01*
X170757Y30329D01*
X174164Y43279D01*
X177074Y43279D01*
X179923Y32078D01*
X180616Y29213D01*
X181084Y31309D01*
X184174Y43279D01*
X189406Y43279D01*
X192165Y32198D01*
X192380Y31271D01*
X192813Y29213D01*
X193069Y30329D01*
X196477Y43279D01*
X199386Y43279D01*
X202235Y32078D01*
X202929Y29213D01*
X203396Y31309D01*
X206487Y43279D01*
X209140Y43279D01*
X204467Y26967D01*
X201316Y26967D01*
X198467Y38500D01*
X197924Y41048D01*
X197502Y39096D01*
X197202Y37860D01*
X196590Y35427D01*
X194426Y26967D01*
X191291Y26967D01*
X186775Y43094D01*
X182154Y26967D01*
X179003Y26967D01*
X176154Y38500D01*
X175611Y41048D01*
X175189Y39096D01*
X174890Y37860D01*
X174277Y35427D01*
X172114Y26967D01*
X168978Y26967D01*
X164462Y43094D01*
X159842Y26967D01*
X156691Y26967D01*
X153842Y38500D01*
X153299Y41048D01*
X152877Y39096D01*
X152577Y37860D01*
X151965Y35427D01*
X149801Y26967D01*
G37*
G36*
X222165Y26666D02*
X221570Y26686D01*
X221013Y26747D01*
X220494Y26848D01*
X220013Y26990D01*
X219571Y27172D01*
X219166Y27395D01*
X218800Y27658D01*
X218472Y27962D01*
X218182Y28301D01*
X217931Y28671D01*
X217719Y29070D01*
X217545Y29500D01*
X217410Y29960D01*
X217313Y30450D01*
X217255Y30970D01*
X217236Y31520D01*
X217242Y31832D01*
X217262Y32135D01*
X217294Y32429D01*
X217340Y32713D01*
X217398Y32988D01*
X217470Y33254D01*
X217555Y33511D01*
X217652Y33759D01*
X217763Y33997D01*
X217886Y34227D01*
X218173Y34658D01*
X218511Y35052D01*
X218902Y35410D01*
X219118Y35574D01*
X219350Y35729D01*
X219598Y35874D01*
X219862Y36009D01*
X220438Y36249D01*
X221078Y36450D01*
X221782Y36611D01*
X222549Y36732D01*
X223381Y36814D01*
X224276Y36857D01*
X227939Y36917D01*
X227939Y37807D01*
X227926Y38286D01*
X227887Y38731D01*
X227821Y39140D01*
X227728Y39514D01*
X227610Y39852D01*
X227465Y40156D01*
X227293Y40423D01*
X227095Y40656D01*
X226869Y40857D01*
X226613Y41032D01*
X226326Y41180D01*
X226010Y41300D01*
X225663Y41394D01*
X225286Y41462D01*
X224879Y41502D01*
X224442Y41515D01*
X224001Y41506D01*
X223592Y41477D01*
X223214Y41428D01*
X222866Y41361D01*
X222550Y41274D01*
X222265Y41168D01*
X222011Y41042D01*
X221789Y40897D01*
X221592Y40731D01*
X221415Y40542D01*
X221260Y40330D01*
X221125Y40094D01*
X221011Y39836D01*
X220918Y39554D01*
X220845Y39250D01*
X220794Y38922D01*
X217959Y39179D01*
X218066Y39712D01*
X218213Y40210D01*
X218401Y40675D01*
X218628Y41104D01*
X218896Y41500D01*
X219204Y41861D01*
X219553Y42188D01*
X219942Y42480D01*
X220371Y42738D01*
X220840Y42962D01*
X221350Y43151D01*
X221900Y43305D01*
X222490Y43426D01*
X223120Y43512D01*
X223791Y43563D01*
X224502Y43581D01*
X225247Y43559D01*
X225945Y43493D01*
X226595Y43382D01*
X227197Y43228D01*
X227752Y43030D01*
X228259Y42788D01*
X228718Y42501D01*
X229130Y42171D01*
X229494Y41799D01*
X229810Y41388D01*
X230077Y40937D01*
X230295Y40447D01*
X230465Y39917D01*
X230532Y39638D01*
X230586Y39349D01*
X230629Y39049D01*
X230659Y38741D01*
X230677Y38422D01*
X230683Y38093D01*
X230683Y31068D01*
X230703Y30502D01*
X230762Y30011D01*
X230861Y29594D01*
X230926Y29413D01*
X231000Y29251D01*
X231088Y29108D01*
X231194Y28984D01*
X231318Y28879D01*
X231460Y28793D01*
X231619Y28726D01*
X231797Y28679D01*
X231992Y28650D01*
X232206Y28641D01*
X232624Y28667D01*
X233095Y28746D01*
X233095Y27058D01*
X232580Y26952D01*
X232059Y26877D01*
X231532Y26832D01*
X231000Y26816D01*
X230636Y26829D01*
X230297Y26866D01*
X229985Y26928D01*
X229698Y27014D01*
X229436Y27126D01*
X229201Y27262D01*
X228991Y27422D01*
X228806Y27608D01*
X228644Y27820D01*
X228501Y28060D01*
X228376Y28328D01*
X228269Y28624D01*
X228181Y28948D01*
X228112Y29300D01*
X228062Y29680D01*
X228030Y30088D01*
X227939Y30088D01*
X227674Y29638D01*
X227398Y29222D01*
X227112Y28840D01*
X226814Y28492D01*
X226507Y28178D01*
X226188Y27899D01*
X225859Y27653D01*
X225520Y27442D01*
X225166Y27260D01*
X224793Y27102D01*
X224401Y26969D01*
X223991Y26860D01*
X223563Y26775D01*
X223116Y26714D01*
X222650Y26678D01*
X222165Y26666D01*
G37*
%LPC*%
G36*
X222784Y28701D02*
X223151Y28712D01*
X223509Y28743D01*
X223856Y28796D01*
X224193Y28871D01*
X224520Y28966D01*
X224836Y29083D01*
X225141Y29220D01*
X225437Y29379D01*
X225719Y29557D01*
X225987Y29750D01*
X226239Y29959D01*
X226475Y30184D01*
X226696Y30425D01*
X226902Y30681D01*
X227093Y30953D01*
X227269Y31241D01*
X227426Y31538D01*
X227562Y31837D01*
X227677Y32138D01*
X227772Y32442D01*
X227845Y32747D01*
X227897Y33054D01*
X227929Y33364D01*
X227939Y33676D01*
X227939Y35018D01*
X224970Y34957D01*
X224070Y34922D01*
X223664Y34888D01*
X223287Y34844D01*
X222938Y34790D01*
X222619Y34726D01*
X222329Y34651D01*
X222067Y34565D01*
X221828Y34469D01*
X221602Y34360D01*
X221392Y34239D01*
X221195Y34106D01*
X221013Y33960D01*
X220845Y33802D01*
X220691Y33632D01*
X220552Y33450D01*
X220429Y33254D01*
X220321Y33044D01*
X220231Y32819D01*
X220157Y32579D01*
X220099Y32325D01*
X220058Y32056D01*
X220033Y31773D01*
X220025Y31475D01*
X220036Y31153D01*
X220069Y30849D01*
X220125Y30565D01*
X220204Y30299D01*
X220304Y30052D01*
X220427Y29824D01*
X220573Y29615D01*
X220741Y29425D01*
X220929Y29255D01*
X221137Y29108D01*
X221364Y28984D01*
X221610Y28882D01*
X221874Y28803D01*
X222158Y28746D01*
X222461Y28712D01*
X222784Y28701D01*
G37*
%LPD*%
G36*
X297634Y26666D02*
X297039Y26686D01*
X296482Y26747D01*
X295963Y26848D01*
X295482Y26990D01*
X295040Y27172D01*
X294635Y27395D01*
X294269Y27658D01*
X293941Y27962D01*
X293651Y28301D01*
X293400Y28671D01*
X293187Y29070D01*
X293013Y29500D01*
X292878Y29960D01*
X292782Y30450D01*
X292724Y30970D01*
X292704Y31520D01*
X292711Y31832D01*
X292730Y32135D01*
X292763Y32429D01*
X292809Y32713D01*
X292867Y32988D01*
X292939Y33254D01*
X293023Y33511D01*
X293121Y33759D01*
X293232Y33997D01*
X293355Y34227D01*
X293641Y34658D01*
X293980Y35052D01*
X294370Y35410D01*
X294587Y35574D01*
X294819Y35729D01*
X295067Y35874D01*
X295331Y36009D01*
X295907Y36249D01*
X296547Y36450D01*
X297251Y36611D01*
X298018Y36732D01*
X298850Y36814D01*
X299745Y36857D01*
X303408Y36917D01*
X303408Y37807D01*
X303395Y38286D01*
X303355Y38731D01*
X303289Y39140D01*
X303197Y39514D01*
X303078Y39852D01*
X302933Y40156D01*
X302762Y40423D01*
X302564Y40656D01*
X302338Y40857D01*
X302082Y41032D01*
X301795Y41180D01*
X301478Y41300D01*
X301132Y41394D01*
X300755Y41462D01*
X300348Y41502D01*
X299911Y41515D01*
X299470Y41506D01*
X299061Y41477D01*
X298682Y41428D01*
X298335Y41361D01*
X298019Y41274D01*
X297734Y41168D01*
X297480Y41042D01*
X297257Y40897D01*
X297060Y40731D01*
X296884Y40542D01*
X296729Y40330D01*
X296594Y40094D01*
X296480Y39836D01*
X296387Y39554D01*
X296314Y39250D01*
X296262Y38922D01*
X293428Y39179D01*
X293535Y39712D01*
X293682Y40210D01*
X293869Y40675D01*
X294097Y41104D01*
X294365Y41500D01*
X294673Y41861D01*
X295022Y42188D01*
X295411Y42480D01*
X295840Y42738D01*
X296309Y42962D01*
X296819Y43151D01*
X297368Y43305D01*
X297959Y43426D01*
X298589Y43512D01*
X299260Y43563D01*
X299971Y43581D01*
X300716Y43559D01*
X301413Y43493D01*
X302063Y43382D01*
X302666Y43228D01*
X303220Y43030D01*
X303728Y42788D01*
X304187Y42501D01*
X304599Y42171D01*
X304963Y41799D01*
X305278Y41388D01*
X305545Y40937D01*
X305764Y40447D01*
X305934Y39917D01*
X306000Y39638D01*
X306055Y39349D01*
X306097Y39049D01*
X306128Y38741D01*
X306146Y38422D01*
X306152Y38093D01*
X306152Y31068D01*
X306172Y30502D01*
X306231Y30011D01*
X306330Y29594D01*
X306394Y29413D01*
X306469Y29251D01*
X306557Y29108D01*
X306663Y28984D01*
X306787Y28879D01*
X306928Y28793D01*
X307088Y28726D01*
X307266Y28679D01*
X307461Y28650D01*
X307675Y28641D01*
X308093Y28667D01*
X308564Y28746D01*
X308564Y27058D01*
X308049Y26952D01*
X307528Y26877D01*
X307001Y26832D01*
X306469Y26816D01*
X306104Y26829D01*
X305766Y26866D01*
X305453Y26928D01*
X305166Y27014D01*
X304905Y27126D01*
X304669Y27262D01*
X304459Y27422D01*
X304275Y27608D01*
X304113Y27820D01*
X303969Y28060D01*
X303844Y28328D01*
X303738Y28624D01*
X303650Y28948D01*
X303581Y29300D01*
X303531Y29680D01*
X303499Y30088D01*
X303408Y30088D01*
X303143Y29638D01*
X302867Y29222D01*
X302580Y28840D01*
X302283Y28492D01*
X301975Y28178D01*
X301657Y27899D01*
X301328Y27653D01*
X300989Y27442D01*
X300634Y27260D01*
X300262Y27102D01*
X299870Y26969D01*
X299460Y26860D01*
X299032Y26775D01*
X298584Y26714D01*
X298119Y26678D01*
X297634Y26666D01*
G37*
%LPC*%
G36*
X298252Y28701D02*
X298620Y28712D01*
X298978Y28743D01*
X299325Y28796D01*
X299662Y28871D01*
X299988Y28966D01*
X300304Y29083D01*
X300610Y29220D01*
X300906Y29379D01*
X301188Y29557D01*
X301455Y29750D01*
X301707Y29959D01*
X301944Y30184D01*
X302165Y30425D01*
X302371Y30681D01*
X302562Y30953D01*
X302737Y31241D01*
X302895Y31538D01*
X303031Y31837D01*
X303146Y32138D01*
X303240Y32442D01*
X303314Y32747D01*
X303366Y33054D01*
X303398Y33364D01*
X303408Y33676D01*
X303408Y35018D01*
X300438Y34957D01*
X299539Y34922D01*
X299133Y34888D01*
X298755Y34844D01*
X298407Y34790D01*
X298088Y34726D01*
X297798Y34651D01*
X297536Y34565D01*
X297297Y34469D01*
X297071Y34360D01*
X296860Y34239D01*
X296664Y34106D01*
X296481Y33960D01*
X296314Y33802D01*
X296160Y33632D01*
X296021Y33450D01*
X295897Y33254D01*
X295790Y33044D01*
X295700Y32819D01*
X295625Y32579D01*
X295568Y32325D01*
X295526Y32056D01*
X295502Y31773D01*
X295493Y31475D01*
X295505Y31153D01*
X295538Y30849D01*
X295594Y30565D01*
X295672Y30299D01*
X295773Y30052D01*
X295896Y29824D01*
X296042Y29615D01*
X296210Y29425D01*
X296398Y29255D01*
X296606Y29108D01*
X296832Y28984D01*
X297078Y28882D01*
X297343Y28803D01*
X297627Y28746D01*
X297930Y28712D01*
X298252Y28701D01*
G37*
%LPD*%
G36*
X270513Y26967D02*
X267815Y26967D01*
X267815Y39797D01*
X267809Y41083D01*
X267792Y42092D01*
X267764Y42824D01*
X267724Y43279D01*
X270287Y43279D01*
X270317Y42872D01*
X270355Y42111D01*
X270408Y40490D01*
X270453Y40490D01*
X270676Y40907D01*
X270906Y41291D01*
X271145Y41642D01*
X271392Y41960D01*
X271646Y42245D01*
X271909Y42497D01*
X272179Y42716D01*
X272458Y42902D01*
X272749Y43061D01*
X273055Y43199D01*
X273376Y43316D01*
X273713Y43411D01*
X274066Y43485D01*
X274434Y43538D01*
X274818Y43570D01*
X275217Y43581D01*
X275668Y43569D01*
X276096Y43534D01*
X276499Y43477D01*
X276877Y43396D01*
X277232Y43292D01*
X277562Y43165D01*
X277868Y43015D01*
X278149Y42842D01*
X278408Y42644D01*
X278647Y42418D01*
X278865Y42165D01*
X279063Y41885D01*
X279240Y41577D01*
X279397Y41242D01*
X279533Y40880D01*
X279649Y40490D01*
X279694Y40490D01*
X279911Y40887D01*
X280139Y41254D01*
X280377Y41593D01*
X280627Y41903D01*
X280888Y42185D01*
X281160Y42438D01*
X281443Y42662D01*
X281737Y42857D01*
X282045Y43027D01*
X282368Y43174D01*
X282707Y43298D01*
X283062Y43400D01*
X283433Y43479D01*
X283819Y43535D01*
X284221Y43569D01*
X284639Y43581D01*
X285236Y43560D01*
X285791Y43497D01*
X286304Y43392D01*
X286774Y43245D01*
X287203Y43057D01*
X287589Y42826D01*
X287933Y42553D01*
X288235Y42239D01*
X288498Y41877D01*
X288726Y41461D01*
X288919Y40991D01*
X289077Y40467D01*
X289200Y39890D01*
X289288Y39260D01*
X289340Y38575D01*
X289358Y37837D01*
X289358Y26967D01*
X286675Y26967D01*
X286675Y37309D01*
X286664Y37878D01*
X286634Y38401D01*
X286583Y38879D01*
X286512Y39310D01*
X286421Y39697D01*
X286310Y40037D01*
X286178Y40332D01*
X286026Y40581D01*
X285848Y40793D01*
X285637Y40976D01*
X285394Y41132D01*
X285118Y41259D01*
X284810Y41358D01*
X284469Y41429D01*
X284095Y41471D01*
X283690Y41485D01*
X283257Y41464D01*
X282850Y41403D01*
X282467Y41300D01*
X282108Y41155D01*
X281775Y40970D01*
X281466Y40743D01*
X281182Y40475D01*
X280923Y40166D01*
X280692Y39819D01*
X280491Y39437D01*
X280321Y39021D01*
X280183Y38570D01*
X280075Y38084D01*
X279997Y37564D01*
X279951Y37009D01*
X279936Y36420D01*
X279936Y26967D01*
X277252Y26967D01*
X277252Y37309D01*
X277242Y37878D01*
X277212Y38401D01*
X277161Y38879D01*
X277090Y39310D01*
X276999Y39697D01*
X276888Y40037D01*
X276756Y40332D01*
X276604Y40581D01*
X276426Y40793D01*
X276215Y40976D01*
X275971Y41132D01*
X275696Y41259D01*
X275387Y41358D01*
X275046Y41429D01*
X274673Y41471D01*
X274267Y41485D01*
X273845Y41464D01*
X273446Y41402D01*
X273069Y41299D01*
X272714Y41153D01*
X272383Y40967D01*
X272074Y40739D01*
X271787Y40469D01*
X271523Y40158D01*
X271287Y39810D01*
X271082Y39427D01*
X270908Y39011D01*
X270766Y38560D01*
X270655Y38076D01*
X270577Y37558D01*
X270529Y37006D01*
X270513Y36420D01*
X270513Y26967D01*
G37*
G36*
X364795Y26967D02*
X362096Y26967D01*
X362096Y39797D01*
X362090Y41083D01*
X362073Y42092D01*
X362045Y42824D01*
X362006Y43279D01*
X364569Y43279D01*
X364599Y42872D01*
X364636Y42111D01*
X364689Y40490D01*
X364734Y40490D01*
X364957Y40907D01*
X365188Y41291D01*
X365426Y41642D01*
X365673Y41960D01*
X365927Y42245D01*
X366190Y42497D01*
X366461Y42716D01*
X366739Y42902D01*
X367030Y43061D01*
X367336Y43199D01*
X367657Y43316D01*
X367994Y43411D01*
X368347Y43485D01*
X368715Y43538D01*
X369099Y43570D01*
X369498Y43581D01*
X369950Y43569D01*
X370377Y43534D01*
X370780Y43477D01*
X371158Y43396D01*
X371513Y43292D01*
X371843Y43165D01*
X372149Y43015D01*
X372430Y42842D01*
X372690Y42644D01*
X372928Y42418D01*
X373147Y42165D01*
X373344Y41885D01*
X373522Y41577D01*
X373678Y41242D01*
X373815Y40880D01*
X373931Y40490D01*
X373976Y40490D01*
X374192Y40887D01*
X374420Y41254D01*
X374659Y41593D01*
X374909Y41903D01*
X375169Y42185D01*
X375441Y42438D01*
X375724Y42662D01*
X376018Y42857D01*
X376326Y43027D01*
X376649Y43174D01*
X376988Y43298D01*
X377343Y43400D01*
X377714Y43479D01*
X378100Y43535D01*
X378503Y43569D01*
X378921Y43581D01*
X379518Y43560D01*
X380072Y43497D01*
X380585Y43392D01*
X381056Y43245D01*
X381484Y43057D01*
X381870Y42826D01*
X382214Y42553D01*
X382516Y42239D01*
X382779Y41877D01*
X383007Y41461D01*
X383201Y40991D01*
X383358Y40467D01*
X383481Y39890D01*
X383569Y39260D01*
X383622Y38575D01*
X383639Y37837D01*
X383639Y26967D01*
X380956Y26967D01*
X380956Y37309D01*
X380946Y37878D01*
X380915Y38401D01*
X380865Y38879D01*
X380794Y39310D01*
X380703Y39697D01*
X380591Y40037D01*
X380459Y40332D01*
X380308Y40581D01*
X380129Y40793D01*
X379918Y40976D01*
X379675Y41132D01*
X379399Y41259D01*
X379091Y41358D01*
X378750Y41429D01*
X378377Y41471D01*
X377971Y41485D01*
X377538Y41464D01*
X377131Y41403D01*
X376748Y41300D01*
X376390Y41155D01*
X376056Y40970D01*
X375748Y40743D01*
X375464Y40475D01*
X375204Y40166D01*
X374973Y39819D01*
X374772Y39437D01*
X374603Y39021D01*
X374464Y38570D01*
X374356Y38084D01*
X374279Y37564D01*
X374232Y37009D01*
X374217Y36420D01*
X374217Y26967D01*
X371533Y26967D01*
X371533Y37309D01*
X371523Y37878D01*
X371493Y38401D01*
X371442Y38879D01*
X371371Y39310D01*
X371280Y39697D01*
X371169Y40037D01*
X371037Y40332D01*
X370885Y40581D01*
X370707Y40793D01*
X370496Y40976D01*
X370253Y41132D01*
X369977Y41259D01*
X369669Y41358D01*
X369328Y41429D01*
X368954Y41471D01*
X368548Y41485D01*
X368126Y41464D01*
X367727Y41402D01*
X367350Y41299D01*
X366996Y41153D01*
X366664Y40967D01*
X366355Y40739D01*
X366069Y40469D01*
X365805Y40158D01*
X365568Y39810D01*
X365363Y39427D01*
X365189Y39011D01*
X365047Y38560D01*
X364937Y38076D01*
X364858Y37558D01*
X364810Y37006D01*
X364795Y36420D01*
X364795Y26967D01*
G37*
G36*
X334388Y26666D02*
X333942Y26674D01*
X333510Y26699D01*
X333092Y26742D01*
X332687Y26800D01*
X332295Y26876D01*
X331917Y26969D01*
X331552Y27078D01*
X331201Y27205D01*
X330864Y27348D01*
X330539Y27508D01*
X330229Y27685D01*
X329932Y27878D01*
X329648Y28089D01*
X329378Y28316D01*
X329121Y28560D01*
X328878Y28822D01*
X328649Y29099D01*
X328434Y29393D01*
X328235Y29704D01*
X328050Y30030D01*
X327880Y30374D01*
X327725Y30733D01*
X327584Y31109D01*
X327459Y31501D01*
X327348Y31910D01*
X327252Y32335D01*
X327170Y32776D01*
X327104Y33234D01*
X327052Y33708D01*
X327015Y34199D01*
X326993Y34705D01*
X326986Y35229D01*
X326993Y35726D01*
X327015Y36209D01*
X327052Y36678D01*
X327104Y37131D01*
X327170Y37570D01*
X327252Y37994D01*
X327348Y38403D01*
X327459Y38798D01*
X327584Y39178D01*
X327725Y39543D01*
X327880Y39893D01*
X328050Y40229D01*
X328235Y40550D01*
X328434Y40856D01*
X328649Y41148D01*
X328878Y41425D01*
X329121Y41686D01*
X329376Y41930D01*
X329644Y42157D01*
X329925Y42368D01*
X330218Y42562D01*
X330525Y42739D01*
X330843Y42899D01*
X331175Y43042D01*
X331519Y43168D01*
X331876Y43277D01*
X332245Y43370D01*
X332627Y43446D01*
X333022Y43505D01*
X333429Y43547D01*
X333850Y43572D01*
X334282Y43581D01*
X334725Y43572D01*
X335153Y43547D01*
X335567Y43504D01*
X335968Y43445D01*
X336354Y43369D01*
X336726Y43276D01*
X337084Y43166D01*
X337428Y43039D01*
X337758Y42895D01*
X338074Y42734D01*
X338376Y42556D01*
X338664Y42362D01*
X338938Y42150D01*
X339198Y41921D01*
X339444Y41676D01*
X339676Y41413D01*
X339893Y41134D01*
X340097Y40838D01*
X340287Y40525D01*
X340462Y40194D01*
X340624Y39847D01*
X340771Y39483D01*
X340905Y39102D01*
X341024Y38705D01*
X341129Y38290D01*
X341221Y37858D01*
X341298Y37409D01*
X341361Y36944D01*
X341410Y36461D01*
X341445Y35962D01*
X341466Y35445D01*
X341473Y34912D01*
X341473Y34550D01*
X329835Y34550D01*
X329853Y33869D01*
X329908Y33228D01*
X329998Y32627D01*
X330125Y32067D01*
X330288Y31546D01*
X330488Y31065D01*
X330724Y30624D01*
X330996Y30224D01*
X331303Y29867D01*
X331643Y29557D01*
X332017Y29296D01*
X332424Y29082D01*
X332865Y28915D01*
X333339Y28796D01*
X333847Y28725D01*
X334113Y28707D01*
X334388Y28701D01*
X334818Y28712D01*
X335226Y28745D01*
X335612Y28801D01*
X335976Y28878D01*
X336319Y28978D01*
X336639Y29099D01*
X336938Y29243D01*
X337215Y29409D01*
X337470Y29593D01*
X337703Y29787D01*
X337915Y29994D01*
X338106Y30212D01*
X338275Y30442D01*
X338423Y30684D01*
X338549Y30938D01*
X338654Y31203D01*
X341036Y30525D01*
X340839Y30058D01*
X340612Y29621D01*
X340357Y29213D01*
X340072Y28837D01*
X339759Y28490D01*
X339416Y28173D01*
X339044Y27887D01*
X338643Y27631D01*
X338213Y27404D01*
X337754Y27208D01*
X337265Y27043D01*
X336748Y26907D01*
X336202Y26801D01*
X335626Y26726D01*
X335022Y26681D01*
X334388Y26666D01*
G37*
%LPC*%
G36*
X338669Y36631D02*
X338599Y37253D01*
X338503Y37833D01*
X338379Y38368D01*
X338228Y38860D01*
X338051Y39308D01*
X337847Y39713D01*
X337616Y40074D01*
X337358Y40392D01*
X337072Y40669D01*
X336756Y40910D01*
X336410Y41113D01*
X336035Y41280D01*
X335630Y41409D01*
X335195Y41502D01*
X334731Y41557D01*
X334237Y41576D01*
X333756Y41555D01*
X333301Y41493D01*
X332871Y41390D01*
X332468Y41246D01*
X332089Y41060D01*
X331737Y40834D01*
X331410Y40566D01*
X331109Y40256D01*
X330837Y39911D01*
X330599Y39535D01*
X330393Y39128D01*
X330221Y38690D01*
X330082Y38222D01*
X329977Y37722D01*
X329904Y37192D01*
X329865Y36631D01*
X338669Y36631D01*
G37*
%LPD*%
G36*
X394388Y26666D02*
X393942Y26674D01*
X393510Y26699D01*
X393092Y26742D01*
X392687Y26800D01*
X392295Y26876D01*
X391917Y26969D01*
X391552Y27078D01*
X391201Y27205D01*
X390864Y27348D01*
X390539Y27508D01*
X390229Y27685D01*
X389932Y27878D01*
X389648Y28089D01*
X389378Y28316D01*
X389121Y28560D01*
X388878Y28822D01*
X388649Y29099D01*
X388434Y29393D01*
X388235Y29704D01*
X388050Y30030D01*
X387880Y30374D01*
X387725Y30733D01*
X387584Y31109D01*
X387459Y31501D01*
X387348Y31910D01*
X387252Y32335D01*
X387170Y32776D01*
X387104Y33234D01*
X387052Y33708D01*
X387015Y34199D01*
X386993Y34705D01*
X386986Y35229D01*
X386993Y35726D01*
X387015Y36209D01*
X387052Y36678D01*
X387104Y37131D01*
X387170Y37570D01*
X387252Y37994D01*
X387348Y38403D01*
X387459Y38798D01*
X387584Y39178D01*
X387725Y39543D01*
X387880Y39893D01*
X388050Y40229D01*
X388235Y40550D01*
X388434Y40856D01*
X388649Y41148D01*
X388878Y41425D01*
X389121Y41686D01*
X389376Y41930D01*
X389644Y42157D01*
X389925Y42368D01*
X390218Y42562D01*
X390525Y42739D01*
X390843Y42899D01*
X391175Y43042D01*
X391519Y43168D01*
X391876Y43277D01*
X392245Y43370D01*
X392627Y43446D01*
X393022Y43505D01*
X393429Y43547D01*
X393850Y43572D01*
X394282Y43581D01*
X394725Y43572D01*
X395153Y43547D01*
X395567Y43504D01*
X395968Y43445D01*
X396354Y43369D01*
X396726Y43276D01*
X397084Y43166D01*
X397428Y43039D01*
X397758Y42895D01*
X398074Y42734D01*
X398376Y42556D01*
X398664Y42362D01*
X398938Y42150D01*
X399198Y41921D01*
X399444Y41676D01*
X399676Y41413D01*
X399893Y41134D01*
X400097Y40838D01*
X400287Y40525D01*
X400462Y40194D01*
X400624Y39847D01*
X400771Y39483D01*
X400905Y39102D01*
X401024Y38705D01*
X401129Y38290D01*
X401221Y37858D01*
X401298Y37409D01*
X401361Y36944D01*
X401410Y36461D01*
X401445Y35962D01*
X401466Y35445D01*
X401473Y34912D01*
X401473Y34550D01*
X389835Y34550D01*
X389853Y33869D01*
X389908Y33228D01*
X389998Y32627D01*
X390125Y32067D01*
X390288Y31546D01*
X390488Y31065D01*
X390724Y30624D01*
X390996Y30224D01*
X391303Y29867D01*
X391643Y29557D01*
X392017Y29296D01*
X392424Y29082D01*
X392865Y28915D01*
X393339Y28796D01*
X393847Y28725D01*
X394113Y28707D01*
X394388Y28701D01*
X394818Y28712D01*
X395226Y28745D01*
X395612Y28801D01*
X395976Y28878D01*
X396319Y28978D01*
X396639Y29099D01*
X396938Y29243D01*
X397215Y29409D01*
X397470Y29593D01*
X397703Y29787D01*
X397915Y29994D01*
X398106Y30212D01*
X398275Y30442D01*
X398423Y30684D01*
X398549Y30938D01*
X398654Y31203D01*
X401036Y30525D01*
X400839Y30058D01*
X400612Y29621D01*
X400357Y29213D01*
X400072Y28837D01*
X399759Y28490D01*
X399416Y28173D01*
X399044Y27887D01*
X398643Y27631D01*
X398213Y27404D01*
X397754Y27208D01*
X397265Y27043D01*
X396748Y26907D01*
X396202Y26801D01*
X395626Y26726D01*
X395022Y26681D01*
X394388Y26666D01*
G37*
%LPC*%
G36*
X398669Y36631D02*
X398599Y37253D01*
X398503Y37833D01*
X398379Y38368D01*
X398228Y38860D01*
X398051Y39308D01*
X397847Y39713D01*
X397616Y40074D01*
X397358Y40392D01*
X397072Y40669D01*
X396756Y40910D01*
X396410Y41113D01*
X396035Y41280D01*
X395630Y41409D01*
X395195Y41502D01*
X394731Y41557D01*
X394237Y41576D01*
X393756Y41555D01*
X393301Y41493D01*
X392871Y41390D01*
X392468Y41246D01*
X392089Y41060D01*
X391737Y40834D01*
X391410Y40566D01*
X391109Y40256D01*
X390837Y39911D01*
X390599Y39535D01*
X390393Y39128D01*
X390221Y38690D01*
X390082Y38222D01*
X389977Y37722D01*
X389904Y37192D01*
X389865Y36631D01*
X398669Y36631D01*
G37*
%LPD*%
G36*
X237935Y26967D02*
X235221Y26967D01*
X235221Y39797D01*
X235215Y41083D01*
X235198Y42092D01*
X235170Y42824D01*
X235131Y43279D01*
X237694Y43279D01*
X237724Y42872D01*
X237761Y42111D01*
X237814Y40490D01*
X237859Y40490D01*
X238098Y40897D01*
X238345Y41273D01*
X238602Y41618D01*
X238868Y41932D01*
X239143Y42215D01*
X239427Y42467D01*
X239720Y42689D01*
X240023Y42880D01*
X240339Y43044D01*
X240674Y43186D01*
X241028Y43307D01*
X241400Y43405D01*
X241791Y43482D01*
X242201Y43537D01*
X242629Y43570D01*
X243076Y43581D01*
X243724Y43560D01*
X244327Y43497D01*
X244886Y43393D01*
X245399Y43247D01*
X245867Y43059D01*
X246291Y42830D01*
X246669Y42559D01*
X247003Y42246D01*
X247294Y41886D01*
X247547Y41470D01*
X247761Y41001D01*
X247936Y40477D01*
X248072Y39899D01*
X248169Y39266D01*
X248227Y38578D01*
X248246Y37837D01*
X248246Y26967D01*
X245518Y26967D01*
X245518Y37309D01*
X245498Y38070D01*
X245439Y38741D01*
X245394Y39043D01*
X245340Y39322D01*
X245275Y39578D01*
X245201Y39812D01*
X245116Y40026D01*
X245019Y40225D01*
X244911Y40409D01*
X244790Y40577D01*
X244658Y40729D01*
X244514Y40866D01*
X244359Y40987D01*
X244191Y41093D01*
X244008Y41185D01*
X243804Y41265D01*
X243580Y41332D01*
X243336Y41387D01*
X243071Y41430D01*
X242786Y41461D01*
X242481Y41479D01*
X242156Y41485D01*
X241679Y41464D01*
X241228Y41401D01*
X240803Y41296D01*
X240403Y41150D01*
X240030Y40961D01*
X239683Y40730D01*
X239361Y40458D01*
X239065Y40143D01*
X238800Y39792D01*
X238571Y39407D01*
X238376Y38991D01*
X238217Y38542D01*
X238094Y38060D01*
X238005Y37546D01*
X237952Y36999D01*
X237935Y36420D01*
X237935Y26967D01*
G37*
G36*
X255845Y26726D02*
X255450Y26740D01*
X255082Y26784D01*
X254738Y26856D01*
X254420Y26957D01*
X254128Y27087D01*
X253860Y27245D01*
X253619Y27433D01*
X253402Y27649D01*
X253212Y27895D01*
X253046Y28169D01*
X252906Y28472D01*
X252792Y28804D01*
X252703Y29164D01*
X252639Y29554D01*
X252601Y29972D01*
X252588Y30420D01*
X252588Y41304D01*
X250704Y41304D01*
X250704Y43279D01*
X252694Y43279D01*
X253493Y46927D01*
X255302Y46927D01*
X255302Y43279D01*
X258317Y43279D01*
X258317Y41304D01*
X255302Y41304D01*
X255302Y31008D01*
X255308Y30724D01*
X255326Y30463D01*
X255356Y30224D01*
X255398Y30007D01*
X255452Y29811D01*
X255518Y29638D01*
X255596Y29486D01*
X255686Y29357D01*
X255791Y29245D01*
X255914Y29149D01*
X256054Y29067D01*
X256212Y29001D01*
X256388Y28949D01*
X256581Y28912D01*
X256792Y28889D01*
X257021Y28882D01*
X257322Y28895D01*
X257684Y28935D01*
X258106Y29001D01*
X258589Y29093D01*
X258589Y27088D01*
X257914Y26930D01*
X257232Y26816D01*
X256542Y26749D01*
X255845Y26726D01*
G37*
G36*
X314157Y26726D02*
X313763Y26740D01*
X313394Y26784D01*
X313051Y26856D01*
X312733Y26957D01*
X312440Y27087D01*
X312173Y27245D01*
X311931Y27433D01*
X311715Y27649D01*
X311524Y27895D01*
X311359Y28169D01*
X311219Y28472D01*
X311104Y28804D01*
X311015Y29164D01*
X310952Y29554D01*
X310914Y29972D01*
X310901Y30420D01*
X310901Y41304D01*
X309016Y41304D01*
X309016Y43279D01*
X311006Y43279D01*
X311805Y46927D01*
X313615Y46927D01*
X313615Y43279D01*
X316630Y43279D01*
X316630Y41304D01*
X313615Y41304D01*
X313615Y31008D01*
X313621Y30724D01*
X313639Y30463D01*
X313669Y30224D01*
X313711Y30007D01*
X313765Y29811D01*
X313831Y29638D01*
X313909Y29486D01*
X313999Y29357D01*
X314104Y29245D01*
X314227Y29149D01*
X314367Y29067D01*
X314525Y29001D01*
X314700Y28949D01*
X314894Y28912D01*
X315105Y28889D01*
X315333Y28882D01*
X315635Y28895D01*
X315996Y28935D01*
X316419Y29001D01*
X316901Y29093D01*
X316901Y27088D01*
X316226Y26930D01*
X315544Y26816D01*
X314854Y26749D01*
X314157Y26726D01*
G37*
G36*
X322720Y26726D02*
X322325Y26740D01*
X321957Y26784D01*
X321613Y26856D01*
X321295Y26957D01*
X321003Y27087D01*
X320735Y27245D01*
X320494Y27433D01*
X320277Y27649D01*
X320087Y27895D01*
X319921Y28169D01*
X319781Y28472D01*
X319667Y28804D01*
X319578Y29164D01*
X319514Y29554D01*
X319476Y29972D01*
X319463Y30420D01*
X319463Y41304D01*
X317579Y41304D01*
X317579Y43279D01*
X319569Y43279D01*
X320368Y46927D01*
X322177Y46927D01*
X322177Y43279D01*
X325192Y43279D01*
X325192Y41304D01*
X322177Y41304D01*
X322177Y31008D01*
X322183Y30724D01*
X322201Y30463D01*
X322231Y30224D01*
X322273Y30007D01*
X322327Y29811D01*
X322393Y29638D01*
X322471Y29486D01*
X322561Y29357D01*
X322666Y29245D01*
X322789Y29149D01*
X322929Y29067D01*
X323087Y29001D01*
X323263Y28949D01*
X323456Y28912D01*
X323667Y28889D01*
X323896Y28882D01*
X324197Y28895D01*
X324559Y28935D01*
X324981Y29001D01*
X325464Y29093D01*
X325464Y27088D01*
X324789Y26930D01*
X324107Y26816D01*
X323417Y26749D01*
X322720Y26726D01*
G37*
G36*
X347685Y26967D02*
X344971Y26967D01*
X344971Y39480D01*
X344948Y41289D01*
X344881Y43279D01*
X347444Y43279D01*
X347534Y41059D01*
X347564Y39947D01*
X347624Y39947D01*
X347790Y40451D01*
X347961Y40912D01*
X348138Y41332D01*
X348322Y41711D01*
X348511Y42049D01*
X348707Y42344D01*
X348909Y42599D01*
X349117Y42812D01*
X349339Y42992D01*
X349582Y43148D01*
X349848Y43280D01*
X350135Y43388D01*
X350443Y43473D01*
X350773Y43533D01*
X351125Y43569D01*
X351499Y43581D01*
X351771Y43571D01*
X352045Y43543D01*
X352321Y43496D01*
X352599Y43430D01*
X352599Y40942D01*
X352305Y41008D01*
X351966Y41055D01*
X351582Y41084D01*
X351152Y41093D01*
X350742Y41070D01*
X350358Y41002D01*
X349998Y40889D01*
X349663Y40729D01*
X349354Y40525D01*
X349069Y40275D01*
X348809Y39979D01*
X348574Y39638D01*
X348366Y39255D01*
X348185Y38832D01*
X348032Y38370D01*
X347907Y37869D01*
X347810Y37328D01*
X347740Y36748D01*
X347699Y36129D01*
X347685Y35470D01*
X347685Y26967D01*
G37*
G36*
X263578Y26967D02*
X260864Y26967D01*
X260864Y43279D01*
X263578Y43279D01*
X263578Y26967D01*
G37*
G36*
X213121Y26967D02*
X210181Y26967D01*
X210181Y30269D01*
X213121Y30269D01*
X213121Y26967D01*
G37*
G36*
X357152Y26967D02*
X354212Y26967D01*
X354212Y30269D01*
X357152Y30269D01*
X357152Y26967D01*
G37*
G36*
X263578Y46747D02*
X260864Y46747D01*
X260864Y49340D01*
X263578Y49340D01*
X263578Y46747D01*
G37*
G36*
X864336Y466433D02*
X864152Y468027D01*
X864374Y468096D01*
X864581Y468176D01*
X864774Y468270D01*
X864953Y468375D01*
X865117Y468492D01*
X865268Y468622D01*
X865404Y468764D01*
X865525Y468918D01*
X865632Y469085D01*
X865725Y469264D01*
X865804Y469455D01*
X865868Y469658D01*
X865918Y469873D01*
X865954Y470101D01*
X865976Y470341D01*
X865983Y470593D01*
X865971Y470902D01*
X865935Y471194D01*
X865875Y471468D01*
X865791Y471725D01*
X865683Y471965D01*
X865552Y472188D01*
X865396Y472393D01*
X865216Y472582D01*
X865016Y472750D01*
X864797Y472896D01*
X864561Y473019D01*
X864307Y473120D01*
X864034Y473199D01*
X863744Y473255D01*
X863436Y473289D01*
X863110Y473300D01*
X862826Y473289D01*
X862555Y473255D01*
X862299Y473198D01*
X862057Y473119D01*
X861828Y473018D01*
X861614Y472893D01*
X861413Y472747D01*
X861227Y472577D01*
X861058Y472389D01*
X860913Y472184D01*
X860789Y471965D01*
X860688Y471729D01*
X860610Y471477D01*
X860553Y471210D01*
X860520Y470927D01*
X860509Y470628D01*
X860521Y470314D01*
X860559Y470011D01*
X860622Y469719D01*
X860710Y469437D01*
X860828Y469161D01*
X860982Y468886D01*
X861170Y468610D01*
X861393Y468334D01*
X861393Y466792D01*
X854754Y467204D01*
X854754Y474219D01*
X856094Y474219D01*
X856094Y468640D01*
X860009Y468404D01*
X859825Y468668D01*
X859665Y468947D01*
X859529Y469243D01*
X859418Y469553D01*
X859332Y469880D01*
X859270Y470222D01*
X859233Y470579D01*
X859221Y470953D01*
X859238Y471396D01*
X859288Y471817D01*
X859371Y472215D01*
X859488Y472589D01*
X859638Y472941D01*
X859822Y473269D01*
X860039Y473574D01*
X860290Y473856D01*
X860567Y474110D01*
X860864Y474329D01*
X861182Y474515D01*
X861520Y474667D01*
X861878Y474786D01*
X862257Y474870D01*
X862656Y474921D01*
X863075Y474938D01*
X863550Y474920D01*
X863999Y474865D01*
X864423Y474774D01*
X864820Y474648D01*
X865191Y474484D01*
X865537Y474285D01*
X865856Y474049D01*
X866149Y473777D01*
X866412Y473473D01*
X866640Y473141D01*
X866832Y472781D01*
X866990Y472392D01*
X867113Y471976D01*
X867200Y471531D01*
X867253Y471059D01*
X867270Y470558D01*
X867258Y470137D01*
X867223Y469737D01*
X867164Y469358D01*
X867082Y468999D01*
X866976Y468662D01*
X866847Y468345D01*
X866694Y468049D01*
X866517Y467773D01*
X866318Y467520D01*
X866098Y467292D01*
X865857Y467088D01*
X865595Y466908D01*
X865312Y466753D01*
X865008Y466622D01*
X864682Y466515D01*
X864336Y466433D01*
G37*
G36*
X864030Y457026D02*
X863758Y458664D01*
X864005Y458710D01*
X864238Y458768D01*
X864457Y458838D01*
X864662Y458920D01*
X864854Y459015D01*
X865031Y459122D01*
X865194Y459242D01*
X865343Y459374D01*
X865477Y459516D01*
X865592Y459667D01*
X865690Y459827D01*
X865770Y459996D01*
X865833Y460173D01*
X865877Y460359D01*
X865904Y460554D01*
X865913Y460758D01*
X865903Y460979D01*
X865873Y461189D01*
X865825Y461387D01*
X865756Y461572D01*
X865668Y461746D01*
X865560Y461907D01*
X865433Y462057D01*
X865286Y462194D01*
X865121Y462317D01*
X864937Y462424D01*
X864735Y462514D01*
X864515Y462588D01*
X864276Y462646D01*
X864019Y462687D01*
X863745Y462711D01*
X863451Y462720D01*
X856121Y462720D01*
X856121Y460346D01*
X854754Y460346D01*
X854754Y464384D01*
X863416Y464384D01*
X863853Y464368D01*
X864266Y464323D01*
X864655Y464247D01*
X865020Y464141D01*
X865361Y464004D01*
X865679Y463837D01*
X865972Y463639D01*
X866241Y463411D01*
X866482Y463157D01*
X866691Y462880D01*
X866868Y462581D01*
X867013Y462260D01*
X867125Y461916D01*
X867206Y461549D01*
X867254Y461160D01*
X867270Y460749D01*
X867258Y460367D01*
X867220Y460005D01*
X867156Y459663D01*
X867068Y459340D01*
X866954Y459038D01*
X866814Y458756D01*
X866650Y458493D01*
X866460Y458250D01*
X866245Y458028D01*
X866004Y457825D01*
X865738Y457642D01*
X865447Y457479D01*
X865131Y457336D01*
X864789Y457213D01*
X864422Y457110D01*
X864030Y457026D01*
G37*
G36*
X660583Y77021D02*
X660211Y77029D01*
X659850Y77055D01*
X659501Y77098D01*
X659165Y77159D01*
X658840Y77236D01*
X658527Y77331D01*
X658227Y77443D01*
X657938Y77572D01*
X657664Y77718D01*
X657405Y77879D01*
X657162Y78056D01*
X656935Y78249D01*
X656724Y78457D01*
X656529Y78681D01*
X656350Y78920D01*
X656187Y79175D01*
X656041Y79444D01*
X655915Y79726D01*
X655808Y80020D01*
X655720Y80327D01*
X655652Y80646D01*
X655604Y80978D01*
X655574Y81323D01*
X655565Y81680D01*
X655565Y89537D01*
X657238Y89537D01*
X657238Y81820D01*
X657251Y81410D01*
X657291Y81026D01*
X657358Y80667D01*
X657452Y80333D01*
X657573Y80025D01*
X657720Y79743D01*
X657895Y79486D01*
X658096Y79254D01*
X658322Y79049D01*
X658573Y78871D01*
X658847Y78720D01*
X659145Y78597D01*
X659467Y78501D01*
X659812Y78433D01*
X660181Y78392D01*
X660575Y78378D01*
X660979Y78392D01*
X661360Y78435D01*
X661719Y78506D01*
X662054Y78605D01*
X662366Y78732D01*
X662655Y78888D01*
X662920Y79072D01*
X663163Y79285D01*
X663379Y79524D01*
X663567Y79790D01*
X663726Y80082D01*
X663856Y80400D01*
X663957Y80745D01*
X664029Y81115D01*
X664072Y81511D01*
X664087Y81934D01*
X664087Y89537D01*
X665751Y89537D01*
X665751Y81838D01*
X665741Y81470D01*
X665711Y81115D01*
X665662Y80772D01*
X665592Y80443D01*
X665503Y80126D01*
X665394Y79823D01*
X665265Y79532D01*
X665116Y79254D01*
X664949Y78990D01*
X664766Y78743D01*
X664566Y78511D01*
X664350Y78296D01*
X664117Y78097D01*
X663868Y77913D01*
X663602Y77746D01*
X663320Y77594D01*
X663024Y77460D01*
X662714Y77343D01*
X662392Y77245D01*
X662056Y77164D01*
X661707Y77101D01*
X661346Y77056D01*
X660971Y77030D01*
X660583Y77021D01*
G37*
G36*
X672151Y77021D02*
X671694Y77034D01*
X671261Y77073D01*
X670852Y77139D01*
X670466Y77232D01*
X670104Y77351D01*
X669765Y77496D01*
X669451Y77668D01*
X669160Y77866D01*
X668895Y78090D01*
X668658Y78339D01*
X668450Y78614D01*
X668270Y78913D01*
X668118Y79239D01*
X667995Y79589D01*
X667900Y79965D01*
X667833Y80366D01*
X669462Y80515D01*
X669509Y80250D01*
X669573Y80002D01*
X669653Y79771D01*
X669748Y79557D01*
X669860Y79361D01*
X669988Y79181D01*
X670132Y79018D01*
X670292Y78873D01*
X670468Y78745D01*
X670660Y78633D01*
X670868Y78539D01*
X671093Y78462D01*
X671333Y78403D01*
X671590Y78360D01*
X671862Y78334D01*
X672151Y78326D01*
X672441Y78335D01*
X672714Y78362D01*
X672972Y78408D01*
X673214Y78472D01*
X673440Y78555D01*
X673649Y78656D01*
X673843Y78775D01*
X674021Y78912D01*
X674180Y79068D01*
X674318Y79241D01*
X674434Y79433D01*
X674530Y79642D01*
X674604Y79868D01*
X674657Y80113D01*
X674689Y80375D01*
X674700Y80655D01*
X674687Y80900D01*
X674651Y81131D01*
X674591Y81349D01*
X674506Y81552D01*
X674397Y81742D01*
X674264Y81917D01*
X674106Y82079D01*
X673924Y82228D01*
X673720Y82360D01*
X673494Y82475D01*
X673246Y82572D01*
X672977Y82651D01*
X672687Y82713D01*
X672375Y82757D01*
X672042Y82784D01*
X671687Y82792D01*
X670793Y82792D01*
X670793Y84159D01*
X671652Y84159D01*
X671967Y84168D01*
X672263Y84194D01*
X672542Y84238D01*
X672802Y84300D01*
X673044Y84379D01*
X673268Y84477D01*
X673474Y84591D01*
X673662Y84724D01*
X673829Y84872D01*
X673974Y85033D01*
X674097Y85208D01*
X674197Y85397D01*
X674275Y85599D01*
X674331Y85815D01*
X674364Y86044D01*
X674375Y86287D01*
X674366Y86528D01*
X674339Y86756D01*
X674294Y86971D01*
X674230Y87173D01*
X674148Y87362D01*
X674048Y87538D01*
X673930Y87701D01*
X673793Y87850D01*
X673639Y87985D01*
X673466Y88101D01*
X673277Y88200D01*
X673069Y88281D01*
X672844Y88343D01*
X672602Y88388D01*
X672341Y88415D01*
X672063Y88424D01*
X671809Y88416D01*
X671567Y88391D01*
X671338Y88349D01*
X671121Y88291D01*
X670916Y88215D01*
X670724Y88124D01*
X670544Y88015D01*
X670377Y87890D01*
X670225Y87749D01*
X670089Y87595D01*
X669970Y87428D01*
X669868Y87246D01*
X669783Y87051D01*
X669715Y86842D01*
X669663Y86620D01*
X669628Y86383D01*
X668043Y86506D01*
X668101Y86874D01*
X668187Y87222D01*
X668302Y87549D01*
X668445Y87855D01*
X668616Y88140D01*
X668816Y88404D01*
X669044Y88648D01*
X669300Y88871D01*
X669580Y89070D01*
X669879Y89243D01*
X670198Y89389D01*
X670536Y89508D01*
X670893Y89601D01*
X671270Y89667D01*
X671666Y89707D01*
X672081Y89720D01*
X672532Y89707D01*
X672957Y89667D01*
X673357Y89599D01*
X673731Y89505D01*
X674078Y89383D01*
X674400Y89235D01*
X674696Y89060D01*
X674967Y88858D01*
X675208Y88631D01*
X675417Y88384D01*
X675594Y88115D01*
X675739Y87825D01*
X675851Y87514D01*
X675931Y87182D01*
X675980Y86828D01*
X675996Y86454D01*
X675985Y86165D01*
X675954Y85890D01*
X675903Y85629D01*
X675830Y85382D01*
X675737Y85148D01*
X675624Y84929D01*
X675490Y84723D01*
X675335Y84531D01*
X675160Y84353D01*
X674966Y84191D01*
X674754Y84043D01*
X674523Y83910D01*
X674274Y83792D01*
X674005Y83689D01*
X673718Y83601D01*
X673412Y83528D01*
X673412Y83493D01*
X673748Y83446D01*
X674066Y83379D01*
X674364Y83293D01*
X674643Y83187D01*
X674902Y83061D01*
X675143Y82915D01*
X675364Y82750D01*
X675567Y82565D01*
X675747Y82364D01*
X675904Y82150D01*
X676036Y81923D01*
X676145Y81684D01*
X676229Y81433D01*
X676289Y81169D01*
X676325Y80892D01*
X676337Y80603D01*
X676320Y80188D01*
X676269Y79797D01*
X676185Y79430D01*
X676066Y79088D01*
X675913Y78769D01*
X675726Y78474D01*
X675506Y78204D01*
X675251Y77958D01*
X674965Y77738D01*
X674650Y77548D01*
X674306Y77387D01*
X673933Y77255D01*
X673531Y77152D01*
X673100Y77079D01*
X672640Y77035D01*
X672151Y77021D01*
G37*
G36*
X855778Y283853D02*
X855521Y283859D01*
X855271Y283877D01*
X854795Y283950D01*
X854350Y284071D01*
X853935Y284241D01*
X853551Y284459D01*
X853198Y284726D01*
X852876Y285041D01*
X852584Y285405D01*
X852325Y285816D01*
X852100Y286270D01*
X851910Y286769D01*
X851755Y287312D01*
X851634Y287898D01*
X851548Y288529D01*
X851496Y289205D01*
X851479Y289924D01*
X851497Y290703D01*
X851550Y291436D01*
X851640Y292123D01*
X851766Y292762D01*
X851928Y293355D01*
X852125Y293902D01*
X852359Y294402D01*
X852628Y294855D01*
X852931Y295258D01*
X853264Y295607D01*
X853627Y295903D01*
X854021Y296145D01*
X854445Y296333D01*
X854669Y296407D01*
X854900Y296467D01*
X855139Y296514D01*
X855385Y296548D01*
X855639Y296568D01*
X855901Y296575D01*
X856242Y296565D01*
X856568Y296535D01*
X856877Y296486D01*
X857171Y296417D01*
X857448Y296329D01*
X857709Y296220D01*
X857953Y296093D01*
X858182Y295945D01*
X858394Y295778D01*
X858590Y295591D01*
X858770Y295384D01*
X858934Y295158D01*
X859082Y294912D01*
X859213Y294647D01*
X859329Y294361D01*
X859428Y294056D01*
X857919Y293784D01*
X857785Y294138D01*
X857617Y294445D01*
X857414Y294704D01*
X857177Y294916D01*
X856906Y295081D01*
X856599Y295199D01*
X856258Y295270D01*
X855883Y295294D01*
X855555Y295274D01*
X855246Y295215D01*
X854955Y295116D01*
X854684Y294979D01*
X854432Y294802D01*
X854199Y294585D01*
X853985Y294330D01*
X853791Y294034D01*
X853617Y293702D01*
X853466Y293335D01*
X853339Y292932D01*
X853234Y292494D01*
X853153Y292020D01*
X853095Y291512D01*
X853061Y290968D01*
X853049Y290389D01*
X853286Y290764D01*
X853567Y291092D01*
X853891Y291372D01*
X854260Y291604D01*
X854665Y291786D01*
X855098Y291917D01*
X855325Y291962D01*
X855560Y291995D01*
X855801Y292014D01*
X856050Y292021D01*
X856466Y292004D01*
X856861Y291954D01*
X857234Y291870D01*
X857584Y291753D01*
X857913Y291603D01*
X858219Y291419D01*
X858503Y291201D01*
X858765Y290950D01*
X859001Y290671D01*
X859205Y290369D01*
X859377Y290044D01*
X859519Y289696D01*
X859629Y289325D01*
X859707Y288930D01*
X859754Y288513D01*
X859770Y288073D01*
X859753Y287596D01*
X859704Y287146D01*
X859621Y286721D01*
X859504Y286322D01*
X859355Y285949D01*
X859173Y285602D01*
X858957Y285280D01*
X858708Y284984D01*
X858430Y284719D01*
X858127Y284489D01*
X857799Y284295D01*
X857445Y284135D01*
X857066Y284012D01*
X856662Y283923D01*
X856232Y283870D01*
X855778Y283853D01*
G37*
%LPC*%
G36*
X855725Y285125D02*
X856003Y285137D01*
X856265Y285173D01*
X856512Y285233D01*
X856743Y285317D01*
X856959Y285425D01*
X857160Y285557D01*
X857345Y285712D01*
X857515Y285892D01*
X857667Y286093D01*
X857799Y286312D01*
X857911Y286549D01*
X858002Y286804D01*
X858073Y287077D01*
X858124Y287367D01*
X858154Y287676D01*
X858164Y288003D01*
X858154Y288329D01*
X858123Y288635D01*
X858072Y288923D01*
X858000Y289191D01*
X857907Y289441D01*
X857794Y289671D01*
X857660Y289881D01*
X857506Y290073D01*
X857334Y290244D01*
X857145Y290392D01*
X856940Y290517D01*
X856719Y290619D01*
X856481Y290699D01*
X856228Y290756D01*
X855958Y290790D01*
X855673Y290801D01*
X855403Y290791D01*
X855146Y290761D01*
X854903Y290711D01*
X854673Y290640D01*
X854457Y290549D01*
X854254Y290439D01*
X854064Y290308D01*
X853887Y290156D01*
X853728Y289988D01*
X853590Y289804D01*
X853473Y289604D01*
X853377Y289390D01*
X853303Y289160D01*
X853250Y288915D01*
X853218Y288655D01*
X853207Y288380D01*
X853218Y288030D01*
X853251Y287697D01*
X853306Y287380D01*
X853384Y287079D01*
X853483Y286794D01*
X853604Y286526D01*
X853748Y286273D01*
X853913Y286037D01*
X854096Y285823D01*
X854291Y285638D01*
X854499Y285481D01*
X854719Y285353D01*
X854952Y285253D01*
X855197Y285182D01*
X855455Y285139D01*
X855725Y285125D01*
G37*
%LPD*%
G36*
X845576Y283853D02*
X845193Y283865D01*
X844830Y283903D01*
X844488Y283967D01*
X844165Y284055D01*
X843862Y284170D01*
X843579Y284309D01*
X843316Y284474D01*
X843073Y284664D01*
X842850Y284880D01*
X842647Y285121D01*
X842464Y285387D01*
X842300Y285679D01*
X842157Y285996D01*
X842034Y286338D01*
X841930Y286706D01*
X841847Y287099D01*
X843488Y287371D01*
X843533Y287123D01*
X843591Y286890D01*
X843662Y286670D01*
X843744Y286465D01*
X843839Y286273D01*
X843947Y286096D01*
X844066Y285932D01*
X844198Y285783D01*
X844341Y285649D01*
X844492Y285533D01*
X844652Y285435D01*
X844821Y285355D01*
X844999Y285293D01*
X845185Y285248D01*
X845381Y285221D01*
X845585Y285212D01*
X845807Y285222D01*
X846017Y285252D01*
X846215Y285301D01*
X846401Y285369D01*
X846574Y285457D01*
X846736Y285565D01*
X846886Y285693D01*
X847023Y285840D01*
X847147Y286006D01*
X847254Y286190D01*
X847344Y286392D01*
X847418Y286613D01*
X847476Y286852D01*
X847517Y287109D01*
X847542Y287384D01*
X847550Y287678D01*
X847550Y295022D01*
X845172Y295022D01*
X845172Y296390D01*
X849217Y296390D01*
X849217Y287713D01*
X849202Y287275D01*
X849156Y286862D01*
X849080Y286472D01*
X848973Y286106D01*
X848836Y285765D01*
X848669Y285447D01*
X848471Y285153D01*
X848243Y284883D01*
X847988Y284642D01*
X847711Y284432D01*
X847411Y284255D01*
X847089Y284110D01*
X846745Y283997D01*
X846377Y283917D01*
X845988Y283869D01*
X845576Y283853D01*
G37*
G36*
X876307Y72836D02*
X875850Y72850D01*
X875417Y72889D01*
X875007Y72955D01*
X874622Y73048D01*
X874260Y73167D01*
X873921Y73312D01*
X873607Y73483D01*
X873316Y73682D01*
X873051Y73906D01*
X872814Y74155D01*
X872606Y74429D01*
X872426Y74729D01*
X872274Y75055D01*
X872150Y75405D01*
X872055Y75781D01*
X871989Y76182D01*
X873618Y76331D01*
X873665Y76066D01*
X873729Y75818D01*
X873808Y75587D01*
X873904Y75373D01*
X874016Y75176D01*
X874144Y74997D01*
X874288Y74834D01*
X874448Y74689D01*
X874624Y74560D01*
X874816Y74449D01*
X875024Y74355D01*
X875249Y74278D01*
X875489Y74218D01*
X875745Y74176D01*
X876018Y74150D01*
X876307Y74141D01*
X876596Y74151D01*
X876870Y74178D01*
X877128Y74224D01*
X877370Y74288D01*
X877595Y74371D01*
X877805Y74471D01*
X877999Y74591D01*
X878177Y74728D01*
X878336Y74884D01*
X878474Y75057D01*
X878590Y75248D01*
X878686Y75457D01*
X878760Y75684D01*
X878813Y75929D01*
X878845Y76191D01*
X878855Y76471D01*
X878843Y76716D01*
X878807Y76947D01*
X878746Y77164D01*
X878662Y77368D01*
X878553Y77557D01*
X878419Y77733D01*
X878262Y77895D01*
X878080Y78043D01*
X877876Y78176D01*
X877650Y78290D01*
X877402Y78388D01*
X877133Y78467D01*
X876843Y78529D01*
X876531Y78573D01*
X876197Y78599D01*
X875842Y78608D01*
X874949Y78608D01*
X874949Y79975D01*
X875807Y79975D01*
X876122Y79983D01*
X876419Y80010D01*
X876698Y80054D01*
X876958Y80116D01*
X877200Y80195D01*
X877424Y80292D01*
X877630Y80407D01*
X877818Y80540D01*
X877985Y80688D01*
X878130Y80849D01*
X878252Y81024D01*
X878353Y81213D01*
X878431Y81415D01*
X878487Y81631D01*
X878520Y81860D01*
X878531Y82103D01*
X878522Y82344D01*
X878495Y82572D01*
X878449Y82787D01*
X878386Y82989D01*
X878304Y83178D01*
X878204Y83353D01*
X878085Y83516D01*
X877949Y83666D01*
X877794Y83801D01*
X877622Y83917D01*
X877433Y84016D01*
X877225Y84097D01*
X877000Y84159D01*
X876757Y84204D01*
X876497Y84231D01*
X876219Y84240D01*
X875965Y84232D01*
X875723Y84207D01*
X875493Y84165D01*
X875276Y84106D01*
X875072Y84031D01*
X874880Y83939D01*
X874700Y83831D01*
X874533Y83706D01*
X874381Y83565D01*
X874245Y83411D01*
X874126Y83243D01*
X874024Y83062D01*
X873939Y82867D01*
X873870Y82658D01*
X873819Y82435D01*
X873784Y82199D01*
X872199Y82322D01*
X872257Y82690D01*
X872343Y83038D01*
X872458Y83365D01*
X872601Y83671D01*
X872772Y83956D01*
X872972Y84220D01*
X873199Y84464D01*
X873456Y84687D01*
X873736Y84886D01*
X874035Y85058D01*
X874354Y85204D01*
X874692Y85324D01*
X875049Y85417D01*
X875426Y85483D01*
X875821Y85523D01*
X876237Y85536D01*
X876688Y85523D01*
X877113Y85482D01*
X877513Y85415D01*
X877886Y85321D01*
X878234Y85199D01*
X878556Y85051D01*
X878852Y84876D01*
X879123Y84674D01*
X879364Y84447D01*
X879573Y84200D01*
X879750Y83931D01*
X879894Y83641D01*
X880007Y83330D01*
X880087Y82998D01*
X880136Y82644D01*
X880152Y82269D01*
X880141Y81981D01*
X880110Y81706D01*
X880059Y81445D01*
X879986Y81197D01*
X879893Y80964D01*
X879780Y80745D01*
X879645Y80539D01*
X879490Y80347D01*
X879316Y80169D01*
X879122Y80007D01*
X878910Y79859D01*
X878679Y79726D01*
X878429Y79608D01*
X878161Y79505D01*
X877874Y79417D01*
X877568Y79344D01*
X877568Y79309D01*
X877904Y79262D01*
X878221Y79195D01*
X878520Y79109D01*
X878798Y79002D01*
X879058Y78876D01*
X879299Y78731D01*
X879520Y78566D01*
X879722Y78381D01*
X879903Y78179D01*
X880060Y77966D01*
X880192Y77739D01*
X880301Y77500D01*
X880385Y77249D01*
X880445Y76985D01*
X880481Y76708D01*
X880493Y76419D01*
X880476Y76004D01*
X880425Y75613D01*
X880341Y75246D01*
X880222Y74903D01*
X880069Y74585D01*
X879882Y74290D01*
X879662Y74020D01*
X879407Y73774D01*
X879121Y73554D01*
X878806Y73364D01*
X878462Y73202D01*
X878089Y73071D01*
X877687Y72968D01*
X877256Y72895D01*
X876796Y72851D01*
X876307Y72836D01*
G37*
G36*
X870717Y73012D02*
X862808Y73012D01*
X862808Y85352D01*
X864481Y85352D01*
X864481Y74378D01*
X870717Y74378D01*
X870717Y73012D01*
G37*
G36*
X603897Y143260D02*
X600548Y143260D01*
X600548Y167963D01*
X610945Y167963D01*
X611457Y167955D01*
X611954Y167933D01*
X612437Y167895D01*
X612905Y167841D01*
X613359Y167773D01*
X613797Y167689D01*
X614222Y167591D01*
X614631Y167477D01*
X615026Y167347D01*
X615406Y167203D01*
X615772Y167043D01*
X616122Y166868D01*
X616459Y166678D01*
X616780Y166473D01*
X617087Y166253D01*
X617379Y166017D01*
X617655Y165767D01*
X617913Y165506D01*
X618154Y165231D01*
X618376Y164944D01*
X618581Y164645D01*
X618768Y164333D01*
X618937Y164009D01*
X619089Y163672D01*
X619222Y163323D01*
X619338Y162961D01*
X619436Y162587D01*
X619516Y162200D01*
X619578Y161801D01*
X619623Y161390D01*
X619650Y160966D01*
X619658Y160529D01*
X619649Y160097D01*
X619623Y159675D01*
X619578Y159265D01*
X619515Y158866D01*
X619435Y158478D01*
X619337Y158102D01*
X619220Y157736D01*
X619086Y157382D01*
X618934Y157039D01*
X618765Y156708D01*
X618577Y156387D01*
X618371Y156078D01*
X618148Y155780D01*
X617907Y155494D01*
X617648Y155218D01*
X617370Y154954D01*
X617078Y154704D01*
X616773Y154469D01*
X616455Y154251D01*
X616124Y154049D01*
X615780Y153863D01*
X615424Y153693D01*
X615055Y153540D01*
X614673Y153402D01*
X614278Y153281D01*
X613870Y153176D01*
X613450Y153087D01*
X613016Y153015D01*
X612570Y152958D01*
X612111Y152918D01*
X611640Y152893D01*
X611155Y152885D01*
X603897Y152885D01*
X603897Y143260D01*
G37*
%LPC*%
G36*
X610682Y155533D02*
X611361Y155552D01*
X611997Y155610D01*
X612588Y155707D01*
X613136Y155843D01*
X613640Y156017D01*
X614101Y156230D01*
X614517Y156482D01*
X614890Y156773D01*
X615218Y157103D01*
X615503Y157471D01*
X615744Y157878D01*
X615942Y158324D01*
X616095Y158808D01*
X616205Y159331D01*
X616270Y159893D01*
X616292Y160494D01*
X616270Y161074D01*
X616202Y161616D01*
X616090Y162121D01*
X615933Y162588D01*
X615731Y163018D01*
X615484Y163411D01*
X615191Y163766D01*
X614855Y164084D01*
X614473Y164364D01*
X614046Y164608D01*
X613574Y164813D01*
X613057Y164981D01*
X612496Y165112D01*
X611889Y165206D01*
X611238Y165262D01*
X610542Y165281D01*
X603897Y165281D01*
X603897Y155533D01*
X610682Y155533D01*
G37*
%LPD*%
G36*
X585763Y142909D02*
X585206Y142916D01*
X584664Y142934D01*
X584136Y142965D01*
X583624Y143007D01*
X583126Y143063D01*
X582643Y143130D01*
X582176Y143210D01*
X581722Y143302D01*
X581284Y143406D01*
X580861Y143522D01*
X580452Y143651D01*
X580058Y143792D01*
X579679Y143945D01*
X579315Y144111D01*
X578966Y144288D01*
X578631Y144478D01*
X578312Y144681D01*
X578007Y144895D01*
X577717Y145122D01*
X577442Y145361D01*
X577181Y145612D01*
X576936Y145876D01*
X576705Y146152D01*
X576489Y146440D01*
X576288Y146740D01*
X576102Y147053D01*
X575930Y147378D01*
X575774Y147715D01*
X575632Y148064D01*
X575505Y148426D01*
X575393Y148800D01*
X575296Y149186D01*
X578539Y149835D01*
X578699Y149296D01*
X578899Y148795D01*
X579138Y148331D01*
X579416Y147904D01*
X579734Y147514D01*
X580091Y147160D01*
X580487Y146844D01*
X580924Y146565D01*
X581400Y146320D01*
X581917Y146108D01*
X582476Y145929D01*
X583076Y145782D01*
X583716Y145668D01*
X584398Y145587D01*
X585121Y145538D01*
X585885Y145522D01*
X586673Y145539D01*
X587414Y145591D01*
X588110Y145678D01*
X588758Y145800D01*
X589361Y145957D01*
X589917Y146148D01*
X590427Y146374D01*
X590891Y146635D01*
X591304Y146930D01*
X591662Y147257D01*
X591964Y147617D01*
X592212Y148009D01*
X592315Y148218D01*
X592405Y148434D01*
X592481Y148659D01*
X592543Y148892D01*
X592591Y149133D01*
X592625Y149382D01*
X592646Y149639D01*
X592653Y149905D01*
X592644Y150200D01*
X592618Y150481D01*
X592575Y150748D01*
X592515Y151001D01*
X592437Y151239D01*
X592342Y151463D01*
X592230Y151673D01*
X592100Y151868D01*
X591796Y152229D01*
X591436Y152557D01*
X591021Y152851D01*
X590549Y153113D01*
X590025Y153349D01*
X589453Y153565D01*
X588833Y153761D01*
X588164Y153937D01*
X585096Y154656D01*
X583721Y154980D01*
X582521Y155305D01*
X581498Y155629D01*
X581053Y155791D01*
X580652Y155953D01*
X579934Y156287D01*
X579295Y156639D01*
X578737Y157010D01*
X578259Y157400D01*
X577846Y157816D01*
X577485Y158265D01*
X577176Y158749D01*
X576917Y159267D01*
X576809Y159539D01*
X576714Y159821D01*
X576634Y160114D01*
X576569Y160415D01*
X576518Y160727D01*
X576482Y161049D01*
X576460Y161380D01*
X576453Y161722D01*
X576462Y162113D01*
X576491Y162492D01*
X576538Y162860D01*
X576605Y163217D01*
X576690Y163563D01*
X576794Y163897D01*
X576918Y164220D01*
X577060Y164531D01*
X577221Y164831D01*
X577401Y165120D01*
X577601Y165397D01*
X577819Y165663D01*
X578056Y165918D01*
X578312Y166161D01*
X578587Y166393D01*
X578881Y166613D01*
X579193Y166821D01*
X579521Y167016D01*
X579865Y167197D01*
X580226Y167365D01*
X580603Y167519D01*
X580997Y167660D01*
X581407Y167788D01*
X581833Y167902D01*
X582276Y168002D01*
X582735Y168090D01*
X583210Y168163D01*
X583702Y168224D01*
X584210Y168271D01*
X584735Y168304D01*
X585275Y168325D01*
X585833Y168331D01*
X586854Y168311D01*
X587813Y168251D01*
X588710Y168150D01*
X589545Y168009D01*
X590318Y167828D01*
X591030Y167606D01*
X591679Y167345D01*
X591981Y167199D01*
X592267Y167043D01*
X592540Y166874D01*
X592803Y166692D01*
X593055Y166496D01*
X593297Y166285D01*
X593529Y166060D01*
X593750Y165821D01*
X593960Y165568D01*
X594161Y165300D01*
X594350Y165019D01*
X594530Y164723D01*
X594857Y164089D01*
X595143Y163398D01*
X595388Y162651D01*
X592092Y162072D01*
X591941Y162546D01*
X591759Y162987D01*
X591546Y163393D01*
X591303Y163766D01*
X591029Y164106D01*
X590724Y164411D01*
X590389Y164683D01*
X590023Y164921D01*
X589623Y165129D01*
X589187Y165309D01*
X588714Y165461D01*
X588204Y165585D01*
X587657Y165682D01*
X587074Y165751D01*
X586454Y165793D01*
X585798Y165807D01*
X585079Y165791D01*
X584404Y165745D01*
X583773Y165669D01*
X583185Y165561D01*
X582642Y165423D01*
X582142Y165254D01*
X581686Y165055D01*
X581274Y164825D01*
X580909Y164564D01*
X580592Y164274D01*
X580323Y163953D01*
X580104Y163602D01*
X579933Y163221D01*
X579811Y162810D01*
X579738Y162368D01*
X579720Y162136D01*
X579714Y161897D01*
X579723Y161618D01*
X579752Y161352D01*
X579799Y161098D01*
X579865Y160856D01*
X579950Y160626D01*
X580054Y160409D01*
X580177Y160205D01*
X580319Y160012D01*
X580478Y159829D01*
X580655Y159654D01*
X581057Y159324D01*
X581527Y159023D01*
X582063Y158750D01*
X582383Y158617D01*
X582774Y158476D01*
X583768Y158173D01*
X585045Y157841D01*
X586604Y157479D01*
X588875Y156944D01*
X589434Y156802D01*
X589981Y156646D01*
X590517Y156477D01*
X591040Y156295D01*
X591549Y156099D01*
X592041Y155885D01*
X592517Y155656D01*
X592977Y155410D01*
X593414Y155141D01*
X593821Y154844D01*
X594198Y154519D01*
X594546Y154165D01*
X594861Y153781D01*
X595140Y153363D01*
X595383Y152913D01*
X595589Y152429D01*
X595754Y151908D01*
X595872Y151342D01*
X595943Y150733D01*
X595960Y150412D01*
X595966Y150080D01*
X595956Y149659D01*
X595925Y149249D01*
X595872Y148852D01*
X595799Y148467D01*
X595705Y148094D01*
X595590Y147733D01*
X595455Y147384D01*
X595298Y147047D01*
X595120Y146722D01*
X594922Y146409D01*
X594703Y146108D01*
X594462Y145820D01*
X594201Y145543D01*
X593919Y145278D01*
X593616Y145026D01*
X593293Y144785D01*
X592950Y144558D01*
X592590Y144346D01*
X592213Y144148D01*
X591819Y143965D01*
X591408Y143796D01*
X590980Y143642D01*
X590535Y143503D01*
X590073Y143378D01*
X589594Y143268D01*
X589098Y143173D01*
X588585Y143093D01*
X588054Y143027D01*
X587507Y142975D01*
X586943Y142939D01*
X586361Y142917D01*
X585763Y142909D01*
G37*
G36*
X561596Y142909D02*
X561133Y142915D01*
X560678Y142934D01*
X560231Y142964D01*
X559792Y143006D01*
X558937Y143128D01*
X558113Y143297D01*
X557322Y143515D01*
X556561Y143782D01*
X555832Y144097D01*
X555135Y144461D01*
X554474Y144870D01*
X553853Y145320D01*
X553273Y145812D01*
X552733Y146346D01*
X552234Y146921D01*
X551775Y147538D01*
X551357Y148196D01*
X550980Y148897D01*
X550645Y149634D01*
X550355Y150405D01*
X550109Y151209D01*
X549908Y152046D01*
X549752Y152916D01*
X549640Y153819D01*
X549573Y154756D01*
X549551Y155725D01*
X549564Y156454D01*
X549601Y157163D01*
X549663Y157851D01*
X549751Y158520D01*
X549863Y159168D01*
X550000Y159797D01*
X550162Y160405D01*
X550349Y160994D01*
X550561Y161563D01*
X550798Y162111D01*
X551059Y162640D01*
X551346Y163148D01*
X551658Y163637D01*
X551994Y164105D01*
X552356Y164554D01*
X552742Y164983D01*
X553150Y165388D01*
X553578Y165767D01*
X554025Y166121D01*
X554491Y166448D01*
X554976Y166748D01*
X555480Y167023D01*
X556004Y167272D01*
X556546Y167494D01*
X557108Y167690D01*
X557689Y167860D01*
X558290Y168004D01*
X558909Y168122D01*
X559548Y168214D01*
X560205Y168279D01*
X560882Y168318D01*
X561578Y168331D01*
X562066Y168325D01*
X562544Y168307D01*
X563012Y168277D01*
X563470Y168235D01*
X563917Y168181D01*
X564354Y168114D01*
X564782Y168036D01*
X565199Y167946D01*
X566002Y167729D01*
X566766Y167463D01*
X567488Y167150D01*
X568170Y166788D01*
X568810Y166379D01*
X569406Y165924D01*
X569959Y165422D01*
X570467Y164873D01*
X570932Y164278D01*
X571353Y163636D01*
X571730Y162947D01*
X572063Y162212D01*
X568889Y161161D01*
X568658Y161684D01*
X568395Y162175D01*
X568098Y162635D01*
X567769Y163063D01*
X567408Y163459D01*
X567014Y163823D01*
X566587Y164156D01*
X566128Y164457D01*
X565641Y164724D01*
X565132Y164955D01*
X564601Y165151D01*
X564048Y165311D01*
X563473Y165436D01*
X562875Y165525D01*
X562255Y165578D01*
X561613Y165596D01*
X561108Y165586D01*
X560616Y165555D01*
X560139Y165503D01*
X559676Y165431D01*
X559227Y165339D01*
X558793Y165225D01*
X558373Y165091D01*
X557967Y164937D01*
X557575Y164761D01*
X557197Y164566D01*
X556834Y164349D01*
X556485Y164112D01*
X556150Y163854D01*
X555830Y163576D01*
X555524Y163277D01*
X555232Y162958D01*
X554956Y162620D01*
X554697Y162267D01*
X554457Y161899D01*
X554234Y161516D01*
X554030Y161118D01*
X553843Y160704D01*
X553674Y160275D01*
X553522Y159830D01*
X553389Y159371D01*
X553273Y158896D01*
X553175Y158406D01*
X553095Y157900D01*
X553032Y157379D01*
X552988Y156843D01*
X552961Y156292D01*
X552952Y155725D01*
X552962Y155165D01*
X552989Y154618D01*
X553036Y154085D01*
X553101Y153566D01*
X553184Y153061D01*
X553286Y152570D01*
X553407Y152093D01*
X553546Y151630D01*
X553704Y151180D01*
X553880Y150745D01*
X554075Y150323D01*
X554289Y149915D01*
X554521Y149521D01*
X554771Y149141D01*
X555040Y148775D01*
X555328Y148423D01*
X555631Y148089D01*
X555948Y147776D01*
X556278Y147485D01*
X556620Y147215D01*
X556976Y146967D01*
X557345Y146741D01*
X557727Y146536D01*
X558122Y146352D01*
X558530Y146190D01*
X558952Y146050D01*
X559386Y145932D01*
X559833Y145835D01*
X560294Y145759D01*
X560767Y145705D01*
X561254Y145673D01*
X561754Y145662D01*
X562392Y145682D01*
X563011Y145742D01*
X563609Y145843D01*
X564187Y145983D01*
X564745Y146164D01*
X565283Y146384D01*
X565801Y146645D01*
X566299Y146946D01*
X566776Y147287D01*
X567234Y147669D01*
X567671Y148090D01*
X568088Y148551D01*
X568485Y149053D01*
X568862Y149595D01*
X569219Y150177D01*
X569555Y150799D01*
X572291Y149431D01*
X571890Y148657D01*
X571451Y147931D01*
X570973Y147253D01*
X570456Y146622D01*
X569901Y146039D01*
X569307Y145503D01*
X568675Y145015D01*
X568004Y144575D01*
X567300Y144185D01*
X566568Y143846D01*
X565808Y143560D01*
X565021Y143326D01*
X564617Y143228D01*
X564206Y143144D01*
X563789Y143072D01*
X563364Y143013D01*
X562932Y142968D01*
X562494Y142935D01*
X562048Y142916D01*
X561596Y142909D01*
G37*
G36*
X544421Y143260D02*
X541073Y143260D01*
X541073Y167963D01*
X544421Y167963D01*
X544421Y143260D01*
G37*
G36*
X469603Y142935D02*
X467931Y142935D01*
X467931Y155276D01*
X473124Y155276D01*
X473629Y155261D01*
X474104Y155215D01*
X474549Y155139D01*
X474966Y155033D01*
X475353Y154896D01*
X475711Y154729D01*
X476039Y154532D01*
X476339Y154304D01*
X476606Y154048D01*
X476837Y153768D01*
X477033Y153463D01*
X477193Y153133D01*
X477317Y152777D01*
X477406Y152397D01*
X477460Y151992D01*
X477477Y151563D01*
X477460Y151136D01*
X477406Y150732D01*
X477317Y150350D01*
X477192Y149990D01*
X477031Y149653D01*
X476834Y149339D01*
X476602Y149047D01*
X476334Y148777D01*
X476036Y148535D01*
X475712Y148325D01*
X475362Y148148D01*
X474987Y148002D01*
X474586Y147889D01*
X474159Y147808D01*
X473707Y147760D01*
X473230Y147744D01*
X469603Y147744D01*
X469603Y142935D01*
G37*
%LPC*%
G36*
X472993Y149066D02*
X473332Y149076D01*
X473650Y149105D01*
X473946Y149153D01*
X474219Y149221D01*
X474471Y149308D01*
X474701Y149415D01*
X474909Y149541D01*
X475095Y149686D01*
X475259Y149851D01*
X475402Y150035D01*
X475522Y150238D01*
X475621Y150461D01*
X475697Y150703D01*
X475752Y150964D01*
X475785Y151245D01*
X475796Y151545D01*
X475785Y151835D01*
X475751Y152105D01*
X475695Y152358D01*
X475616Y152591D01*
X475515Y152806D01*
X475392Y153002D01*
X475246Y153180D01*
X475078Y153338D01*
X474887Y153478D01*
X474674Y153600D01*
X474438Y153703D01*
X474180Y153787D01*
X473899Y153852D01*
X473596Y153899D01*
X473271Y153927D01*
X472923Y153936D01*
X469603Y153936D01*
X469603Y149066D01*
X472993Y149066D01*
G37*
%LPD*%
G36*
X487528Y142935D02*
X479794Y142935D01*
X479794Y144275D01*
X482939Y144275D01*
X482939Y153770D01*
X480153Y151782D01*
X480153Y153270D01*
X483070Y155276D01*
X484524Y155276D01*
X484524Y144275D01*
X487528Y144275D01*
X487528Y142935D01*
G37*
G36*
X461493Y142760D02*
X461111Y142773D01*
X460749Y142811D01*
X460407Y142874D01*
X460085Y142963D01*
X459782Y143077D01*
X459500Y143216D01*
X459237Y143380D01*
X458995Y143570D01*
X458772Y143786D01*
X458569Y144026D01*
X458386Y144292D01*
X458223Y144583D01*
X458080Y144900D01*
X457957Y145241D01*
X457854Y145608D01*
X457771Y146001D01*
X459409Y146272D01*
X459454Y146025D01*
X459512Y145792D01*
X459582Y145573D01*
X459665Y145368D01*
X459760Y145177D01*
X459867Y145000D01*
X459986Y144836D01*
X460118Y144687D01*
X460260Y144554D01*
X460411Y144438D01*
X460571Y144340D01*
X460740Y144260D01*
X460917Y144198D01*
X461103Y144153D01*
X461298Y144127D01*
X461502Y144118D01*
X461724Y144128D01*
X461933Y144157D01*
X462131Y144206D01*
X462316Y144274D01*
X462490Y144362D01*
X462651Y144470D01*
X462801Y144597D01*
X462938Y144744D01*
X463061Y144910D01*
X463168Y145094D01*
X463258Y145296D01*
X463332Y145516D01*
X463390Y145754D01*
X463431Y146011D01*
X463456Y146286D01*
X463464Y146579D01*
X463464Y153910D01*
X461090Y153910D01*
X461090Y155276D01*
X465128Y155276D01*
X465128Y146614D01*
X465113Y146177D01*
X465067Y145764D01*
X464991Y145375D01*
X464885Y145010D01*
X464748Y144669D01*
X464581Y144352D01*
X464384Y144059D01*
X464156Y143789D01*
X463901Y143548D01*
X463625Y143339D01*
X463326Y143162D01*
X463004Y143017D01*
X462660Y142905D01*
X462293Y142825D01*
X461904Y142776D01*
X461493Y142760D01*
G37*
G36*
X465051Y535753D02*
X462251Y535753D01*
X462251Y536649D01*
X465051Y536649D01*
X465051Y535753D01*
G37*
G36*
X463499Y599441D02*
X462676Y599441D01*
X462676Y601837D01*
X460301Y601837D01*
X460301Y602655D01*
X462676Y602655D01*
X462676Y605052D01*
X463499Y605052D01*
X463499Y602655D01*
X465873Y602655D01*
X465873Y601837D01*
X463499Y601837D01*
X463499Y599441D01*
G37*
G36*
X506510Y610942D02*
X504838Y610942D01*
X504838Y623282D01*
X510031Y623282D01*
X510536Y623267D01*
X511011Y623222D01*
X511456Y623146D01*
X511873Y623039D01*
X512260Y622903D01*
X512618Y622735D01*
X512946Y622538D01*
X513246Y622310D01*
X513513Y622055D01*
X513744Y621774D01*
X513940Y621469D01*
X514100Y621139D01*
X514224Y620784D01*
X514313Y620403D01*
X514367Y619999D01*
X514384Y619569D01*
X514367Y619142D01*
X514313Y618738D01*
X514224Y618356D01*
X514099Y617997D01*
X513938Y617660D01*
X513741Y617345D01*
X513509Y617053D01*
X513241Y616783D01*
X512943Y616541D01*
X512619Y616331D01*
X512269Y616154D01*
X511894Y616008D01*
X511493Y615895D01*
X511066Y615815D01*
X510614Y615766D01*
X510136Y615750D01*
X506510Y615750D01*
X506510Y610942D01*
G37*
%LPC*%
G36*
X509900Y617072D02*
X510239Y617082D01*
X510557Y617111D01*
X510852Y617160D01*
X511126Y617227D01*
X511378Y617315D01*
X511608Y617421D01*
X511816Y617547D01*
X512002Y617692D01*
X512166Y617857D01*
X512309Y618041D01*
X512429Y618244D01*
X512528Y618467D01*
X512604Y618709D01*
X512659Y618970D01*
X512692Y619251D01*
X512703Y619551D01*
X512692Y619841D01*
X512658Y620112D01*
X512602Y620364D01*
X512523Y620597D01*
X512422Y620812D01*
X512299Y621008D01*
X512153Y621186D01*
X511985Y621344D01*
X511794Y621485D01*
X511581Y621606D01*
X511345Y621709D01*
X511087Y621793D01*
X510806Y621858D01*
X510503Y621905D01*
X510178Y621933D01*
X509830Y621942D01*
X506510Y621942D01*
X506510Y617072D01*
X509900Y617072D01*
G37*
%LPD*%
G36*
X497441Y610766D02*
X496892Y610779D01*
X496372Y610815D01*
X495883Y610877D01*
X495422Y610962D01*
X494992Y611073D01*
X494591Y611207D01*
X494220Y611366D01*
X493878Y611550D01*
X493566Y611758D01*
X493284Y611991D01*
X493031Y612248D01*
X492808Y612530D01*
X492615Y612836D01*
X492451Y613167D01*
X492317Y613522D01*
X492212Y613902D01*
X493832Y614226D01*
X493912Y613957D01*
X494012Y613707D01*
X494131Y613475D01*
X494270Y613261D01*
X494429Y613066D01*
X494607Y612890D01*
X494806Y612732D01*
X495023Y612592D01*
X495261Y612470D01*
X495520Y612364D01*
X495799Y612275D01*
X496099Y612202D01*
X496419Y612145D01*
X496759Y612104D01*
X497120Y612079D01*
X497502Y612071D01*
X497896Y612080D01*
X498266Y612106D01*
X498613Y612150D01*
X498937Y612210D01*
X499238Y612289D01*
X499516Y612384D01*
X499771Y612497D01*
X500003Y612628D01*
X500209Y612775D01*
X500388Y612938D01*
X500539Y613118D01*
X500663Y613314D01*
X500759Y613526D01*
X500828Y613755D01*
X500869Y614000D01*
X500883Y614261D01*
X500866Y614549D01*
X500814Y614808D01*
X500728Y615039D01*
X500607Y615242D01*
X500455Y615422D01*
X500275Y615586D01*
X500068Y615733D01*
X499832Y615864D01*
X499570Y615981D01*
X499284Y616089D01*
X498975Y616187D01*
X498641Y616275D01*
X497108Y616635D01*
X496421Y616797D01*
X495822Y616959D01*
X495311Y617121D01*
X494888Y617283D01*
X494529Y617449D01*
X494210Y617625D01*
X493931Y617811D01*
X493692Y618005D01*
X493486Y618213D01*
X493306Y618438D01*
X493151Y618679D01*
X493022Y618938D01*
X492921Y619215D01*
X492848Y619512D01*
X492804Y619828D01*
X492790Y620164D01*
X492809Y620549D01*
X492866Y620911D01*
X492961Y621251D01*
X493093Y621568D01*
X493264Y621862D01*
X493472Y622133D01*
X493719Y622382D01*
X494003Y622608D01*
X494323Y622809D01*
X494675Y622983D01*
X495060Y623131D01*
X495478Y623252D01*
X495928Y623346D01*
X496411Y623413D01*
X496927Y623453D01*
X497476Y623466D01*
X497986Y623456D01*
X498465Y623426D01*
X498913Y623376D01*
X499330Y623305D01*
X499717Y623215D01*
X500072Y623104D01*
X500397Y622973D01*
X500690Y622822D01*
X500958Y622647D01*
X501205Y622444D01*
X501431Y622212D01*
X501636Y621952D01*
X501821Y621664D01*
X501984Y621347D01*
X502127Y621002D01*
X502249Y620628D01*
X500603Y620339D01*
X500527Y620576D01*
X500436Y620796D01*
X500330Y620999D01*
X500208Y621186D01*
X500072Y621355D01*
X499919Y621508D01*
X499752Y621644D01*
X499569Y621763D01*
X499369Y621866D01*
X499151Y621956D01*
X498915Y622032D01*
X498660Y622094D01*
X498387Y622143D01*
X498096Y622177D01*
X497786Y622198D01*
X497458Y622205D01*
X497099Y622197D01*
X496762Y622174D01*
X496447Y622136D01*
X496153Y622082D01*
X495882Y622013D01*
X495632Y621929D01*
X495404Y621829D01*
X495199Y621715D01*
X495016Y621584D01*
X494858Y621439D01*
X494724Y621279D01*
X494614Y621104D01*
X494529Y620913D01*
X494468Y620708D01*
X494431Y620487D01*
X494419Y620252D01*
X494438Y619979D01*
X494495Y619732D01*
X494589Y619509D01*
X494721Y619310D01*
X494889Y619131D01*
X495090Y618967D01*
X495325Y618816D01*
X495593Y618680D01*
X495948Y618543D01*
X496444Y618392D01*
X497082Y618226D01*
X497861Y618045D01*
X498995Y617778D01*
X499548Y617629D01*
X500077Y617453D01*
X500577Y617249D01*
X501045Y617011D01*
X501263Y616877D01*
X501466Y616729D01*
X501655Y616566D01*
X501829Y616389D01*
X501986Y616197D01*
X502125Y615989D01*
X502247Y615764D01*
X502350Y615522D01*
X502432Y615262D01*
X502491Y614979D01*
X502526Y614675D01*
X502538Y614349D01*
X502517Y613934D01*
X502455Y613543D01*
X502350Y613176D01*
X502204Y612833D01*
X502016Y612515D01*
X501787Y612220D01*
X501516Y611950D01*
X501203Y611703D01*
X500852Y611484D01*
X500467Y611293D01*
X500047Y611132D01*
X499594Y611001D01*
X499107Y610898D01*
X498586Y610825D01*
X498030Y610781D01*
X497441Y610766D01*
G37*
G36*
X518479Y610942D02*
X516806Y610942D01*
X516806Y623282D01*
X518479Y623282D01*
X518479Y617099D01*
X524426Y623282D01*
X526397Y623282D01*
X521142Y617922D01*
X527098Y610942D01*
X525022Y610942D01*
X520091Y616897D01*
X518479Y615671D01*
X518479Y610942D01*
G37*
G36*
X271538Y546228D02*
X271281Y546234D01*
X271032Y546252D01*
X270557Y546324D01*
X270113Y546446D01*
X269699Y546615D01*
X269316Y546833D01*
X268963Y547100D01*
X268641Y547414D01*
X268350Y547778D01*
X268091Y548187D01*
X267867Y548641D01*
X267678Y549139D01*
X267522Y549681D01*
X267402Y550266D01*
X267316Y550896D01*
X267264Y551570D01*
X267247Y552288D01*
X267264Y553067D01*
X267318Y553798D01*
X267408Y554483D01*
X267533Y555122D01*
X267695Y555714D01*
X267892Y556259D01*
X268125Y556758D01*
X268394Y557211D01*
X268696Y557613D01*
X269028Y557962D01*
X269391Y558257D01*
X269784Y558498D01*
X270208Y558686D01*
X270431Y558760D01*
X270662Y558820D01*
X270900Y558867D01*
X271146Y558901D01*
X271400Y558921D01*
X271661Y558927D01*
X272002Y558918D01*
X272327Y558888D01*
X272636Y558839D01*
X272929Y558770D01*
X273205Y558682D01*
X273466Y558574D01*
X273710Y558446D01*
X273938Y558299D01*
X274150Y558132D01*
X274346Y557945D01*
X274526Y557739D01*
X274689Y557513D01*
X274837Y557268D01*
X274968Y557003D01*
X275083Y556718D01*
X275182Y556414D01*
X273675Y556142D01*
X273542Y556495D01*
X273374Y556801D01*
X273172Y557060D01*
X272935Y557272D01*
X272664Y557437D01*
X272358Y557555D01*
X272018Y557625D01*
X271643Y557649D01*
X271316Y557629D01*
X271007Y557570D01*
X270717Y557472D01*
X270447Y557334D01*
X270195Y557158D01*
X269963Y556942D01*
X269749Y556686D01*
X269554Y556392D01*
X269381Y556060D01*
X269231Y555693D01*
X269103Y555291D01*
X268999Y554854D01*
X268918Y554381D01*
X268861Y553873D01*
X268826Y553331D01*
X268814Y552753D01*
X269051Y553127D01*
X269331Y553454D01*
X269655Y553734D01*
X270023Y553966D01*
X270427Y554148D01*
X270859Y554278D01*
X271086Y554323D01*
X271320Y554356D01*
X271561Y554375D01*
X271810Y554382D01*
X272226Y554365D01*
X272620Y554315D01*
X272992Y554231D01*
X273341Y554115D01*
X273669Y553964D01*
X273975Y553781D01*
X274259Y553564D01*
X274521Y553313D01*
X274756Y553035D01*
X274959Y552733D01*
X275132Y552408D01*
X275273Y552061D01*
X275382Y551690D01*
X275461Y551297D01*
X275508Y550880D01*
X275523Y550440D01*
X275507Y549965D01*
X275457Y549515D01*
X275374Y549091D01*
X275258Y548693D01*
X275109Y548321D01*
X274927Y547974D01*
X274712Y547653D01*
X274464Y547357D01*
X274186Y547093D01*
X273883Y546863D01*
X273555Y546669D01*
X273202Y546510D01*
X272824Y546386D01*
X272421Y546298D01*
X271992Y546245D01*
X271538Y546228D01*
G37*
%LPC*%
G36*
X271486Y547498D02*
X271763Y547509D01*
X272024Y547545D01*
X272271Y547605D01*
X272502Y547689D01*
X272717Y547797D01*
X272918Y547929D01*
X273103Y548084D01*
X273272Y548264D01*
X273424Y548464D01*
X273556Y548683D01*
X273667Y548919D01*
X273759Y549174D01*
X273829Y549446D01*
X273880Y549736D01*
X273910Y550044D01*
X273921Y550370D01*
X273910Y550696D01*
X273880Y551002D01*
X273828Y551289D01*
X273756Y551557D01*
X273664Y551806D01*
X273551Y552036D01*
X273418Y552246D01*
X273264Y552437D01*
X273091Y552608D01*
X272903Y552755D01*
X272698Y552880D01*
X272478Y552983D01*
X272241Y553062D01*
X271988Y553119D01*
X271718Y553153D01*
X271433Y553164D01*
X271164Y553154D01*
X270908Y553124D01*
X270665Y553074D01*
X270436Y553003D01*
X270220Y552913D01*
X270017Y552802D01*
X269827Y552671D01*
X269651Y552521D01*
X269492Y552352D01*
X269354Y552168D01*
X269237Y551969D01*
X269142Y551755D01*
X269067Y551526D01*
X269014Y551281D01*
X268983Y551022D01*
X268972Y550747D01*
X268983Y550398D01*
X269016Y550065D01*
X269071Y549749D01*
X269148Y549448D01*
X269247Y549164D01*
X269369Y548896D01*
X269512Y548644D01*
X269677Y548408D01*
X269860Y548195D01*
X270054Y548010D01*
X270262Y547853D01*
X270482Y547725D01*
X270714Y547626D01*
X270959Y547554D01*
X271216Y547512D01*
X271486Y547498D01*
G37*
%LPD*%
G36*
X259769Y546228D02*
X259397Y546236D01*
X259036Y546262D01*
X258687Y546305D01*
X258351Y546365D01*
X258026Y546443D01*
X257713Y546538D01*
X257413Y546650D01*
X257124Y546779D01*
X256850Y546925D01*
X256591Y547086D01*
X256348Y547263D01*
X256121Y547456D01*
X255910Y547664D01*
X255715Y547888D01*
X255536Y548127D01*
X255373Y548382D01*
X255227Y548651D01*
X255101Y548933D01*
X254994Y549227D01*
X254906Y549534D01*
X254838Y549853D01*
X254790Y550185D01*
X254760Y550530D01*
X254751Y550887D01*
X254751Y558743D01*
X256424Y558743D01*
X256424Y551027D01*
X256437Y550617D01*
X256477Y550233D01*
X256544Y549874D01*
X256638Y549540D01*
X256759Y549232D01*
X256906Y548950D01*
X257081Y548693D01*
X257282Y548461D01*
X257508Y548256D01*
X257759Y548078D01*
X258033Y547927D01*
X258331Y547804D01*
X258653Y547708D01*
X258998Y547640D01*
X259367Y547599D01*
X259761Y547585D01*
X260165Y547599D01*
X260546Y547642D01*
X260905Y547713D01*
X261240Y547812D01*
X261552Y547939D01*
X261841Y548095D01*
X262106Y548279D01*
X262349Y548492D01*
X262565Y548731D01*
X262753Y548997D01*
X262912Y549289D01*
X263042Y549607D01*
X263143Y549951D01*
X263215Y550322D01*
X263258Y550718D01*
X263273Y551141D01*
X263273Y558743D01*
X264937Y558743D01*
X264937Y551045D01*
X264927Y550677D01*
X264897Y550322D01*
X264848Y549979D01*
X264778Y549650D01*
X264689Y549333D01*
X264580Y549030D01*
X264451Y548739D01*
X264302Y548461D01*
X264135Y548197D01*
X263952Y547950D01*
X263752Y547718D01*
X263536Y547503D01*
X263303Y547304D01*
X263054Y547120D01*
X262788Y546953D01*
X262506Y546801D01*
X262210Y546667D01*
X261900Y546550D01*
X261578Y546452D01*
X261242Y546371D01*
X260893Y546308D01*
X260532Y546263D01*
X260157Y546237D01*
X259769Y546228D01*
G37*
G36*
X576383Y549308D02*
X576010Y549317D01*
X575649Y549343D01*
X575300Y549386D01*
X574964Y549446D01*
X574639Y549524D01*
X574327Y549619D01*
X574026Y549731D01*
X573738Y549860D01*
X573463Y550006D01*
X573204Y550167D01*
X572962Y550344D01*
X572735Y550537D01*
X572524Y550745D01*
X572329Y550968D01*
X572149Y551208D01*
X571986Y551463D01*
X571840Y551732D01*
X571714Y552013D01*
X571607Y552308D01*
X571520Y552615D01*
X571451Y552934D01*
X571403Y553266D01*
X571374Y553611D01*
X571364Y553968D01*
X571364Y561824D01*
X573037Y561824D01*
X573037Y554108D01*
X573050Y553698D01*
X573091Y553314D01*
X573158Y552955D01*
X573252Y552621D01*
X573372Y552313D01*
X573520Y552030D01*
X573694Y551773D01*
X573895Y551542D01*
X574122Y551336D01*
X574372Y551158D01*
X574646Y551008D01*
X574944Y550885D01*
X575266Y550789D01*
X575611Y550721D01*
X575981Y550679D01*
X576374Y550666D01*
X576778Y550680D01*
X577160Y550722D01*
X577518Y550793D01*
X577853Y550892D01*
X578165Y551020D01*
X578454Y551176D01*
X578720Y551360D01*
X578962Y551572D01*
X579179Y551812D01*
X579366Y552078D01*
X579525Y552370D01*
X579655Y552688D01*
X579756Y553032D01*
X579828Y553403D01*
X579872Y553799D01*
X579886Y554222D01*
X579886Y561824D01*
X581550Y561824D01*
X581550Y554125D01*
X581540Y553757D01*
X581511Y553402D01*
X581461Y553060D01*
X581391Y552731D01*
X581302Y552414D01*
X581193Y552110D01*
X581064Y551820D01*
X580915Y551542D01*
X580748Y551278D01*
X580565Y551031D01*
X580365Y550799D01*
X580149Y550584D01*
X579916Y550384D01*
X579667Y550201D01*
X579402Y550033D01*
X579120Y549882D01*
X578823Y549747D01*
X578513Y549631D01*
X578191Y549532D01*
X577855Y549452D01*
X577507Y549389D01*
X577145Y549344D01*
X576770Y549317D01*
X576383Y549308D01*
G37*
G36*
X587792Y549483D02*
X586146Y549483D01*
X586161Y550078D01*
X586208Y550681D01*
X586287Y551292D01*
X586397Y551911D01*
X586538Y552537D01*
X586710Y553171D01*
X586914Y553813D01*
X587149Y554463D01*
X587420Y555129D01*
X587734Y555819D01*
X588090Y556535D01*
X588488Y557275D01*
X588927Y558040D01*
X589409Y558830D01*
X589933Y559645D01*
X590499Y560484D01*
X583869Y560484D01*
X583869Y561824D01*
X592023Y561824D01*
X592023Y560545D01*
X591146Y559179D01*
X590409Y557968D01*
X589811Y556914D01*
X589351Y556017D01*
X588986Y555201D01*
X588669Y554390D01*
X588401Y553585D01*
X588182Y552785D01*
X588012Y551981D01*
X587890Y551163D01*
X587817Y550330D01*
X587799Y549909D01*
X587792Y549483D01*
G37*
D10*
X880000Y449996D02*
X880000Y463756D01*
X880000Y513236D02*
X880000Y526996D01*
X917220Y526996D01*
X947780Y526996D02*
X972000Y526996D01*
X917220Y449996D02*
X880000Y449996D01*
X947780Y449996D02*
X972000Y449996D01*
X972000Y526996D01*
D11*
X905170Y107487D02*
X862752Y107487D01*
X862752Y160065D02*
X905170Y160065D01*
D10*
X738472Y95009D02*
X738472Y73509D01*
X758954Y73509D02*
X758954Y95009D01*
X767743Y266171D02*
X778743Y266171D01*
X778743Y278891D02*
X767743Y278891D01*
X709139Y112781D02*
X698139Y112781D01*
X698139Y100061D02*
X709139Y100061D01*
X753153Y112789D02*
X764153Y112789D01*
X764153Y125509D02*
X753153Y125509D01*
X903530Y99749D02*
X903530Y88749D01*
X890810Y88749D02*
X890810Y99749D01*
X904825Y99819D02*
X904825Y88819D01*
X917545Y88819D02*
X917545Y99819D01*
X929972Y108793D02*
X940972Y108793D01*
X940972Y96073D02*
X929972Y96073D01*
X804883Y266171D02*
X793883Y266171D01*
X793883Y278891D02*
X804883Y278891D01*
X812877Y123363D02*
X823877Y123363D01*
X823877Y110643D02*
X812877Y110643D01*
X878685Y176723D02*
X889685Y176723D01*
X889685Y164003D02*
X878685Y164003D01*
X929603Y146485D02*
X940603Y146485D01*
X940603Y133765D02*
X929603Y133765D01*
D11*
X787915Y126514D02*
X781111Y126514D01*
X781111Y111528D02*
X787915Y111528D01*
X704448Y78242D02*
X704448Y69352D01*
X704448Y99324D02*
X713846Y99324D01*
X704448Y99324D02*
X704448Y90434D01*
X704448Y69352D02*
X708512Y69352D01*
X713846Y69352D01*
D10*
X988812Y185903D02*
X988812Y275903D01*
X988812Y185903D02*
X844812Y185903D01*
X844812Y275903D02*
X863312Y275903D01*
X844812Y215403D02*
X844812Y185903D01*
X899312Y275903D02*
X988812Y275903D01*
X844812Y275903D02*
X844812Y245403D01*
D11*
X815726Y230305D02*
X757286Y230305D01*
X815726Y230305D02*
X815726Y234698D01*
X815726Y262045D02*
X757286Y262045D01*
X757286Y257652D01*
X757286Y234698D02*
X757286Y230305D01*
X815726Y257652D02*
X815726Y262045D01*
D10*
X732505Y102583D02*
X721505Y102583D01*
X721505Y115155D02*
X732505Y115155D01*
D11*
X719478Y167378D02*
X719478Y179242D01*
X740052Y179242D02*
X740052Y167378D01*
X743832Y16225D02*
X731968Y16225D01*
X731968Y36799D02*
X743832Y36799D01*
X743740Y43227D02*
X731876Y43227D01*
X731876Y63801D02*
X743740Y63801D01*
D10*
X787227Y145519D02*
X786335Y145526D01*
X785443Y145555D01*
X784553Y145605D01*
X783663Y145677D01*
X782776Y145771D01*
X781892Y145886D01*
X781010Y146024D01*
X780132Y146182D01*
X779258Y146362D01*
X778389Y146563D01*
X777525Y146785D01*
X776667Y147029D01*
X775815Y147293D01*
X774970Y147578D01*
X774132Y147884D01*
X773301Y148209D01*
X772479Y148556D01*
X771665Y148922D01*
X770861Y149308D01*
X770066Y149713D01*
X769282Y150138D01*
X768508Y150581D01*
X767745Y151044D01*
X766994Y151525D01*
X766254Y152024D01*
X765527Y152541D01*
X764813Y153076D01*
X764112Y153627D01*
X763425Y154196D01*
X762752Y154782D01*
X762094Y155384D01*
X761450Y156001D01*
X760821Y156635D01*
X760209Y157283D01*
X759612Y157946D01*
X759032Y158624D01*
X758468Y159315D01*
X757921Y160020D01*
X757392Y160738D01*
X756881Y161469D01*
X756387Y162212D01*
X755912Y162967D01*
X755455Y163734D01*
X755018Y164511D01*
X754599Y165299D01*
X754200Y166097D01*
X753820Y166904D01*
X753460Y167720D01*
X753120Y168545D01*
X752801Y169378D01*
X752502Y170218D01*
X752223Y171066D01*
X751965Y171920D01*
X751729Y172780D01*
X751513Y173646D01*
X751318Y174516D01*
X751145Y175391D01*
X750993Y176271D01*
X750863Y177153D01*
X750754Y178039D01*
X750667Y178926D01*
X750602Y179816D01*
X750559Y180707D01*
X750537Y181599D01*
X750537Y182491D01*
X750559Y183383D01*
X750602Y184274D01*
X750667Y185164D01*
X750754Y186051D01*
X750863Y186937D01*
X750993Y187819D01*
X751145Y188699D01*
X751318Y189574D01*
X751513Y190444D01*
X751729Y191310D01*
X751965Y192170D01*
X752223Y193024D01*
X752502Y193872D01*
X752801Y194712D01*
X753120Y195545D01*
X753460Y196370D01*
X753820Y197186D01*
X754200Y197993D01*
X754599Y198791D01*
X755018Y199579D01*
X755455Y200356D01*
X755912Y201123D01*
X756387Y201878D01*
X756881Y202621D01*
X757392Y203352D01*
X757921Y204070D01*
X758468Y204775D01*
X759032Y205466D01*
X759612Y206144D01*
X760209Y206807D01*
X760821Y207455D01*
X761450Y208089D01*
X762094Y208706D01*
X762752Y209308D01*
X763425Y209894D01*
X764112Y210463D01*
X764813Y211014D01*
X765527Y211549D01*
X766254Y212066D01*
X766994Y212565D01*
X767745Y213046D01*
X768508Y213509D01*
X769282Y213952D01*
X770066Y214377D01*
X770861Y214782D01*
X771665Y215168D01*
X772479Y215534D01*
X773301Y215881D01*
X774132Y216206D01*
X774970Y216512D01*
X775815Y216797D01*
X776667Y217061D01*
X777525Y217305D01*
X778389Y217527D01*
X779258Y217728D01*
X780132Y217908D01*
X781010Y218066D01*
X781892Y218204D01*
X782776Y218319D01*
X783663Y218413D01*
X784553Y218485D01*
X785443Y218535D01*
X786335Y218564D01*
X787227Y218571D01*
X787790Y218579D02*
X788682Y218572D01*
X789574Y218543D01*
X790464Y218493D01*
X791354Y218421D01*
X792241Y218327D01*
X793125Y218212D01*
X794007Y218074D01*
X794885Y217916D01*
X795759Y217736D01*
X796628Y217535D01*
X797492Y217313D01*
X798350Y217069D01*
X799202Y216805D01*
X800047Y216520D01*
X800885Y216214D01*
X801716Y215889D01*
X802538Y215542D01*
X803352Y215176D01*
X804156Y214790D01*
X804951Y214385D01*
X805735Y213960D01*
X806509Y213517D01*
X807272Y213054D01*
X808023Y212573D01*
X808763Y212074D01*
X809490Y211557D01*
X810204Y211022D01*
X810905Y210471D01*
X811592Y209902D01*
X812265Y209316D01*
X812923Y208714D01*
X813567Y208097D01*
X814196Y207463D01*
X814808Y206815D01*
X815405Y206152D01*
X815985Y205474D01*
X816549Y204783D01*
X817096Y204078D01*
X817625Y203360D01*
X818136Y202629D01*
X818630Y201886D01*
X819105Y201131D01*
X819562Y200364D01*
X819999Y199587D01*
X820418Y198799D01*
X820817Y198001D01*
X821197Y197194D01*
X821557Y196378D01*
X821897Y195553D01*
X822216Y194720D01*
X822515Y193880D01*
X822794Y193032D01*
X823052Y192178D01*
X823288Y191318D01*
X823504Y190452D01*
X823699Y189582D01*
X823872Y188707D01*
X824024Y187827D01*
X824154Y186945D01*
X824263Y186059D01*
X824350Y185172D01*
X824415Y184282D01*
X824458Y183391D01*
X824480Y182499D01*
X824480Y181607D01*
X824458Y180715D01*
X824415Y179824D01*
X824350Y178934D01*
X824263Y178047D01*
X824154Y177161D01*
X824024Y176279D01*
X823872Y175399D01*
X823699Y174524D01*
X823504Y173654D01*
X823288Y172788D01*
X823052Y171928D01*
X822794Y171074D01*
X822515Y170226D01*
X822216Y169386D01*
X821897Y168553D01*
X821557Y167728D01*
X821197Y166912D01*
X820817Y166105D01*
X820418Y165307D01*
X819999Y164519D01*
X819562Y163742D01*
X819105Y162975D01*
X818630Y162220D01*
X818136Y161477D01*
X817625Y160746D01*
X817096Y160028D01*
X816549Y159323D01*
X815985Y158632D01*
X815405Y157954D01*
X814808Y157291D01*
X814196Y156643D01*
X813567Y156009D01*
X812923Y155392D01*
X812265Y154790D01*
X811592Y154204D01*
X810905Y153635D01*
X810204Y153084D01*
X809490Y152549D01*
X808763Y152032D01*
X808023Y151533D01*
X807272Y151052D01*
X806509Y150589D01*
X805735Y150146D01*
X804951Y149721D01*
X804156Y149316D01*
X803352Y148930D01*
X802538Y148564D01*
X801716Y148217D01*
X800885Y147892D01*
X800047Y147586D01*
X799202Y147301D01*
X798350Y147037D01*
X797492Y146793D01*
X796628Y146571D01*
X795759Y146370D01*
X794885Y146190D01*
X794007Y146032D01*
X793125Y145894D01*
X792241Y145779D01*
X791354Y145685D01*
X790464Y145613D01*
X789574Y145563D01*
X788682Y145534D01*
X787790Y145527D01*
X747179Y183240D02*
X747179Y223732D01*
X747170Y182823D02*
X747170Y142330D01*
X747265Y142325D02*
X787758Y142325D01*
X787772Y142329D02*
X828264Y142329D01*
X828265Y142426D02*
X828265Y182919D01*
X828274Y183249D02*
X828274Y223742D01*
X787749Y223810D02*
X747256Y223810D01*
X787763Y223806D02*
X828255Y223806D01*
D11*
X852995Y95744D02*
X769571Y96013D01*
X852995Y95744D02*
X852995Y19915D01*
X769571Y20185D01*
X769571Y96013D01*
X348638Y192391D02*
X344320Y192391D01*
X348638Y328281D02*
X348638Y332599D01*
X212748Y332599D02*
X208430Y332599D01*
X348638Y196709D02*
X348638Y192391D01*
X348638Y332599D02*
X344320Y332599D01*
X208430Y332599D02*
X208430Y328281D01*
D10*
X208430Y204837D02*
X220876Y192391D01*
X208430Y204837D02*
X208430Y205091D01*
D11*
X639359Y130560D02*
X639359Y105160D01*
D10*
X639359Y130560D02*
X512359Y130560D01*
X512359Y105160D01*
X525059Y105160D01*
X550459Y105160D01*
X575859Y105160D01*
X601259Y105160D01*
X626659Y105160D01*
X639359Y105160D01*
D11*
X495870Y98776D02*
X470470Y98776D01*
X470470Y73376D01*
X495870Y73376D01*
X495870Y98776D01*
X470470Y98776D02*
X445070Y98776D01*
X445070Y73376D01*
X470470Y73376D01*
D12*
X483170Y70836D03*
X457770Y70836D03*
D13*
X483170Y103856D03*
X457770Y103856D03*
D10*
X491891Y604183D02*
X525891Y604183D01*
X525891Y529183D02*
X491891Y529183D01*
X546391Y549683D02*
X546391Y583683D01*
X471391Y583683D02*
X471391Y549683D01*
X606207Y602115D02*
X617207Y602115D01*
X617207Y589395D02*
X606207Y589395D01*
D11*
X421088Y607987D02*
X421088Y549547D01*
X425481Y549547D01*
X452828Y549547D02*
X452828Y607987D01*
X448435Y607987D01*
X425481Y607987D02*
X421088Y607987D01*
X448435Y549547D02*
X452828Y549547D01*
X275468Y534424D02*
X215910Y534424D01*
X281442Y534424D02*
X340878Y534424D01*
X938049Y432076D02*
X944853Y432076D01*
X944853Y417090D02*
X938049Y417090D01*
X938043Y305932D02*
X944847Y305932D01*
X944847Y290946D02*
X938043Y290946D01*
X938027Y323988D02*
X944831Y323988D01*
X944831Y309002D02*
X938027Y309002D01*
X938049Y341974D02*
X944853Y341974D01*
X944853Y326988D02*
X938049Y326988D01*
X938049Y360167D02*
X944853Y360167D01*
X944853Y345181D02*
X938049Y345181D01*
X938049Y378155D02*
X944853Y378155D01*
X944853Y363169D02*
X938049Y363169D01*
X938049Y396105D02*
X944853Y396105D01*
X944853Y381119D02*
X938049Y381119D01*
X938049Y414140D02*
X944853Y414140D01*
X944853Y399154D02*
X938049Y399154D01*
D10*
X915951Y430943D02*
X904951Y430943D01*
X904951Y418223D02*
X915951Y418223D01*
X915951Y413007D02*
X904951Y413007D01*
X904951Y400287D02*
X915951Y400287D01*
X915951Y394972D02*
X904951Y394972D01*
X904951Y382252D02*
X915951Y382252D01*
X915951Y377022D02*
X904951Y377022D01*
X904951Y364302D02*
X915951Y364302D01*
X915951Y359034D02*
X904951Y359034D01*
X904951Y346314D02*
X915951Y346314D01*
X915951Y340841D02*
X904951Y340841D01*
X904951Y328121D02*
X915951Y328121D01*
X915951Y322855D02*
X904951Y322855D01*
X904951Y310135D02*
X915951Y310135D01*
X915951Y304799D02*
X904951Y304799D01*
X904951Y292079D02*
X915951Y292079D01*
M02*
