G04 EAGLE Gerber RS-274X export*
G75*
%MOMM*%
%FSLAX34Y34*%
%LPD*%
%INSilkscreen Bottom*%
%IPPOS*%
%AMOC8*
5,1,8,0,0,1.08239X$1,22.5*%
G01*
G04 Define Apertures*
%ADD10C,0.152400*%
%ADD11C,0.127000*%
%ADD12C,0.200000*%
%ADD13C,0.254000*%
G36*
X519777Y476747D02*
X512043Y476747D01*
X512043Y478087D01*
X515047Y478087D01*
X515047Y489088D01*
X516501Y489088D01*
X519418Y487082D01*
X519418Y485593D01*
X516632Y487582D01*
X516632Y478087D01*
X519777Y478087D01*
X519777Y476747D01*
G37*
G36*
X526109Y476572D02*
X525698Y476588D01*
X525309Y476636D01*
X524942Y476717D01*
X524598Y476829D01*
X524277Y476974D01*
X523977Y477151D01*
X523701Y477360D01*
X523446Y477601D01*
X523219Y477870D01*
X523021Y478164D01*
X522854Y478481D01*
X522717Y478822D01*
X522611Y479187D01*
X522535Y479576D01*
X522489Y479989D01*
X522474Y480426D01*
X522474Y489088D01*
X526512Y489088D01*
X526512Y487722D01*
X524138Y487722D01*
X524138Y480391D01*
X524147Y480098D01*
X524171Y479823D01*
X524212Y479566D01*
X524270Y479328D01*
X524344Y479107D01*
X524434Y478905D01*
X524541Y478722D01*
X524664Y478556D01*
X524801Y478409D01*
X524951Y478282D01*
X525112Y478174D01*
X525286Y478086D01*
X525471Y478018D01*
X525669Y477969D01*
X525879Y477939D01*
X526100Y477930D01*
X526304Y477939D01*
X526499Y477965D01*
X526685Y478010D01*
X526862Y478072D01*
X527031Y478152D01*
X527191Y478250D01*
X527342Y478366D01*
X527484Y478499D01*
X527616Y478648D01*
X527735Y478812D01*
X527843Y478989D01*
X527937Y479180D01*
X528020Y479385D01*
X528090Y479604D01*
X528148Y479837D01*
X528194Y480084D01*
X529831Y479813D01*
X529748Y479420D01*
X529645Y479053D01*
X529522Y478711D01*
X529379Y478395D01*
X529216Y478104D01*
X529033Y477838D01*
X528830Y477597D01*
X528607Y477382D01*
X528365Y477192D01*
X528102Y477028D01*
X527820Y476889D01*
X527518Y476775D01*
X527195Y476686D01*
X526853Y476623D01*
X526491Y476585D01*
X526109Y476572D01*
G37*
G36*
X434101Y520428D02*
X432988Y520428D01*
X432988Y528600D01*
X434329Y528600D01*
X434329Y522163D01*
X434638Y522315D01*
X434954Y522509D01*
X435275Y522744D01*
X435603Y523021D01*
X435944Y523345D01*
X436305Y523719D01*
X436686Y524146D01*
X437087Y524624D01*
X437783Y525465D01*
X438382Y526159D01*
X438882Y526705D01*
X439286Y527102D01*
X439641Y527407D01*
X439995Y527671D01*
X440350Y527895D01*
X440705Y528079D01*
X441060Y528223D01*
X441416Y528325D01*
X441774Y528387D01*
X442132Y528408D01*
X442526Y528392D01*
X442896Y528345D01*
X443244Y528266D01*
X443568Y528157D01*
X443869Y528016D01*
X444147Y527843D01*
X444401Y527640D01*
X444633Y527405D01*
X444839Y527140D01*
X445018Y526849D01*
X445169Y526531D01*
X445293Y526186D01*
X445389Y525814D01*
X445458Y525415D01*
X445499Y524989D01*
X445513Y524536D01*
X445500Y524121D01*
X445458Y523725D01*
X445390Y523349D01*
X445294Y522991D01*
X445171Y522653D01*
X445021Y522335D01*
X444843Y522035D01*
X444637Y521755D01*
X444409Y521499D01*
X444162Y521271D01*
X443895Y521072D01*
X443610Y520900D01*
X443306Y520757D01*
X442984Y520643D01*
X442642Y520556D01*
X442281Y520499D01*
X442132Y522110D01*
X442373Y522147D01*
X442600Y522201D01*
X442812Y522271D01*
X443012Y522359D01*
X443197Y522463D01*
X443368Y522584D01*
X443526Y522722D01*
X443670Y522876D01*
X443798Y523045D01*
X443909Y523225D01*
X444003Y523416D01*
X444080Y523618D01*
X444140Y523831D01*
X444183Y524055D01*
X444208Y524290D01*
X444217Y524536D01*
X444208Y524794D01*
X444182Y525037D01*
X444138Y525266D01*
X444077Y525480D01*
X443998Y525680D01*
X443902Y525865D01*
X443788Y526035D01*
X443656Y526192D01*
X443509Y526331D01*
X443348Y526452D01*
X443172Y526555D01*
X442982Y526638D01*
X442778Y526703D01*
X442559Y526750D01*
X442327Y526778D01*
X442080Y526787D01*
X441713Y526766D01*
X441366Y526701D01*
X441039Y526593D01*
X440731Y526441D01*
X440437Y526255D01*
X440149Y526042D01*
X439867Y525802D01*
X439592Y525535D01*
X439049Y524940D01*
X438506Y524278D01*
X437940Y523578D01*
X437328Y522872D01*
X437002Y522521D01*
X436656Y522179D01*
X436292Y521845D01*
X435909Y521519D01*
X435502Y521209D01*
X435065Y520924D01*
X434598Y520664D01*
X434101Y520428D01*
G37*
G36*
X436054Y510838D02*
X435662Y510921D01*
X435294Y511024D01*
X434953Y511148D01*
X434636Y511291D01*
X434345Y511454D01*
X434079Y511636D01*
X433839Y511839D01*
X433623Y512062D01*
X433434Y512304D01*
X433269Y512567D01*
X433130Y512849D01*
X433016Y513152D01*
X432927Y513474D01*
X432864Y513816D01*
X432826Y514178D01*
X432813Y514560D01*
X432829Y514972D01*
X432878Y515361D01*
X432958Y515727D01*
X433071Y516071D01*
X433215Y516393D01*
X433392Y516692D01*
X433601Y516969D01*
X433842Y517223D01*
X434112Y517451D01*
X434405Y517648D01*
X434722Y517815D01*
X435063Y517952D01*
X435428Y518058D01*
X435817Y518134D01*
X436230Y518180D01*
X436667Y518195D01*
X445329Y518195D01*
X445329Y514157D01*
X443963Y514157D01*
X443963Y516531D01*
X436632Y516531D01*
X436339Y516523D01*
X436064Y516498D01*
X435807Y516457D01*
X435569Y516400D01*
X435349Y516326D01*
X435147Y516235D01*
X434963Y516129D01*
X434797Y516005D01*
X434650Y515868D01*
X434523Y515719D01*
X434415Y515557D01*
X434327Y515384D01*
X434259Y515198D01*
X434210Y515000D01*
X434181Y514791D01*
X434171Y514569D01*
X434180Y514365D01*
X434206Y514170D01*
X434251Y513984D01*
X434313Y513807D01*
X434393Y513638D01*
X434491Y513479D01*
X434607Y513327D01*
X434740Y513185D01*
X434889Y513053D01*
X435053Y512934D01*
X435230Y512827D01*
X435421Y512732D01*
X435626Y512649D01*
X435845Y512579D01*
X436078Y512521D01*
X436325Y512476D01*
X436054Y510838D01*
G37*
G36*
X693999Y382515D02*
X693611Y382524D01*
X693237Y382551D01*
X692875Y382596D01*
X692527Y382659D01*
X692191Y382739D01*
X691868Y382838D01*
X691559Y382954D01*
X691262Y383089D01*
X690980Y383240D01*
X690715Y383408D01*
X690466Y383591D01*
X690233Y383791D01*
X690017Y384006D01*
X689817Y384238D01*
X689633Y384485D01*
X689466Y384749D01*
X689318Y385026D01*
X689189Y385317D01*
X689080Y385621D01*
X688990Y385938D01*
X688921Y386267D01*
X688871Y386609D01*
X688841Y386964D01*
X688831Y387332D01*
X688831Y395031D01*
X690496Y395031D01*
X690496Y387429D01*
X690510Y387006D01*
X690553Y386609D01*
X690626Y386239D01*
X690727Y385895D01*
X690857Y385577D01*
X691015Y385285D01*
X691203Y385019D01*
X691420Y384779D01*
X691662Y384567D01*
X691928Y384383D01*
X692217Y384227D01*
X692529Y384099D01*
X692864Y384000D01*
X693222Y383929D01*
X693603Y383887D01*
X694008Y383873D01*
X694401Y383886D01*
X694770Y383927D01*
X695116Y383996D01*
X695438Y384092D01*
X695736Y384215D01*
X696010Y384365D01*
X696260Y384543D01*
X696486Y384749D01*
X696688Y384980D01*
X696862Y385237D01*
X697010Y385520D01*
X697130Y385828D01*
X697224Y386162D01*
X697291Y386521D01*
X697331Y386905D01*
X697345Y387315D01*
X697345Y395031D01*
X699018Y395031D01*
X699018Y387175D01*
X699008Y386817D01*
X698979Y386473D01*
X698930Y386141D01*
X698862Y385821D01*
X698775Y385515D01*
X698668Y385220D01*
X698542Y384939D01*
X698396Y384670D01*
X698232Y384415D01*
X698053Y384175D01*
X697858Y383952D01*
X697647Y383743D01*
X697420Y383551D01*
X697177Y383374D01*
X696919Y383213D01*
X696644Y383067D01*
X696356Y382938D01*
X696055Y382825D01*
X695743Y382731D01*
X695418Y382653D01*
X695081Y382593D01*
X694733Y382550D01*
X694372Y382524D01*
X693999Y382515D01*
G37*
G36*
X686066Y382690D02*
X678333Y382690D01*
X678333Y384030D01*
X681337Y384030D01*
X681337Y395031D01*
X682791Y395031D01*
X685707Y393025D01*
X685707Y391536D01*
X682922Y393525D01*
X682922Y384030D01*
X686066Y384030D01*
X686066Y382690D01*
G37*
G36*
X800987Y430043D02*
X800697Y430059D01*
X800427Y430105D01*
X800176Y430183D01*
X799946Y430292D01*
X799738Y430429D01*
X799556Y430594D01*
X799399Y430785D01*
X799269Y431004D01*
X799165Y431245D01*
X799092Y431506D01*
X799047Y431785D01*
X799033Y432084D01*
X799047Y432384D01*
X799091Y432663D01*
X799164Y432921D01*
X799266Y433159D01*
X799395Y433373D01*
X799551Y433560D01*
X799733Y433720D01*
X799940Y433853D01*
X800171Y433958D01*
X800421Y434032D01*
X800692Y434077D01*
X800982Y434092D01*
X801206Y434084D01*
X801417Y434059D01*
X801616Y434017D01*
X801802Y433959D01*
X801975Y433884D01*
X802136Y433793D01*
X802284Y433685D01*
X802420Y433560D01*
X802541Y433421D01*
X802646Y433268D01*
X802735Y433103D01*
X802807Y432925D01*
X802864Y432734D01*
X802904Y432530D01*
X802928Y432314D01*
X802936Y432084D01*
X802922Y431784D01*
X802878Y431503D01*
X802806Y431242D01*
X802705Y430999D01*
X802576Y430781D01*
X802421Y430589D01*
X802240Y430425D01*
X802033Y430289D01*
X801803Y430181D01*
X801552Y430105D01*
X801280Y430058D01*
X800987Y430043D01*
G37*
%LPC*%
G36*
X800987Y430476D02*
X801148Y430483D01*
X801300Y430503D01*
X801443Y430537D01*
X801577Y430584D01*
X801702Y430646D01*
X801817Y430720D01*
X802022Y430910D01*
X802185Y431146D01*
X802302Y431421D01*
X802371Y431733D01*
X802395Y432084D01*
X802372Y432436D01*
X802303Y432747D01*
X802187Y433016D01*
X802026Y433243D01*
X801823Y433424D01*
X801706Y433495D01*
X801581Y433553D01*
X801445Y433598D01*
X801300Y433631D01*
X801146Y433650D01*
X800982Y433656D01*
X800819Y433650D01*
X800666Y433630D01*
X800522Y433598D01*
X800387Y433552D01*
X800262Y433493D01*
X800147Y433421D01*
X799944Y433238D01*
X799784Y433008D01*
X799669Y432740D01*
X799600Y432432D01*
X799577Y432084D01*
X799600Y431722D01*
X799668Y431403D01*
X799782Y431128D01*
X799942Y430896D01*
X800144Y430712D01*
X800259Y430640D01*
X800385Y430581D01*
X800521Y430535D01*
X800666Y430502D01*
X800822Y430482D01*
X800987Y430476D01*
G37*
%LPD*%
G36*
X796843Y430043D02*
X796478Y430062D01*
X796156Y430118D01*
X795878Y430211D01*
X795644Y430342D01*
X795457Y430507D01*
X795324Y430702D01*
X795278Y430811D01*
X795245Y430928D01*
X795225Y431053D01*
X795218Y431185D01*
X795233Y431386D01*
X795278Y431559D01*
X795349Y431708D01*
X795444Y431836D01*
X795560Y431944D01*
X795694Y432034D01*
X796003Y432175D01*
X796347Y432278D01*
X796709Y432364D01*
X797161Y432474D01*
X797432Y432566D01*
X797592Y432657D01*
X797710Y432767D01*
X797782Y432901D01*
X797806Y433067D01*
X797791Y433213D01*
X797744Y433339D01*
X797667Y433446D01*
X797558Y433534D01*
X797420Y433602D01*
X797254Y433651D01*
X797059Y433680D01*
X796837Y433690D01*
X796634Y433681D01*
X796454Y433655D01*
X796298Y433611D01*
X796165Y433549D01*
X796053Y433468D01*
X795961Y433365D01*
X795888Y433241D01*
X795835Y433095D01*
X795310Y433187D01*
X795395Y433416D01*
X795506Y433609D01*
X795643Y433766D01*
X795807Y433887D01*
X796004Y433977D01*
X796241Y434041D01*
X796517Y434079D01*
X796832Y434092D01*
X797171Y434075D01*
X797469Y434024D01*
X797725Y433938D01*
X797939Y433818D01*
X798108Y433667D01*
X798229Y433487D01*
X798302Y433278D01*
X798326Y433039D01*
X798307Y432831D01*
X798252Y432648D01*
X798161Y432489D01*
X798038Y432351D01*
X797873Y432230D01*
X797657Y432121D01*
X797359Y432017D01*
X796949Y431914D01*
X796461Y431799D01*
X796255Y431740D01*
X796081Y431668D01*
X795939Y431580D01*
X795834Y431470D01*
X795768Y431332D01*
X795746Y431157D01*
X795763Y430996D01*
X795816Y430855D01*
X795904Y430736D01*
X796026Y430636D01*
X796181Y430559D01*
X796366Y430503D01*
X796580Y430470D01*
X796824Y430459D01*
X797060Y430470D01*
X797271Y430501D01*
X797455Y430553D01*
X797614Y430625D01*
X797746Y430720D01*
X797854Y430839D01*
X797936Y430981D01*
X797994Y431146D01*
X798510Y431043D01*
X798434Y430808D01*
X798320Y430605D01*
X798168Y430434D01*
X797979Y430293D01*
X797752Y430184D01*
X797487Y430106D01*
X797184Y430059D01*
X796843Y430043D01*
G37*
G36*
X792749Y430043D02*
X792467Y430060D01*
X792203Y430109D01*
X791957Y430192D01*
X791728Y430308D01*
X791520Y430456D01*
X791337Y430634D01*
X791179Y430843D01*
X791045Y431082D01*
X791481Y431300D01*
X791591Y431108D01*
X791714Y430942D01*
X791851Y430801D01*
X791999Y430686D01*
X792161Y430597D01*
X792336Y430533D01*
X792523Y430494D01*
X792723Y430481D01*
X792880Y430488D01*
X793029Y430509D01*
X793170Y430543D01*
X793302Y430591D01*
X793426Y430653D01*
X793541Y430729D01*
X793747Y430921D01*
X793912Y431159D01*
X794031Y431432D01*
X794102Y431740D01*
X794125Y432084D01*
X794102Y432431D01*
X794034Y432738D01*
X793921Y433007D01*
X793762Y433236D01*
X793562Y433420D01*
X793327Y433551D01*
X793195Y433597D01*
X793054Y433630D01*
X792905Y433650D01*
X792746Y433656D01*
X792545Y433645D01*
X792358Y433611D01*
X792185Y433554D01*
X792027Y433475D01*
X791886Y433374D01*
X791765Y433253D01*
X791666Y433112D01*
X791587Y432950D01*
X791081Y433117D01*
X791195Y433344D01*
X791336Y433541D01*
X791505Y433709D01*
X791701Y433846D01*
X791925Y433954D01*
X792175Y434031D01*
X792450Y434077D01*
X792751Y434092D01*
X792970Y434084D01*
X793176Y434059D01*
X793371Y434017D01*
X793553Y433959D01*
X793723Y433884D01*
X793880Y433792D01*
X794026Y433684D01*
X794159Y433559D01*
X794278Y433419D01*
X794381Y433267D01*
X794468Y433101D01*
X794540Y432923D01*
X794595Y432733D01*
X794635Y432529D01*
X794659Y432313D01*
X794667Y432084D01*
X794653Y431781D01*
X794610Y431498D01*
X794539Y431237D01*
X794439Y430997D01*
X794313Y430780D01*
X794160Y430590D01*
X793982Y430427D01*
X793778Y430290D01*
X793550Y430182D01*
X793303Y430105D01*
X793036Y430059D01*
X792749Y430043D01*
G37*
G36*
X790545Y430099D02*
X787939Y430099D01*
X787939Y430526D01*
X789992Y430526D01*
X789881Y430725D01*
X789718Y430932D01*
X789495Y431156D01*
X789207Y431406D01*
X788718Y431818D01*
X788417Y432107D01*
X788236Y432333D01*
X788106Y432559D01*
X788027Y432786D01*
X788007Y432900D01*
X788001Y433014D01*
X788021Y433258D01*
X788081Y433472D01*
X788181Y433656D01*
X788321Y433811D01*
X788498Y433934D01*
X788709Y434022D01*
X788955Y434074D01*
X789235Y434092D01*
X789494Y434075D01*
X789728Y434022D01*
X789937Y433935D01*
X790122Y433813D01*
X790276Y433661D01*
X790394Y433485D01*
X790476Y433286D01*
X790522Y433062D01*
X790009Y433014D01*
X789980Y433163D01*
X789929Y433294D01*
X789857Y433408D01*
X789764Y433504D01*
X789653Y433581D01*
X789528Y433635D01*
X789389Y433668D01*
X789235Y433679D01*
X789075Y433668D01*
X788934Y433634D01*
X788811Y433578D01*
X788707Y433500D01*
X788624Y433402D01*
X788565Y433285D01*
X788529Y433150D01*
X788517Y432997D01*
X788524Y432880D01*
X788545Y432770D01*
X788628Y432567D01*
X788755Y432382D01*
X788917Y432204D01*
X789317Y431858D01*
X789766Y431483D01*
X789987Y431268D01*
X790197Y431030D01*
X790387Y430761D01*
X790545Y430454D01*
X790545Y430099D01*
G37*
G36*
X780109Y557504D02*
X779819Y557520D01*
X779548Y557567D01*
X779298Y557644D01*
X779067Y557753D01*
X778860Y557891D01*
X778678Y558055D01*
X778521Y558247D01*
X778390Y558465D01*
X778287Y558706D01*
X778213Y558967D01*
X778169Y559247D01*
X778154Y559546D01*
X778169Y559845D01*
X778213Y560124D01*
X778285Y560383D01*
X778387Y560621D01*
X778517Y560835D01*
X778673Y561022D01*
X778854Y561182D01*
X779062Y561315D01*
X779292Y561419D01*
X779543Y561494D01*
X779813Y561538D01*
X780103Y561553D01*
X780327Y561545D01*
X780539Y561520D01*
X780738Y561479D01*
X780924Y561420D01*
X781097Y561346D01*
X781258Y561254D01*
X781406Y561146D01*
X781541Y561021D01*
X781663Y560882D01*
X781767Y560730D01*
X781856Y560565D01*
X781929Y560386D01*
X781985Y560196D01*
X782026Y559992D01*
X782050Y559775D01*
X782058Y559546D01*
X782044Y559245D01*
X782000Y558964D01*
X781928Y558703D01*
X781826Y558461D01*
X781697Y558242D01*
X781543Y558051D01*
X781362Y557887D01*
X781155Y557750D01*
X780924Y557643D01*
X780673Y557566D01*
X780402Y557520D01*
X780109Y557504D01*
G37*
%LPC*%
G36*
X780109Y557937D02*
X780270Y557944D01*
X780422Y557964D01*
X780565Y557998D01*
X780699Y558046D01*
X780823Y558107D01*
X780939Y558181D01*
X781144Y558371D01*
X781307Y558608D01*
X781423Y558882D01*
X781493Y559195D01*
X781516Y559546D01*
X781493Y559898D01*
X781424Y560208D01*
X781309Y560477D01*
X781148Y560704D01*
X780944Y560885D01*
X780828Y560956D01*
X780702Y561014D01*
X780567Y561060D01*
X780422Y561092D01*
X780268Y561111D01*
X780103Y561118D01*
X779941Y561111D01*
X779787Y561092D01*
X779643Y561059D01*
X779509Y561013D01*
X779384Y560954D01*
X779269Y560882D01*
X779066Y560699D01*
X778905Y560470D01*
X778791Y560201D01*
X778722Y559893D01*
X778699Y559546D01*
X778722Y559183D01*
X778790Y558865D01*
X778904Y558589D01*
X779063Y558357D01*
X779265Y558174D01*
X779381Y558101D01*
X779507Y558042D01*
X779643Y557996D01*
X779788Y557964D01*
X779944Y557944D01*
X780109Y557937D01*
G37*
%LPD*%
G36*
X775965Y557504D02*
X775600Y557523D01*
X775278Y557579D01*
X775000Y557672D01*
X774765Y557803D01*
X774579Y557968D01*
X774446Y558163D01*
X774399Y558273D01*
X774366Y558390D01*
X774346Y558514D01*
X774340Y558647D01*
X774355Y558848D01*
X774400Y559021D01*
X774471Y559169D01*
X774566Y559297D01*
X774681Y559405D01*
X774816Y559495D01*
X775124Y559636D01*
X775469Y559740D01*
X775831Y559825D01*
X776282Y559936D01*
X776554Y560027D01*
X776714Y560119D01*
X776832Y560228D01*
X776904Y560363D01*
X776928Y560529D01*
X776913Y560674D01*
X776866Y560800D01*
X776788Y560907D01*
X776680Y560995D01*
X776541Y561063D01*
X776375Y561112D01*
X776181Y561141D01*
X775959Y561151D01*
X775756Y561142D01*
X775576Y561116D01*
X775419Y561072D01*
X775286Y561010D01*
X775174Y560929D01*
X775082Y560826D01*
X775010Y560702D01*
X774957Y560556D01*
X774432Y560649D01*
X774516Y560878D01*
X774627Y561071D01*
X774765Y561227D01*
X774929Y561348D01*
X775126Y561438D01*
X775362Y561502D01*
X775638Y561541D01*
X775954Y561553D01*
X776293Y561536D01*
X776591Y561485D01*
X776846Y561399D01*
X777061Y561280D01*
X777230Y561128D01*
X777351Y560948D01*
X777423Y560739D01*
X777447Y560501D01*
X777429Y560293D01*
X777373Y560110D01*
X777283Y559950D01*
X777160Y559812D01*
X776995Y559691D01*
X776779Y559582D01*
X776481Y559479D01*
X776071Y559375D01*
X775582Y559261D01*
X775377Y559201D01*
X775202Y559130D01*
X775061Y559041D01*
X774955Y558931D01*
X774889Y558793D01*
X774867Y558619D01*
X774885Y558457D01*
X774937Y558317D01*
X775025Y558197D01*
X775148Y558098D01*
X775303Y558020D01*
X775488Y557965D01*
X775702Y557932D01*
X775945Y557920D01*
X776182Y557931D01*
X776393Y557962D01*
X776577Y558014D01*
X776735Y558087D01*
X776868Y558181D01*
X776976Y558300D01*
X777058Y558442D01*
X777115Y558607D01*
X777632Y558504D01*
X777556Y558270D01*
X777442Y558067D01*
X777290Y557895D01*
X777100Y557754D01*
X776873Y557645D01*
X776608Y557567D01*
X776305Y557520D01*
X775965Y557504D01*
G37*
G36*
X771870Y557504D02*
X771589Y557521D01*
X771325Y557571D01*
X771078Y557654D01*
X770850Y557770D01*
X770642Y557918D01*
X770459Y558096D01*
X770301Y558304D01*
X770167Y558543D01*
X770602Y558761D01*
X770713Y558569D01*
X770836Y558403D01*
X770972Y558262D01*
X771121Y558147D01*
X771283Y558058D01*
X771457Y557994D01*
X771645Y557956D01*
X771845Y557943D01*
X772002Y557950D01*
X772151Y557970D01*
X772291Y558005D01*
X772423Y558053D01*
X772547Y558115D01*
X772663Y558190D01*
X772868Y558383D01*
X773034Y558620D01*
X773152Y558893D01*
X773223Y559202D01*
X773247Y559546D01*
X773224Y559892D01*
X773156Y560199D01*
X773043Y560468D01*
X772884Y560697D01*
X772684Y560881D01*
X772448Y561013D01*
X772317Y561059D01*
X772176Y561091D01*
X772026Y561111D01*
X771867Y561118D01*
X771666Y561106D01*
X771480Y561072D01*
X771307Y561016D01*
X771148Y560936D01*
X771007Y560835D01*
X770887Y560714D01*
X770787Y560573D01*
X770709Y560411D01*
X770203Y560579D01*
X770316Y560806D01*
X770457Y561003D01*
X770626Y561170D01*
X770823Y561308D01*
X771047Y561415D01*
X771296Y561492D01*
X771572Y561538D01*
X771873Y561553D01*
X772092Y561545D01*
X772298Y561520D01*
X772492Y561478D01*
X772674Y561420D01*
X772844Y561345D01*
X773002Y561253D01*
X773147Y561145D01*
X773280Y561020D01*
X773399Y560880D01*
X773503Y560728D01*
X773590Y560563D01*
X773661Y560385D01*
X773717Y560194D01*
X773757Y559991D01*
X773781Y559775D01*
X773789Y559546D01*
X773774Y559242D01*
X773732Y558960D01*
X773660Y558698D01*
X773561Y558458D01*
X773434Y558242D01*
X773282Y558052D01*
X773103Y557888D01*
X772899Y557752D01*
X772672Y557643D01*
X772425Y557566D01*
X772158Y557520D01*
X771870Y557504D01*
G37*
G36*
X769518Y557560D02*
X767053Y557560D01*
X767053Y557988D01*
X768010Y557988D01*
X768010Y561495D01*
X768474Y561495D01*
X769404Y560855D01*
X769404Y560381D01*
X768516Y561014D01*
X768516Y557988D01*
X769518Y557988D01*
X769518Y557560D01*
G37*
D10*
X487666Y444178D02*
X487666Y458432D01*
X487666Y174968D02*
X503515Y174968D01*
X487666Y174968D02*
X487666Y189222D01*
X487666Y458432D02*
X503515Y458432D01*
X546948Y458432D02*
X561834Y458432D01*
X561834Y174968D01*
X546948Y174968D01*
D11*
X473474Y182734D02*
X473476Y182865D01*
X473482Y182997D01*
X473492Y183128D01*
X473506Y183258D01*
X473524Y183388D01*
X473546Y183518D01*
X473571Y183647D01*
X473601Y183775D01*
X473635Y183902D01*
X473672Y184028D01*
X473713Y184153D01*
X473758Y184276D01*
X473807Y184398D01*
X473859Y184519D01*
X473915Y184638D01*
X473975Y184755D01*
X474038Y184870D01*
X474104Y184983D01*
X474174Y185094D01*
X474247Y185204D01*
X474324Y185310D01*
X474404Y185415D01*
X474487Y185517D01*
X474573Y185616D01*
X474662Y185713D01*
X474754Y185807D01*
X474848Y185898D01*
X474946Y185986D01*
X475046Y186071D01*
X475148Y186153D01*
X475253Y186232D01*
X475361Y186308D01*
X475470Y186381D01*
X475582Y186450D01*
X475696Y186515D01*
X475811Y186578D01*
X475929Y186636D01*
X476048Y186691D01*
X476169Y186743D01*
X476292Y186791D01*
X476415Y186835D01*
X476540Y186875D01*
X476667Y186911D01*
X476794Y186944D01*
X476922Y186972D01*
X477051Y186997D01*
X477181Y187018D01*
X477311Y187035D01*
X477442Y187048D01*
X477573Y187057D01*
X477704Y187062D01*
X477836Y187063D01*
X477967Y187060D01*
X478098Y187053D01*
X478229Y187042D01*
X478360Y187027D01*
X478490Y187008D01*
X478619Y186985D01*
X478748Y186959D01*
X478876Y186928D01*
X479003Y186893D01*
X479128Y186855D01*
X479253Y186813D01*
X479376Y186767D01*
X479497Y186718D01*
X479618Y186664D01*
X479736Y186607D01*
X479853Y186547D01*
X479967Y186483D01*
X480080Y186416D01*
X480191Y186345D01*
X480299Y186271D01*
X480406Y186193D01*
X480509Y186113D01*
X480611Y186029D01*
X480709Y185942D01*
X480805Y185853D01*
X480899Y185760D01*
X480989Y185665D01*
X481077Y185567D01*
X481161Y185466D01*
X481242Y185363D01*
X481321Y185257D01*
X481396Y185149D01*
X481467Y185039D01*
X481535Y184927D01*
X481600Y184813D01*
X481662Y184696D01*
X481719Y184578D01*
X481774Y184459D01*
X481824Y184337D01*
X481871Y184215D01*
X481914Y184090D01*
X481953Y183965D01*
X481989Y183839D01*
X482020Y183711D01*
X482048Y183583D01*
X482072Y183453D01*
X482092Y183323D01*
X482108Y183193D01*
X482120Y183062D01*
X482128Y182931D01*
X482132Y182800D01*
X482132Y182668D01*
X482128Y182537D01*
X482120Y182406D01*
X482108Y182275D01*
X482092Y182145D01*
X482072Y182015D01*
X482048Y181885D01*
X482020Y181757D01*
X481989Y181629D01*
X481953Y181503D01*
X481914Y181378D01*
X481871Y181253D01*
X481824Y181131D01*
X481774Y181009D01*
X481719Y180890D01*
X481662Y180772D01*
X481600Y180655D01*
X481535Y180541D01*
X481467Y180429D01*
X481396Y180319D01*
X481321Y180211D01*
X481242Y180105D01*
X481161Y180002D01*
X481077Y179901D01*
X480989Y179803D01*
X480899Y179708D01*
X480805Y179615D01*
X480709Y179526D01*
X480611Y179439D01*
X480509Y179355D01*
X480406Y179275D01*
X480299Y179197D01*
X480191Y179123D01*
X480080Y179052D01*
X479968Y178985D01*
X479853Y178921D01*
X479736Y178861D01*
X479618Y178804D01*
X479497Y178750D01*
X479376Y178701D01*
X479253Y178655D01*
X479128Y178613D01*
X479003Y178575D01*
X478876Y178540D01*
X478748Y178509D01*
X478619Y178483D01*
X478490Y178460D01*
X478360Y178441D01*
X478229Y178426D01*
X478098Y178415D01*
X477967Y178408D01*
X477836Y178405D01*
X477704Y178406D01*
X477573Y178411D01*
X477442Y178420D01*
X477311Y178433D01*
X477181Y178450D01*
X477051Y178471D01*
X476922Y178496D01*
X476794Y178524D01*
X476667Y178557D01*
X476540Y178593D01*
X476415Y178633D01*
X476292Y178677D01*
X476169Y178725D01*
X476048Y178777D01*
X475929Y178832D01*
X475811Y178890D01*
X475696Y178953D01*
X475582Y179018D01*
X475470Y179087D01*
X475361Y179160D01*
X475253Y179236D01*
X475148Y179315D01*
X475046Y179397D01*
X474946Y179482D01*
X474848Y179570D01*
X474754Y179661D01*
X474662Y179755D01*
X474573Y179852D01*
X474487Y179951D01*
X474404Y180053D01*
X474324Y180158D01*
X474247Y180264D01*
X474174Y180374D01*
X474104Y180485D01*
X474038Y180598D01*
X473975Y180713D01*
X473915Y180830D01*
X473859Y180949D01*
X473807Y181070D01*
X473758Y181192D01*
X473713Y181315D01*
X473672Y181440D01*
X473635Y181566D01*
X473601Y181693D01*
X473571Y181821D01*
X473546Y181950D01*
X473524Y182080D01*
X473506Y182210D01*
X473492Y182340D01*
X473482Y182471D01*
X473476Y182603D01*
X473474Y182734D01*
D12*
X362824Y479678D02*
X353574Y479678D01*
X353574Y497178D01*
X353574Y545178D02*
X353574Y562678D01*
X362824Y562678D01*
X392824Y562678D02*
X402074Y562678D01*
X402074Y479678D01*
X392824Y479678D01*
X346524Y496768D02*
X346522Y496724D01*
X346516Y496681D01*
X346507Y496639D01*
X346494Y496597D01*
X346477Y496557D01*
X346457Y496518D01*
X346434Y496481D01*
X346407Y496447D01*
X346378Y496414D01*
X346345Y496385D01*
X346311Y496358D01*
X346274Y496335D01*
X346235Y496315D01*
X346195Y496298D01*
X346153Y496285D01*
X346111Y496276D01*
X346068Y496270D01*
X346024Y496268D01*
X345980Y496270D01*
X345937Y496276D01*
X345895Y496285D01*
X345853Y496298D01*
X345813Y496315D01*
X345774Y496335D01*
X345737Y496358D01*
X345703Y496385D01*
X345670Y496414D01*
X345641Y496447D01*
X345614Y496481D01*
X345591Y496518D01*
X345571Y496557D01*
X345554Y496597D01*
X345541Y496639D01*
X345532Y496681D01*
X345526Y496724D01*
X345524Y496768D01*
X345526Y496812D01*
X345532Y496855D01*
X345541Y496897D01*
X345554Y496939D01*
X345571Y496979D01*
X345591Y497018D01*
X345614Y497055D01*
X345641Y497089D01*
X345670Y497122D01*
X345703Y497151D01*
X345737Y497178D01*
X345774Y497201D01*
X345813Y497221D01*
X345853Y497238D01*
X345895Y497251D01*
X345937Y497260D01*
X345980Y497266D01*
X346024Y497268D01*
X346068Y497266D01*
X346111Y497260D01*
X346153Y497251D01*
X346195Y497238D01*
X346235Y497221D01*
X346274Y497201D01*
X346311Y497178D01*
X346345Y497151D01*
X346378Y497122D01*
X346407Y497089D01*
X346434Y497055D01*
X346457Y497018D01*
X346477Y496979D01*
X346494Y496939D01*
X346507Y496897D01*
X346516Y496855D01*
X346522Y496812D01*
X346524Y496768D01*
X346522Y496724D01*
X346516Y496681D01*
X346507Y496639D01*
X346494Y496597D01*
X346477Y496557D01*
X346457Y496518D01*
X346434Y496481D01*
X346407Y496447D01*
X346378Y496414D01*
X346345Y496385D01*
X346311Y496358D01*
X346274Y496335D01*
X346235Y496315D01*
X346195Y496298D01*
X346153Y496285D01*
X346111Y496276D01*
X346068Y496270D01*
X346024Y496268D01*
X345980Y496270D01*
X345937Y496276D01*
X345895Y496285D01*
X345853Y496298D01*
X345813Y496315D01*
X345774Y496335D01*
X345737Y496358D01*
X345703Y496385D01*
X345670Y496414D01*
X345641Y496447D01*
X345614Y496481D01*
X345591Y496518D01*
X345571Y496557D01*
X345554Y496597D01*
X345541Y496639D01*
X345532Y496681D01*
X345526Y496724D01*
X345524Y496768D01*
D10*
X646238Y551854D02*
X655236Y551854D01*
X768666Y551854D02*
X768666Y542856D01*
X768666Y429426D02*
X759668Y429426D01*
X646238Y542856D02*
X646238Y551854D01*
X759668Y551854D02*
X768666Y551854D01*
X768666Y438424D02*
X768666Y429426D01*
D13*
X675304Y564032D02*
X675304Y571623D01*
X695350Y571665D02*
X695350Y564073D01*
X715534Y563884D02*
X715534Y571475D01*
X735430Y571677D02*
X735430Y564085D01*
X679459Y417178D02*
X679459Y409586D01*
X699444Y409749D02*
X699444Y417341D01*
X719402Y416828D02*
X719402Y409236D01*
X739418Y409324D02*
X739418Y416915D01*
X782128Y522595D02*
X789621Y522595D01*
X789621Y502791D02*
X782128Y502791D01*
X782128Y482793D02*
X789621Y482793D01*
X789621Y462610D02*
X782128Y462610D01*
X633156Y518800D02*
X625827Y518800D01*
X625990Y498815D02*
X633156Y498815D01*
X633156Y478857D02*
X625476Y478857D01*
X625564Y458841D02*
X633156Y458841D01*
D11*
X646238Y438424D02*
X655236Y429426D01*
D10*
X555093Y66227D02*
X555093Y59977D01*
X555093Y79622D02*
X571633Y79622D01*
X571633Y69477D01*
X571633Y46582D02*
X555093Y46582D01*
X571633Y46582D02*
X571633Y56727D01*
D12*
X775903Y392344D02*
X775905Y392407D01*
X775911Y392469D01*
X775921Y392531D01*
X775934Y392593D01*
X775952Y392653D01*
X775973Y392712D01*
X775998Y392770D01*
X776027Y392826D01*
X776059Y392880D01*
X776094Y392932D01*
X776132Y392981D01*
X776174Y393029D01*
X776218Y393073D01*
X776266Y393115D01*
X776315Y393153D01*
X776367Y393188D01*
X776421Y393220D01*
X776477Y393249D01*
X776535Y393274D01*
X776594Y393295D01*
X776654Y393313D01*
X776716Y393326D01*
X776778Y393336D01*
X776840Y393342D01*
X776903Y393344D01*
X776966Y393342D01*
X777028Y393336D01*
X777090Y393326D01*
X777152Y393313D01*
X777212Y393295D01*
X777271Y393274D01*
X777329Y393249D01*
X777385Y393220D01*
X777439Y393188D01*
X777491Y393153D01*
X777540Y393115D01*
X777588Y393073D01*
X777632Y393029D01*
X777674Y392981D01*
X777712Y392932D01*
X777747Y392880D01*
X777779Y392826D01*
X777808Y392770D01*
X777833Y392712D01*
X777854Y392653D01*
X777872Y392593D01*
X777885Y392531D01*
X777895Y392469D01*
X777901Y392407D01*
X777903Y392344D01*
X777901Y392281D01*
X777895Y392219D01*
X777885Y392157D01*
X777872Y392095D01*
X777854Y392035D01*
X777833Y391976D01*
X777808Y391918D01*
X777779Y391862D01*
X777747Y391808D01*
X777712Y391756D01*
X777674Y391707D01*
X777632Y391659D01*
X777588Y391615D01*
X777540Y391573D01*
X777491Y391535D01*
X777439Y391500D01*
X777385Y391468D01*
X777329Y391439D01*
X777271Y391414D01*
X777212Y391393D01*
X777152Y391375D01*
X777090Y391362D01*
X777028Y391352D01*
X776966Y391346D01*
X776903Y391344D01*
X776840Y391346D01*
X776778Y391352D01*
X776716Y391362D01*
X776654Y391375D01*
X776594Y391393D01*
X776535Y391414D01*
X776477Y391439D01*
X776421Y391468D01*
X776367Y391500D01*
X776315Y391535D01*
X776266Y391573D01*
X776218Y391615D01*
X776174Y391659D01*
X776132Y391707D01*
X776094Y391756D01*
X776059Y391808D01*
X776027Y391862D01*
X775998Y391918D01*
X775973Y391976D01*
X775952Y392035D01*
X775934Y392095D01*
X775921Y392157D01*
X775911Y392219D01*
X775905Y392281D01*
X775903Y392344D01*
D11*
X784403Y407124D02*
X784403Y408724D01*
X809403Y408724D02*
X809403Y407124D01*
D12*
X792293Y560014D02*
X792295Y560077D01*
X792301Y560139D01*
X792311Y560201D01*
X792324Y560263D01*
X792342Y560323D01*
X792363Y560382D01*
X792388Y560440D01*
X792417Y560496D01*
X792449Y560550D01*
X792484Y560602D01*
X792522Y560651D01*
X792564Y560699D01*
X792608Y560743D01*
X792656Y560785D01*
X792705Y560823D01*
X792757Y560858D01*
X792811Y560890D01*
X792867Y560919D01*
X792925Y560944D01*
X792984Y560965D01*
X793044Y560983D01*
X793106Y560996D01*
X793168Y561006D01*
X793230Y561012D01*
X793293Y561014D01*
X793356Y561012D01*
X793418Y561006D01*
X793480Y560996D01*
X793542Y560983D01*
X793602Y560965D01*
X793661Y560944D01*
X793719Y560919D01*
X793775Y560890D01*
X793829Y560858D01*
X793881Y560823D01*
X793930Y560785D01*
X793978Y560743D01*
X794022Y560699D01*
X794064Y560651D01*
X794102Y560602D01*
X794137Y560550D01*
X794169Y560496D01*
X794198Y560440D01*
X794223Y560382D01*
X794244Y560323D01*
X794262Y560263D01*
X794275Y560201D01*
X794285Y560139D01*
X794291Y560077D01*
X794293Y560014D01*
X794291Y559951D01*
X794285Y559889D01*
X794275Y559827D01*
X794262Y559765D01*
X794244Y559705D01*
X794223Y559646D01*
X794198Y559588D01*
X794169Y559532D01*
X794137Y559478D01*
X794102Y559426D01*
X794064Y559377D01*
X794022Y559329D01*
X793978Y559285D01*
X793930Y559243D01*
X793881Y559205D01*
X793829Y559170D01*
X793775Y559138D01*
X793719Y559109D01*
X793661Y559084D01*
X793602Y559063D01*
X793542Y559045D01*
X793480Y559032D01*
X793418Y559022D01*
X793356Y559016D01*
X793293Y559014D01*
X793230Y559016D01*
X793168Y559022D01*
X793106Y559032D01*
X793044Y559045D01*
X792984Y559063D01*
X792925Y559084D01*
X792867Y559109D01*
X792811Y559138D01*
X792757Y559170D01*
X792705Y559205D01*
X792656Y559243D01*
X792608Y559285D01*
X792564Y559329D01*
X792522Y559377D01*
X792484Y559426D01*
X792449Y559478D01*
X792417Y559532D01*
X792388Y559588D01*
X792363Y559646D01*
X792342Y559705D01*
X792324Y559765D01*
X792311Y559827D01*
X792301Y559889D01*
X792295Y559951D01*
X792293Y560014D01*
D11*
X778513Y567514D02*
X776913Y567514D01*
X776913Y592514D02*
X778513Y592514D01*
D10*
X617061Y412524D02*
X617061Y406274D01*
X617061Y392879D02*
X600521Y392879D01*
X600521Y403024D01*
X600521Y425919D02*
X617061Y425919D01*
X600521Y425919D02*
X600521Y415774D01*
D11*
X332263Y488157D02*
X321263Y488157D01*
X321263Y500877D02*
X332263Y500877D01*
X812716Y503608D02*
X812716Y492608D01*
X825436Y492608D02*
X825436Y503608D01*
M02*
