G04 EAGLE Gerber RS-274X export*
G75*
%MOMM*%
%FSLAX34Y34*%
%LPD*%
%INSoldermask Bottom*%
%IPPOS*%
%AMOC8*
5,1,8,0,0,1.08239X$1,22.5*%
G01*
G04 Define Apertures*
%ADD10R,1.600200X0.533400*%
%ADD11R,2.514600X2.006600*%
%ADD12R,1.503200X0.503200*%
%ADD13R,2.403200X2.103200*%
%ADD14R,1.358900X0.381000*%
%ADD15R,0.381000X1.358900*%
%ADD16C,1.511200*%
%ADD17C,1.411200*%
%ADD18C,1.711200*%
%ADD19C,1.981200*%
%ADD20C,1.727200*%
%ADD21R,0.711200X0.762000*%
%ADD22R,0.762000X0.711200*%
%ADD23R,1.524000X0.812800*%
%ADD24R,1.303200X1.503200*%
%ADD25R,1.503200X1.303200*%
%ADD26C,1.853200*%
%ADD27R,0.738300X0.847200*%
%ADD28R,0.847200X0.738300*%
%ADD29C,0.809600*%
%ADD30C,0.959600*%
%ADD31C,5.219200*%
D10*
X486939Y194200D03*
X486939Y199200D03*
X486939Y204200D03*
X486939Y209200D03*
X486939Y214200D03*
X486939Y219200D03*
X486939Y224200D03*
X486939Y229200D03*
X486939Y234200D03*
X486939Y239200D03*
X486939Y244200D03*
X486939Y249200D03*
X486939Y254200D03*
X486939Y259200D03*
X486939Y264200D03*
X486939Y269200D03*
X486939Y274200D03*
X486939Y279200D03*
X486939Y284200D03*
X486939Y289200D03*
X486939Y294200D03*
X486939Y299200D03*
X486939Y304200D03*
X486939Y309200D03*
X486939Y314200D03*
X486939Y319200D03*
X486939Y324200D03*
X486939Y329200D03*
X486939Y334200D03*
X486939Y339200D03*
X486939Y344200D03*
X486939Y349200D03*
X486939Y354200D03*
X486939Y359200D03*
X486939Y364200D03*
X486939Y369200D03*
X486939Y374200D03*
X486939Y379200D03*
X486939Y384200D03*
X486939Y389200D03*
X486939Y394200D03*
X486939Y399200D03*
X486939Y404200D03*
X486939Y409200D03*
X486939Y414200D03*
X486939Y419200D03*
X486939Y424200D03*
X486939Y429200D03*
X486939Y434200D03*
X486939Y439200D03*
D11*
X518399Y175200D03*
X518399Y458200D03*
D12*
X345074Y538678D03*
X345074Y533678D03*
X345074Y528678D03*
X345074Y523678D03*
X345074Y518678D03*
X345074Y513678D03*
X345074Y508678D03*
X345074Y503678D03*
D13*
X377574Y558178D03*
X377574Y484178D03*
D14*
X641730Y442640D03*
X641730Y446640D03*
X641730Y450640D03*
X641730Y454640D03*
X641730Y458640D03*
X641730Y462640D03*
X641730Y466640D03*
X641730Y470640D03*
X641730Y474640D03*
X641730Y478640D03*
X641730Y482640D03*
X641730Y486640D03*
X641730Y490640D03*
X641730Y494640D03*
X641730Y498640D03*
X641730Y502640D03*
X641730Y506640D03*
X641730Y510640D03*
X641730Y514640D03*
X641730Y518640D03*
X641730Y522640D03*
X641730Y526640D03*
X641730Y530640D03*
X641730Y534640D03*
X641730Y538640D03*
D15*
X659452Y556362D03*
X663452Y556362D03*
X667452Y556362D03*
X671452Y556362D03*
X675452Y556362D03*
X679452Y556362D03*
X683452Y556362D03*
X687452Y556362D03*
X691452Y556362D03*
X695452Y556362D03*
X699452Y556362D03*
X703452Y556362D03*
X707452Y556362D03*
X711452Y556362D03*
X715452Y556362D03*
X719452Y556362D03*
X723452Y556362D03*
X727452Y556362D03*
X731452Y556362D03*
X735452Y556362D03*
X739452Y556362D03*
X743452Y556362D03*
X747452Y556362D03*
X751452Y556362D03*
X755452Y556362D03*
D14*
X773174Y538640D03*
X773174Y534640D03*
X773174Y530640D03*
X773174Y526640D03*
X773174Y522640D03*
X773174Y518640D03*
X773174Y514640D03*
X773174Y510640D03*
X773174Y506640D03*
X773174Y502640D03*
X773174Y498640D03*
X773174Y494640D03*
X773174Y490640D03*
X773174Y486640D03*
X773174Y482640D03*
X773174Y478640D03*
X773174Y474640D03*
X773174Y470640D03*
X773174Y466640D03*
X773174Y462640D03*
X773174Y458640D03*
X773174Y454640D03*
X773174Y450640D03*
X773174Y446640D03*
X773174Y442640D03*
D15*
X755452Y424918D03*
X751452Y424918D03*
X747452Y424918D03*
X743452Y424918D03*
X739452Y424918D03*
X735452Y424918D03*
X731452Y424918D03*
X727452Y424918D03*
X723452Y424918D03*
X719452Y424918D03*
X715452Y424918D03*
X711452Y424918D03*
X707452Y424918D03*
X703452Y424918D03*
X699452Y424918D03*
X695452Y424918D03*
X691452Y424918D03*
X687452Y424918D03*
X683452Y424918D03*
X679452Y424918D03*
X675452Y424918D03*
X671452Y424918D03*
X667452Y424918D03*
X663452Y424918D03*
X659452Y424918D03*
D16*
X923800Y451996D02*
X941200Y451996D01*
X941200Y524996D02*
X923800Y524996D01*
D17*
X883000Y472496D03*
X895500Y480496D03*
X883000Y488496D03*
X895500Y496496D03*
X883000Y504496D03*
D18*
X851812Y238443D02*
X851812Y223363D01*
X911812Y223363D02*
X911812Y238443D01*
X889352Y277903D02*
X874272Y277903D01*
D19*
X626659Y117860D03*
X601259Y117860D03*
X575859Y117860D03*
X550459Y117860D03*
X525059Y117860D03*
D20*
X483170Y125446D02*
X483170Y110206D01*
X457770Y110206D02*
X457770Y125446D01*
D21*
X618036Y492724D03*
X627434Y492724D03*
D22*
X677337Y577924D03*
X677337Y568526D03*
X701531Y578355D03*
X701531Y568957D03*
X737829Y577924D03*
X737829Y568526D03*
X689506Y402518D03*
X689506Y411916D03*
X725293Y402518D03*
X725293Y411916D03*
D21*
X796679Y444508D03*
X787281Y444508D03*
X796679Y492819D03*
X787281Y492819D03*
D23*
X553211Y53602D03*
X553211Y72602D03*
X573515Y63102D03*
D21*
X536956Y72554D03*
X527558Y72554D03*
D24*
X788653Y397424D03*
X788653Y418424D03*
X805153Y418424D03*
X805153Y397424D03*
D25*
X788213Y571764D03*
X767213Y571764D03*
X767213Y588264D03*
X788213Y588264D03*
D21*
X794818Y381623D03*
X785420Y381623D03*
D22*
X798213Y555200D03*
X798213Y545802D03*
D21*
X513311Y214318D03*
X503913Y214318D03*
D23*
X618943Y418899D03*
X618943Y399899D03*
X598639Y409399D03*
D26*
X63500Y549150D03*
X63500Y85850D03*
D27*
X321688Y494517D03*
X331838Y494517D03*
D28*
X819076Y503183D03*
X819076Y493033D03*
D22*
X868057Y549032D03*
X868057Y558430D03*
D29*
X673807Y132831D03*
X756408Y446640D03*
X727379Y439112D03*
X814106Y444354D03*
X687392Y439205D03*
X675541Y539074D03*
X737762Y494735D03*
X737819Y530159D03*
X788406Y555094D03*
X675796Y494637D03*
X297246Y167321D03*
X643683Y399889D03*
X331603Y509866D03*
X788486Y532660D03*
X521192Y571987D03*
X510912Y565494D03*
X297790Y562789D03*
X415220Y565494D03*
X780000Y137891D03*
X765000Y137891D03*
X750000Y137891D03*
X735000Y137891D03*
X720000Y137891D03*
X685201Y94001D03*
X685201Y79001D03*
X685201Y64001D03*
X685201Y49001D03*
X685201Y34001D03*
X589453Y493149D03*
X220506Y215826D03*
X169601Y249511D03*
X705948Y522935D03*
X253512Y381959D03*
X229986Y438066D03*
X271459Y437463D03*
X729463Y361743D03*
X689301Y383663D03*
X669980Y577830D03*
X688297Y522935D03*
X723301Y522935D03*
X693844Y477834D03*
X676194Y477834D03*
X711198Y477834D03*
X536634Y391749D03*
X503142Y391749D03*
X297250Y487128D03*
X706487Y588280D03*
X341981Y547339D03*
X689755Y545409D03*
X713527Y436812D03*
X734304Y585673D03*
X826526Y481862D03*
X807976Y494159D03*
X859174Y442851D03*
X859702Y410923D03*
X780025Y345748D03*
X861285Y579797D03*
D30*
X729765Y201095D03*
D31*
X927100Y38100D03*
X927100Y596900D03*
X38100Y596900D03*
X38100Y38100D03*
D29*
X780303Y604405D03*
X695445Y588280D03*
X742876Y596453D03*
X805300Y79514D03*
X897120Y79514D03*
X856017Y517361D03*
X547321Y498908D03*
X601453Y562726D03*
X626862Y556375D03*
X663396Y500832D03*
X661286Y578378D03*
X304352Y504204D03*
X309225Y517385D03*
X508836Y234332D03*
X654514Y458510D03*
X640130Y578859D03*
X708924Y114522D03*
X659176Y134468D03*
X632132Y544429D03*
X372041Y463459D03*
X397917Y466727D03*
X386358Y601092D03*
X367159Y457610D03*
X398147Y459139D03*
X393946Y600472D03*
X426543Y503121D03*
X367864Y450022D03*
X423696Y458928D03*
X435462Y501656D03*
X360276Y448278D03*
X418269Y453624D03*
X337822Y420144D03*
X208876Y420157D03*
X419375Y421570D03*
X440227Y492380D03*
X368486Y322559D03*
X225721Y456275D03*
X430326Y428196D03*
X428046Y322532D03*
X444405Y450871D03*
X368486Y314565D03*
X226031Y464918D03*
X453206Y314307D03*
X460388Y460947D03*
X368486Y306437D03*
X406176Y306775D03*
X221313Y470999D03*
X408235Y436892D03*
X405355Y580150D03*
X368486Y298563D03*
X389604Y298563D03*
X278673Y615082D03*
X746470Y613073D03*
X370977Y615534D03*
X750917Y481719D03*
X753975Y618391D03*
X368486Y290303D03*
X270274Y618372D03*
X362492Y618760D03*
X384286Y290303D03*
X757203Y487958D03*
X368486Y282584D03*
X409552Y282567D03*
X414138Y581241D03*
X316609Y584426D03*
X368486Y274433D03*
X403808Y273977D03*
X266151Y598132D03*
X403087Y594376D03*
X368486Y266559D03*
X230515Y476317D03*
X460823Y265980D03*
X481528Y470512D03*
X514439Y351751D03*
X298600Y210441D03*
X514241Y338106D03*
X305018Y463389D03*
X333260Y445999D03*
X501072Y476551D03*
X306474Y214335D03*
X662964Y356964D03*
X660342Y337080D03*
X362018Y486317D03*
X459853Y482267D03*
X463238Y334168D03*
X653450Y329200D03*
X320573Y219897D03*
X446777Y244171D03*
X653450Y357057D03*
X448327Y479342D03*
X446408Y328885D03*
X362018Y494824D03*
X646087Y364799D03*
X326074Y237974D03*
X435634Y323568D03*
X435779Y250111D03*
X646087Y323882D03*
X368631Y501307D03*
X442936Y484792D03*
X583192Y318213D03*
X348797Y186845D03*
X413446Y186827D03*
X414365Y212657D03*
X453352Y212657D03*
X583224Y446568D03*
X426543Y495533D03*
X362105Y507019D03*
X461313Y320484D03*
X575604Y313882D03*
X461935Y203212D03*
X469959Y311707D03*
X575604Y449525D03*
X575609Y515006D03*
X368087Y518281D03*
X368486Y202551D03*
X570167Y306379D03*
X368486Y210425D03*
X471793Y211609D03*
X475090Y306107D03*
X570157Y455203D03*
X570528Y526386D03*
X373620Y531930D03*
X703003Y266923D03*
X702951Y278423D03*
X289981Y205621D03*
X281969Y408057D03*
X419524Y344200D03*
X419375Y408057D03*
X681109Y363906D03*
X681479Y261605D03*
X675419Y371151D03*
X674860Y256287D03*
X690073Y278096D03*
X701632Y294794D03*
X290450Y381875D03*
X376279Y383007D03*
X380632Y523901D03*
X368486Y218554D03*
X443107Y218423D03*
X451882Y363603D03*
X362543Y537211D03*
X443577Y530580D03*
X452632Y487585D03*
X368486Y226418D03*
X425815Y226703D03*
X230577Y501317D03*
X424897Y369156D03*
X435861Y468060D03*
X368486Y234562D03*
X438122Y234445D03*
X441761Y424384D03*
X365165Y529102D03*
X393286Y527390D03*
X397471Y504156D03*
X298619Y389297D03*
X376279Y390595D03*
X379446Y510005D03*
X282598Y376144D03*
X370493Y372745D03*
X390894Y538026D03*
X283181Y585088D03*
X262316Y511317D03*
X762588Y621808D03*
X260833Y621808D03*
X260820Y540178D03*
X762658Y497545D03*
X744071Y472011D03*
X736776Y607089D03*
X225259Y484585D03*
X282619Y522243D03*
X292615Y527958D03*
X297495Y533810D03*
X619508Y374336D03*
X619780Y537206D03*
X612094Y379518D03*
X611306Y571821D03*
X733439Y390899D03*
X649114Y390899D03*
X710919Y580056D03*
X170403Y438146D03*
X174919Y234364D03*
X233890Y593900D03*
X147949Y593900D03*
X147949Y514350D03*
X239784Y581450D03*
X136423Y581450D03*
X136423Y501650D03*
X244111Y599962D03*
X171398Y488783D03*
X171398Y599962D03*
X145369Y121072D03*
X147484Y267959D03*
X139576Y133640D03*
X139864Y278260D03*
X119725Y146244D03*
X131527Y285647D03*
X112236Y158731D03*
X123195Y292564D03*
X117066Y302032D03*
X106968Y171730D03*
X133762Y330401D03*
X133548Y184150D03*
X127068Y343148D03*
X123363Y196860D03*
X120502Y355638D03*
X117871Y209565D03*
X113353Y368173D03*
X111358Y222100D03*
X106610Y235485D03*
X106788Y381224D03*
X150411Y336565D03*
X177506Y210423D03*
X144979Y323906D03*
X171143Y201745D03*
X139465Y310986D03*
X175436Y186356D03*
X166979Y374540D03*
X169601Y265816D03*
X189300Y476324D03*
X189298Y242513D03*
X183593Y463581D03*
X183822Y226765D03*
X177897Y450861D03*
X178794Y221062D03*
X266301Y413549D03*
X266424Y356007D03*
X258439Y355470D03*
X258815Y407700D03*
X155068Y348974D03*
X156596Y282889D03*
X161321Y361818D03*
X162946Y276381D03*
X283033Y391883D03*
X525782Y427245D03*
X592501Y309981D03*
X287868Y401388D03*
X592468Y432563D03*
X892091Y424583D03*
X892091Y406647D03*
X892091Y388612D03*
X769163Y431493D03*
X820176Y320971D03*
X853196Y316163D03*
X892091Y352674D03*
X892091Y334481D03*
X892644Y316495D03*
X892085Y298439D03*
X555780Y566215D03*
X558623Y512589D03*
X342031Y596882D03*
X332408Y543039D03*
M02*
